/* XPM */
static char *result[] = {
/* columns rows colors chars-per-pixel */
"32 32 136 2 ",
"   c #EC8421",
".  c #ED8924",
"X  c #ED8B2D",
"o  c #ED8B2E",
"O  c #EE8E2E",
"+  c #EE8F2E",
"@  c #EE8F2F",
"#  c #EF9127",
"$  c #EF932F",
"%  c #F0962C",
"&  c #F19C2D",
"*  c #EF9530",
"=  c #F09630",
"-  c #F09731",
";  c #F09931",
":  c #F19D30",
">  c #F19D32",
",  c #F19E32",
"<  c #F19F32",
"1  c #F2A233",
"2  c #F2A333",
"3  c #F3A732",
"4  c #F2A334",
"5  c #F2A434",
"6  c #F3A835",
"7  c #F3A935",
"8  c #F5B036",
"9  c #F5B037",
"0  c #F5B238",
"q  c #F5B438",
"w  c #F6B438",
"e  c #F6B538",
"r  c #F6B739",
"t  c #F7BC3A",
"y  c #F7BD3B",
"u  c #FAC833",
"i  c #FAC935",
"p  c #FAC937",
"a  c #FACB36",
"s  c #F8C23C",
"d  c #F8C33C",
"f  c #F9C33C",
"g  c #F9C43C",
"h  c #F9C73D",
"j  c #F9C43F",
"k  c #FACA38",
"l  c #FACA39",
"z  c #FACB39",
"x  c #FACA3A",
"c  c #FACB3A",
"v  c #FACA3B",
"b  c #FACC39",
"n  c #FACC3B",
"m  c #FACB3C",
"M  c #FACA3D",
"N  c #FACB3D",
"B  c #FAC93E",
"V  c #FACA3E",
"C  c #FACB3E",
"Z  c #FACC3D",
"A  c #FACC3E",
"S  c #FACD3E",
"D  c #FACD3F",
"F  c #FACE3F",
"G  c #FBCE3F",
"H  c #FBCF3F",
"J  c #F09A49",
"K  c #F09D49",
"L  c #F1A347",
"P  c #F4AD45",
"I  c #F6B941",
"U  c #F6BD61",
"Y  c #F4B86D",
"T  c #F4B574",
"R  c #F3B478",
"E  c #FACB40",
"W  c #F9C943",
"Q  c #FACC40",
"!  c #FACC43",
"~  c #FACC48",
"^  c #FACE49",
"/  c #F8C351",
"(  c #FAD052",
")  c #FAD053",
"_  c #FAD054",
"`  c #FAD156",
"'  c #FAD157",
"]  c #F9CD64",
"[  c #FBD565",
"{  c #FBD668",
"}  c #FAD777",
"|  c #FBDA78",
" . c #FBDB7E",
".. c #FBDB7F",
"X. c #F8CE81",
"o. c #FBDC81",
"O. c #FBDD84",
"+. c #FBDE8A",
"@. c #FBDE8B",
"#. c #FBDF8B",
"$. c #FBDF8C",
"%. c #F8D098",
"&. c #FBDE9E",
"*. c #F7D0A6",
"=. c #F7D0AC",
"-. c #FCE4A0",
";. c #FCE4A2",
":. c #FCE6A5",
">. c #FCE7AE",
",. c #FCE7AF",
"<. c #FCE8B2",
"1. c #FCE8B3",
"2. c #FCE9B3",
"3. c #FBE4BE",
"4. c #FCEBBD",
"5. c #FCECBF",
"6. c #FCECC1",
"7. c #FCEDC2",
"8. c #FDEEC2",
"9. c #FCEFCC",
"0. c #FBE8D1",
"q. c #FBEADB",
"w. c #FDF2D2",
"e. c #FDF1D5",
"r. c #FDF1D6",
"t. c #FDF2D8",
"y. c #FDF3DF",
"u. c #FDF4DF",
"i. c #FDF6E0",
"p. c #FDF6EB",
"a. c #FDF7EC",
"s. c #FDF9F6",
"d. c #FDF9F7",
"f. c #FEFDF6",
"g. c #FEFFFF",
"h. c #000000",
/* pixels */
"h.h.h.h.h.h.h.h.h.h.h.h.h.h.h.h.h.h.h.h.h.h.h.h.h.h.h.h.h.h.h.h.",
"h.h.h.h.h.h.h.h.h.h.h.h.h.h.h.h.h.h.h.h.h.h.h.h.h.h.h.h.h.h.h.h.",
"h.h.h.h.h.h.h.h.h.h.h.h.h.h.h.h.h.h.h.h.h.h.h.h.h.h.h.h.h.h.h.h.",
"h.h.h.h.h.h.h.h.h.h.h.h.h.h.h.h.h.h.h.h.h.h.h.h.h.h.h.h.h.h.h.h.",
"h.h.h.h.h.h.h.h.h.h.h.h.h.o J R =.q.s.h.h.h.h.h.h.h.h.h.h.h.h.h.",
"h.h.h.h.h.h.h.h.h.h.h.h.. @ K T *.0.p.f.h.h.h.h.h.h.h.h.h.h.h.h.",
"h.h.h.h.h.h.h.h.h.h.h.h.# - L Y %.3.e.i.h.h.h.h.h.h.h.h.h.h.h.h.",
"h.h.h.h.h.h.h.h.h.h.h.% & 4 P U X.&.<.8.w.h.h.h.h.h.h.h.h.h.h.h.",
"h.h.h.h.h.h.h.h.h.X $ : 3 9 I / ] } @.:.7.u.s.h.h.h.h.h.h.h.h.h.",
"h.h.h.h.h.h.h.h.X + = 1 8 t j W ~ ) { #.2.e.p.s.h.h.h.h.h.h.h.h.",
"h.h.h.h.h.h.h.h.$ = > 7 r f M n c Q _ | -.6.e.y.h.h.h.h.h.h.h.h.",
"h.h.h.h.h.h.h.; , 2 7 0 y h Z b a l ^ [ O.-.<.5.9.h.h.h.h.h.h.h.",
"h.h.h.h.h.O * < 6 9 r y g B Z n z x ! ) [ | +.;.4.t.a.h.h.h.h.h.",
"h.h.h.h.X O = 1 9 t f h B V C N N N Q ! ^ _ { $.1.r.a.d.h.h.h.h.",
"h.h.h.h.X O = 5 q s V D A C C C C C N x k E ' o.,.e.a.d.h.h.h.h.",
"h.h.h.h.X O = 5 e g S H F A C C C C m p u x (  .>.e.a.d.h.h.h.h.",
"h.h.h.h.X O = 5 w g A G D A C C C C N p i v ) ..>.e.a.d.h.h.h.h.",
"h.h.h.h.X O = 5 q d C D S C C C C C N l p C ` o.,.e.a.d.h.h.h.h.",
"h.h.h.h.X O = 5 q d C D S C C C C C N l p C ` o.,.e.a.d.h.h.h.h.",
"h.h.h.h.X O = 5 w g A G D A C C C C N p i v ) ..>.e.a.d.h.h.h.h.",
"h.h.h.h.X O = 5 e g S H F A C C C C m p u x (  .>.e.a.d.h.h.h.h.",
"h.h.h.h.X O = 5 q s V D A C C C C C N x k E ' o.,.e.a.d.h.h.h.h.",
"h.h.h.h.X O = 1 9 t f h B V C N N N Q ! ^ _ { $.1.r.a.d.h.h.h.h.",
"h.h.h.h.h.O * < 6 9 r y g B Z n z x ! ) [ | +.;.4.t.a.h.h.h.h.h.",
"h.h.h.h.h.h.h.; , 2 7 0 y h Z b a l ^ [ O.-.<.5.9.h.h.h.h.h.h.h.",
"h.h.h.h.h.h.h.h.$ = > 7 r f M n c Q _ | -.6.e.y.h.h.h.h.h.h.h.h.",
"h.h.h.h.h.h.h.h.X + = 1 8 t j W ~ ) { #.2.e.p.s.h.h.h.h.h.h.h.h.",
"h.h.h.h.h.h.h.h.h.X $ : 3 9 I / ] } @.:.7.u.s.h.h.h.h.h.h.h.h.h.",
"h.h.h.h.h.h.h.h.h.h.h.% & 4 P U X.&.<.8.w.h.h.h.h.h.h.h.h.h.h.h.",
"h.h.h.h.h.h.h.h.h.h.h.h.# - L Y %.3.e.i.h.h.h.h.h.h.h.h.h.h.h.h.",
"h.h.h.h.h.h.h.h.h.h.h.h.. @ K T *.0.p.f.h.h.h.h.h.h.h.h.h.h.h.h.",
"h.h.h.h.h.h.h.h.h.h.h.h.  o J R =.q.s.g.h.h.h.h.h.h.h.h.h.h.h.h."
};
