/* XPM */
static char *result[] = {
/* columns rows colors chars-per-pixel */
"32 32 9 1 ",
"  c #ED8B2D",
". c #EE8E2E",
"X c #F09630",
"o c #F2A534",
"O c #F6B438",
"+ c #F8C33C",
"@ c #FACB3E",
"# c #FBCE3F",
"$ c #000000",
/* pixels */
"$$$$$$$$$$$$$$$$$$$$$$$$$$$$$$$$",
"$$$$$$$$$$$$$$$$$$$$$$$$$$$$$$$$",
"$$$$$$$$$$$$$$$$$$$$$$$$$$$$$$$$",
"$$$$$$$$$$$$$$$$$$$$$$$$$$$$$$$$",
"$$$$$$$$$$$$$@+OoX.$$$$$$$$$$$$$",
"$$$$$$$$$$$$#@+OoX. $$$$$$$$$$$$",
"$$$$$$$$$$$$#@+OoX. $$$$$$$$$$$$",
"$$$$$$$$$$$$#@+OoX. $$$$$$$$$$$$",
"$$$$$$$$$$$$#@+OoX. $$$$$$$$$$$$",
"$$$$$$$$$$$$#@+OoX. $$$$$$$$$$$$",
"$$$$$$$$$$$$#@+OoX. $$$$$$$$$$$$",
"$$$$$$$$$$$$#@+OoX. $$$$$$$$$$$$",
"$$$$$$$$$$$$#@+OoX. $$$$$$$$$$$$",
"$$$$$$$$$$$$#@+OoX. $$$$$$$$$$$$",
"$$$$$$$$$$$$#@+OoX. $$$$$$$$$$$$",
"$$$$$$$$$$$$#@+OoX. $$$$$$$$$$$$",
"$$$$$$$$$$$$#@+OoX. $$$$$$$$$$$$",
"$$$$$$$$$$$$#@+OoX. $$$$$$$$$$$$",
"$$$$$$$$$$$$#@+OoX. $$$$$$$$$$$$",
"$$$$$$$$$$$$#@+OoX. $$$$$$$$$$$$",
"$$$$$$$$$$$$#@+OoX. $$$$$$$$$$$$",
"$$$$$$$$$$$$#@+OoX. $$$$$$$$$$$$",
"$$$$$$$$$$$$#@+OoX. $$$$$$$$$$$$",
"$$$$$$$$$$$$#@+OoX. $$$$$$$$$$$$",
"$$$$$$$$$$$$#@+OoX. $$$$$$$$$$$$",
"$$$$$$$$$$$$#@+OoX. $$$$$$$$$$$$",
"$$$$$$$$$$$$#@+OoX. $$$$$$$$$$$$",
"$$$$$$$$$$$$#@+OoX. $$$$$$$$$$$$",
"$$$$$$$$$$$$#@+OoX. $$$$$$$$$$$$",
"$$$$$$$$$$$$#@+OoX. $$$$$$$$$$$$",
"$$$$$$$$$$$$#@+OoX. $$$$$$$$$$$$",
"$$$$$$$$$$$$#@+OoX. $$$$$$$$$$$$"
};
