/* XPM */
static char *result[] = {
/* columns rows colors chars-per-pixel */
"32 32 92 1 ",
"  c #EC8421",
". c #ED8924",
"X c #ED8B2D",
"o c #ED8B2E",
"O c #EE8E2E",
"+ c #EE8F2F",
"@ c #EF9128",
"# c #F0982C",
"$ c #F19D2D",
"% c #EF9530",
"& c #F09630",
"* c #F09731",
"= c #F19E30",
"- c #F2A233",
"; c #F2A334",
": c #F2A434",
"> c #F3A832",
", c #F5B036",
"< c #F5B037",
"1 c #F5B438",
"2 c #F6B438",
"3 c #F6B538",
"4 c #F7BC3A",
"5 c #FACB34",
"6 c #FACB35",
"7 c #F8C23C",
"8 c #F8C33C",
"9 c #F9C43C",
"0 c #F9C43F",
"q c #FACB38",
"w c #FACB39",
"e c #FACA3A",
"r c #FACB3B",
"t c #FBCD38",
"y c #FACC3A",
"u c #FACA3D",
"i c #FACB3D",
"p c #FACB3E",
"a c #FACC3D",
"s c #FACC3F",
"d c #F09A49",
"f c #F09D49",
"g c #F1A347",
"h c #F4AD45",
"j c #F6B942",
"k c #F6BD61",
"l c #F4B86D",
"z c #F4B574",
"x c #F3B478",
"c c #F9C943",
"v c #FACC40",
"b c #FACC48",
"n c #F8C351",
"m c #FAD052",
"M c #FAD053",
"N c #FAD156",
"B c #FAD157",
"V c #F9CD64",
"C c #FBD668",
"Z c #FAD777",
"A c #FBDB7E",
"S c #FBDB7F",
"D c #F8CE81",
"F c #FBDC81",
"G c #FBDE8A",
"H c #FBDF8C",
"J c #F8D098",
"K c #FBDE9E",
"L c #F7D0A6",
"P c #F7D0AC",
"I c #FCE5A2",
"U c #FCE7AE",
"Y c #FCE7AF",
"T c #FCE8B2",
"R c #FCE9B3",
"E c #FBE4BE",
"W c #FCECBD",
"Q c #FDEDC0",
"! c #FDF1CD",
"~ c #FBE8D1",
"^ c #FBEADB",
"/ c #FDF1D5",
"( c #FDF1D6",
") c #FDF2D8",
"_ c #FDF6E0",
"` c #FDF6EB",
"' c #FDF7EC",
"] c #FDF9F6",
"[ c #FDF9F7",
"{ c #FEFDF6",
"} c #FEFFFF",
"| c #000000",
/* pixels */
"||||||||||||||||||||||||||||||||",
"||||||||||||||||||||||||||||||||",
"||||||||||||||||||||||||||||||||",
"||||||||||||||||||||||||||||||||",
"|||||||||||||odxP^]|||||||||||||",
"||||||||||||.+fzL~`{||||||||||||",
"||||||||||||@*glJE/_||||||||||||",
"|||||||||||#$;hkDKTQ!|||||||||||",
"|||||||||O%=><jnVZGIW)'|||||||||",
"||||||||XO&-,40cbMCHR('[||||||||",
"||||||||XO&:17uywvBFY/'[||||||||",
"||||||||XO&:39at5emAU/'[||||||||",
"||||||||XO&:29at6rMSU/'[||||||||",
"||||||||XO&:18iyqpNFY/'[||||||||",
"||||||||XO&:18uyqsNFY/'[||||||||",
"||||||||XO&:18uyqsNFY/'[||||||||",
"||||||||XO&:18uyqsNFY/'[||||||||",
"||||||||XO&:18uyqsNFY/'[||||||||",
"||||||||XO&:18uyqsNFY/'[||||||||",
"||||||||XO&:18uyqsNFY/'[||||||||",
"||||||||XO&:18uyqsNFY/'[||||||||",
"||||||||XO&:18uyqsNFY/'[||||||||",
"||||||||XO&:18iyqpNFY/'[||||||||",
"||||||||XO&:29at6rMSU/'[||||||||",
"||||||||XO&:39at5emAU/'[||||||||",
"||||||||XO&:17uywvBFY/'[||||||||",
"||||||||XO&-,40cbMCHR('[||||||||",
"|||||||||O%=><jnVZGIW)'|||||||||",
"|||||||||||#$;hkDKTQ!|||||||||||",
"||||||||||||@*glJE/_||||||||||||",
"||||||||||||.+fzL~`{||||||||||||",
"|||||||||||| odxP^]}||||||||||||"
};
