/* XPM */
static char *result[] = {
/* columns rows colors chars-per-pixel */
"72 59 59 1 ",
"  c #4F2913",
". c #522B14",
"X c #542F18",
"o c #573017",
"O c #553119",
"+ c #5A341B",
"@ c #5D381E",
"# c #60391D",
"$ c #5D3A21",
"% c #613E23",
"& c #5A4432",
"* c #5E4834",
"= c #634126",
"- c #684326",
"; c #644529",
": c #69462A",
"> c #664A2D",
", c #6B4A2D",
"< c #6B4E31",
"1 c #634E3C",
"2 c #714F33",
"3 c #6C5033",
"4 c #64513E",
"5 c #725334",
"6 c #725638",
"7 c #765A3B",
"8 c #795C3D",
"9 c #675340",
"0 c #695542",
"q c #6B5846",
"w c #6E5D4A",
"e c #705C47",
"r c #7B5F40",
"t c #715E49",
"y c #7D6343",
"u c #74614D",
"i c #766653",
"p c #786651",
"a c #7D6852",
"s c #7C6D5B",
"d c #7E705F",
"f c #806646",
"g c #816749",
"h c #846A4B",
"j c #886F4F",
"k c #886F50",
"l c #8C7354",
"z c #81705D",
"x c #8F7758",
"c c #8F7858",
"v c #907755",
"b c #917856",
"n c #937B5B",
"m c #857562",
"M c #8B7B66",
"N c #978164",
"B c #9D8664",
"V c #9E8768",
"C c None",
/* pixels */
"CCCCCCCCCCCCCCCCCCCCCCCCCCCCCCCCCCCCCCCCCCCCCCCCCCCCCCCCCCCCCCCCCCCCCCCC",
"CCCCCCCCCCCCCCCCCCCCCCCCCCCCCCCCCCCCCCCCCCCCCCCCCCCCCCCCCCCCCCCCCCCCCCCC",
"CCCCCCCCCCCCCCCCCCCCCCCCCCCCCCCCCCCCCCCCCCCCCCCCCCCCCCCCCCCCCCCCCCCCCCCC",
"CCCCCCCCCCCCCCCCCCCCCC,:<+CCCCCCCCCCCCCCCCCCCCC2222CCCCCCCCCCCCCCCCCCCCC",
"CCCCCCCCCCCCCCCCCCCCC>xyyOCCCCCCCCCCCCCCCCCCCCC,bjj2CCCCCCCCCCCCCCCCCCCC",
"CCCCCCCCCCCCCCCCCCCCC<xyy+CCCCCCCCCCCCCCCCCCCCC,bhh2CCCCCCCCCCCCCCCCCCCC",
"CCCCCCCCCCCCCCCCCCCC,bhh3+CCCCCCCCCCCCCCCCCCCCC,fblj2CCCCCCCCCCCCCCCCCCC",
"CCCCCCCCCCCCCCCCCCCC,nhh3+CCCCCCCCCCCCCCCCCCCCC,rbkv2CCCCCCCCCCCCCCCCCCC",
"CCCCCCCCCCCCCCCCCCCC,bkh5oCCCCCCCCCCCCCCCCCCCCC,fBbx2CCCCCCCCCCCCCCCCCCC",
"CCCCCCCCCCCCCCCCCCC,clkl3+CCCCCCCCCCCCCCCCCCCCC,yVbbv2CCCCCCCCCCCCCCCCCC",
"CCCCCCCCCCCCCCCCCCC:nll<<OCCCCCCCCCCCCCCCCCCCCC,yyBbx,CCCCCCCCCCCCCCCCCC",
"CCCCCCCCCCCCCCCCCCC:Nxx<3oCCCCCCCCCCCCCCCCCCCCC,8fVnn,CCCCCCCCCCCCCCCCCC",
"CCCCCCCCCCCCCCCCCCC:Nxl33oCCCCCCCCCCCCCCCCCCCCC,ffnnn,CCCCCCCCCCCCCCCCCC",
"CCCCCCCCCCCCCCCCCCC:Nxl3<.CCCCCCCCCCCCCCCCCCCCC,ffVnn:CCCCCCCCCCCCCCCCCC",
"CCCCCCCCCCCCCCCCCC=Nxxl3<oCCCCCCCCCCCCCCCCCCCCC,ffVnnn-CCCCCCCCCCCCCCCCC",
"CCCCCCCCCCCCCCCCCC;Nxl<<<oCCCCCCCCCCCCCCCCCCCCC,ffgVnn=CCCCCCCCCCCCCCCCC",
"CCCCCCCCCCCCCCCCCC=Nxl<<<XCCCCCCCCCCCCCCCCCCCCC,ff8nnn%CCCCCCCCCCCCCCCCC",
"CCCCCCCCCCCCCCCCCC=Nlk3<3.CCCCCCCCCCCCCCCCCCCCC,ffgVvx%CCCCCCCCCCCCCCCCC",
"CCCCCCCCCCCCCCCCCC=Njl<X<.CCCCCCCCCCCCCCCCCCCCC:f,fnvx%CCCCCCCCCCCCCCCCC",
"CCCCCCCCCCCCCCCCCC=Njk.qo.CCCCCCCCCCCCCCCCCCCCC-:M2Vkk%CCCCCCCCCCCCCCCCC",
"CCCCCCCCCCCCCCCCCC%$#+.1..CCCCCCCCCCCCCCCCCCCCC-%h%%2%$CCCCCCCCCCCCCCCCC",
"CCCCCCCCCCCCCCCCCC%xmz0.<.CCCCCCCCCCCCCCCCCCCCC%8%mMMM%CCCCCCCCCCCCCCCCC",
"CCCCCCCCCCCCCCCCCC=uuu>.,.CCCCCCCCCCCCCCCCCCCCC#f#gaza+CCCCCCCCCCCCCCCCC",
"CCCCCCCCCCCCCCCCCC%tuu.>,.CCCCCCCCCCCCCCCCCCCCC#f8#gga@CCCCCCCCCCCCCCCCC",
"CCCCCCCCCCCCCCCCCC%X..<><.CCCCCCCCCCCCCCCCCCCCC#rf5##++CCCCCCCCCCCCCCCCC",
"CCCCCCCCCCCCCCCCCC%<,><>>.CCCCCCCCCCCCCCCCCCCCC#ffff77+CCCCCCCCCCCCCCCCC",
"CCCCCCCCCCCCCCCCCC%gyy>>,.CCCCCCCCCCCCCCCCCCCCC#rrfvff+CCCCCCCCCCCCCCCCC",
"CCCCCCCCCCCCCCCCCC%gyy>>.9.CCCCCCCCCCCCCCCCCCC#m#frvfh+CCCCCCCCCCCCCCCCC",
"CCCCCCCCCCCCCCCCCC$gyy>>.& CCCCCCCCCCCCCCCCCCC#p#8rvggOCCCCCCCCCCCCCCCCC",
"CCCCCCCCCCCCCCCCCC$g77;>.&.CCCCCCCCCCCCCCCCCCC+p#88jyy.CCCCCCCCCCCCCCCCC",
"CCCCCCCCCCCCCCCCCC$gr7>;.& CCCCCCCCCCCCCCCCCCC#t#88lyr+CCCCCCCCCCCCCCCCC",
"CCCCCCCCCCCCCCCCCC$f77;; &.CCCCCCCCCCCCCCCCCCC#ro88jrr.CCCCCCCCCCCCCCCCC",
"CCCCCCCCCCCCCCCCCC=y77;&;OCCCCCCCCCCCCCCCCCCCCC+777jy7XCCCCCCCCCCCCCCCCC",
"CCCCCCCCCCCCCCCCCC@y77===.CCCCCCCCCCCCCCCCCCCCC+575jrr CCCCCCCCCCCCCCCCC",
"CCCCCCCCCCCCCCCCCC$u77=== CCCCCCCCCCCCCCCCCCCCC+555jr7.CCCCCCCCCCCCCCCCC",
"CCCCCCCCCCCCCCCCCC$y67==$ CCCCCCCCCCCCCCCCCCCCC.555h76XCCCCCCCCCCCCCCCCC",
"CCCCCCCCCCCCCCCCCC@y66=== CCCCCCCCCCCCCCCCCCCCCX2%<h76.CCCCCCCCCCCCCCCCC",
"CCCCCCCCCCCCCCCCCC+y66= = CCCCCCCCCCCCCCCCCCCCC.#s$h67.CCCCCCCCCCCCCCCCC",
"CCCCCCCCCCCCCCCCCCOy66.9. CCCCCCCCCCCCCCCCCCCCC.$q+g66 CCCCCCCCCCCCCCCCC",
"CCCCCCCCCCCCCCCCCC O++.& .CCCCCCCCCCCCCCCCCCCCC.:+i... CCCCCCCCCCCCCCCCC",
"CCCCCCCCCCCCCCCCCC zzs4 $ CCCCCCCCCCCCCCCCCCCCC.,oqzzd.CCCCCCCCCCCCCCCCC",
"CCCCCCCCCCCCCCCCCC.euw*  1 CCCCCCCCCCCCCCCCCCC.i =+qeu CCCCCCCCCCCCCCCCC",
"CCCCCCCCCCCCCCCCCC.wqu @.& CCCCCCCCCCCCCCCCCCC.9 ,+wwe CCCCCCCCCCCCCCCCC",
"CCCCCCCCCCCCCCCCCC . .@@ & CCCCCCCCCCCCCCCCCCC.1 ,-    CCCCCCCCCCCCCCCCC",
"CCCCCCCCCCCCCCCCCC.>::@ 9& CCCCCCCCCCCCCCCCCCC 1u.,5,, CCCCCCCCCCCCCCCCC",
"CCCCCCCCCCCCCCCCCC 866@ && CCCCCCCCCCCCCCCCCCC.44.,f66 CCCCCCCCCCCCCCCCC",
"CCCCCCCCCCCCCCCCCC y66@ & CCCCCCCCCCCCCCCCCCCCC.4 ,y66 CCCCCCCCCCCCCCCCC",
"CCCCCCCCCCCCCCCCCC 866 4& CCCCCCCCCCCCCCCCCCCCC.qd f66 CCCCCCCCCCCCCCCCC",
"CCCCCCCCCCCCCCCCCC .   && CCCCCCCCCCCCCCCCCCCCC ew     CCCCCCCCCCCCCCCCC",
"CCCCCCCCCCCCCCCCCC iii9& CCCCCCCCCCCCCCCCCCCCCCC wduuu CCCCCCCCCCCCCCCCC",
"CCCCCCCCCCCCCCCCCC iqq&& CCCCCCCCCCCCCCCCCCCCCCC wd090 CCCCCCCCCCCCCCCCC",
"CCCCCCCCCCCCCCCCCC uqq&& CCCCCCCCCCCCCCCCCCCCCCC wd000 CCCCCCCCCCCCCCCCC",
"CCCCCCCCCCCCCCCCCC iqq& CCCCCCCCCCCCCCCCCCCCCCCCC d409 CCCCCCCCCCCCCCCCC",
"CCCCCCCCCCCCCCCCCC uqq& CCCCCCCCCCCCCCCCCCCCCCCCC d000 CCCCCCCCCCCCCCCCC",
"CCCCCCCCCCCCCCCCCC uqq& CCCCCCCCCCCCCCCCCCCCCCCCC s090 CCCCCCCCCCCCCCCCC",
"CCCCCCCCCCCCCCCCCC     CCCCCCCCCCCCCCCCCCCCCCCCCCC     CCCCCCCCCCCCCCCCC",
"CCCCCCCCCCCCCCCCCCCCCCCCCCCCCCCCCCCCCCCCCCCCCCCCCCCCCCCCCCCCCCCCCCCCCCCC",
"CCCCCCCCCCCCCCCCCCCCCCCCCCCCCCCCCCCCCCCCCCCCCCCCCCCCCCCCCCCCCCCCCCCCCCCC",
"CCCCCCCCCCCCCCCCCCCCCCCCCCCCCCCCCCCCCCCCCCCCCCCCCCCCCCCCCCCCCCCCCCCCCCCC"
};
