/* XPM */
static char *result[] = {
/* columns rows colors chars-per-pixel */
"67 67 65 1 ",
"  c #4D2712",
". c #4E2812",
"X c #522B14",
"o c #532F18",
"O c #5A3117",
"+ c #56321A",
"@ c #5A351D",
"# c #5E391E",
"$ c #603A1F",
"% c #5B3720",
"& c #5E3A21",
"* c #623D23",
"= c #644126",
"- c #664529",
"; c #69462A",
": c #67482B",
"> c #6A4A2D",
", c #6C4E31",
"< c #644F3C",
"1 c #704E31",
"2 c #6E5234",
"3 c #66523F",
"4 c #6C563E",
"5 c #715537",
"6 c #765837",
"7 c #735738",
"8 c #755A3A",
"9 c #795E3E",
"0 c #7A603F",
"q c #675240",
"w c #695642",
"e c #6C5A46",
"r c #6D5C48",
"t c #715C45",
"y c #7A5F40",
"u c #715E48",
"i c #7D6241",
"p c #74624C",
"a c #756551",
"s c #786751",
"d c #7B6A55",
"f c #7E6E5A",
"g c #7F705B",
"h c #7F7262",
"j c #806545",
"k c #836947",
"l c #856B4B",
"z c #886E4E",
"x c #8A714F",
"c c #876E50",
"v c #886F51",
"b c #8C7455",
"n c #81715C",
"m c #907756",
"M c #907857",
"N c #947C5D",
"B c #847562",
"V c #867966",
"C c #897B67",
"Z c #8C7F6C",
"A c #977F61",
"S c #8E806C",
"D c #9A8365",
"F c #938574",
"G c #000000",
/* pixels */
"GGGGGGGGGGGGGGGGGGGGGGGGGGGGGGGGGGGGGGGGGGGGGGGGGGGGGGGGGGGGGGGGGGG",
"GGGGGGGGGGGGGGGGGGGGGGGGGGGGGGGGGGGGGGGGGGGGGGGGGGGGGGGGGGGGGGGGGGG",
"GGGGGGGGGGGGGGGGGGGGGGGGGGGGGGGGGGGGGGGGGGGGGGGGGGGGGGGGGGGGGGGGGGG",
"GGGGGGGGGGGGGGGGGGGGGGGGGGGGGGGGGGGGGGGGGGGGGGGGGGGGGGGGGGGGGGGGGGG",
"GGGGGGGGGGGGGGGGGGGGGGGGGGGGGGGGGGGGGGGGGGGGGGGGGGGGGGGGGGGGGGGGGGG",
"GGGGGGGGGGGGGGGGGGGGGGGGGGGGGGGGGGGGGGGGGGGGGGGGGGGGGGGGGGGGGGGGGGG",
"GGGGGGGGGGGGGGGGGGGGGGGGGGGGGGGGGGGGGGGGGGGGGGGGGGGGGGGGGGGGGGGGGGG",
"GGGGGGGGGGGGGGGGGGGGGGGGGGGGGGGGGGGGGGGGGGGGGGGGGGGGGGGGGGGGGGGGGGG",
"GGGGGGGGGGGGGGGGGGGGGGGGGGGGGGGGGGGGGGGGGGGGGGGGGGGGGGGGGGGGGGGGGGG",
"GGGGGGGGGGGGGGGGGGGGGGGGGGGGGGGGGGGGGGGGGGGGGGGGGGGGGGGGGGGGGGGGGGG",
"GGGGGGGGGGGGGGGGGGGGGGGGGGGGG>>>>1*11111GGGGGGGGGGGGGGGGGGGGGGGGGGG",
"GGGGGGGGGGGGGGGGGGGGGGGGG>1;=xxxzzOzzlll$===GGGGGGGGGGGGGGGGGGGGGGG",
"GGGGGGGGGGGGGGGGGGGGGGG1>mmm$xxxzkOzllllO999**GGGGGGGGGGGGGGGGGGGGG",
"GGGGGGGGGGGGGGGGGGGGG*$mmmmm$DDDNN$NNNNmO999y8@*GGGGGGGGGGGGGGGGGGG",
"GGGGGGGGGGGGGGGGGGGG;l$zDDDD$6686k$0660i$bbbv8*2&GGGGGGGGGGGGGGGGGG",
"GGGGGGGGGGGGGGGGGGG;zz$A6zjj$ij86j$6ijji=;;jyb*12&GGGGGGGGGGGGGGGGG",
"GGGGGGGGGGGGGGGGGG;lzN*66vjj*iiy6i;60iii;:siii=c55@GGGGGGGGGGGGGGGG",
"GGGGGGGGGGGGGGGGGG;lN8*6zjij;iiiii;0iii0;i0iyi=iz5@GGGGGGGGGGGGGGGG",
"GGGGGGGGGGGGGGGGG=yb88*6vjjj=iiiij;0iiii>0iyyi>yil5@GGGGGGGGGGGGGGG",
"GGGGGGGGGGGGGGGGG-b899*kijjj;iiiii;iii0j>0yyi9>0y9z@GGGGGGGGGGGGGGG",
"GGGGGGGGGGGGGGGG-ib889;jjjji;9iy0j;ij0j0>i0i8i,08ic,+GGGGGGGGGGGGGG",
"GGGGGGGGGGGGGGGG*v6889;jijjj1iyy0j;i0j0j>iiiii2i00ib+GGGGGGGGGGGGGG",
"GGGGGGGGGGGGGGGG-c8896;jjjjj;0j9ij;kiiii>i0ii92i009b+GGGGGGGGGGGGGG",
"GGGGGGGGGGGGGGGG%88666;jij*j19yy0j;kiiii>i*0i9,98i98XGGGGGGGGGGGGGG",
"GGGGGGGGGGGGGGGG@@@$$$****F;>yyy0i;kijii>=F=***%%@@@XGGGGGGGGGGGGGG",
"GGGGGGGGGGGGGGGG+ddnnnBBBBnA*yyy0j;kiiii=FsnnnfcnfddXGGGGGGGGGGGGGG",
"GGGGGGGGGGGGGGGG+8tpppddddcdZ=y80j;kiii=Sddddpupuue8XGGGGGGGGGGGGGG",
"GGGGGGGGGGGGGGGG+ttpppddddddXyyy0i;kiiiiosdssupuupteXGGGGGGGGGGGGGG",
"GGGGGGGGGGGGGGGG+XXXOXXX+XfX59yy0j;kijii>.dXXXXXXXXXXGGGGGGGGGGGGGG",
"GGGGGGGGGGGGGGGGo-=-;;%,;1X159yy0j;kiiii>>o>>>>>>>::XGGGGGGGGGGGGGG",
"GGGGGGGGGGGGGGGGX77877*yyy>1>9y800;kiiii>i>yii276777XGGGGGGGGGGGGGG",
"GGGGGGGGGGGGGGGGO57778*yyyy,199y0i;xiiii>i8ii8277777XGGGGGGGGGGGGGG",
"GGGGGGGGGGGGGGGGX77677>0yi0>289000:l00i0>iyyyy,77777oGGGGGGGGGGGGGG",
"GGGGGGGGGGGGGGGGX77774>i888:,08800:l00ii,i8i99,77727XGGGGGGGGGGGGGG",
"GGGGGGGGGGGGGGGGX67777>i8899,9896i;z000j>ii998275577XGGGGGGGGGGGGGG",
"GGGGGGGGGGGGGGGGX77777>i0888,88960:l00002i8889,45572oGGGGGGGGGGGGGG",
"GGGGGGGGGGGGGGGGX67767;i9888,899@$$$*0002i6989,52724.GGGGGGGGGGGGGG",
"GGGGGGGGGGGGGGGGo75557;i8777,87@SZZSS#002y89y8,75255oGGGGGGGGGGGGGG",
"GGGGGGGGGGGGGGGG.55757,i8777,87#ppppp#902i8888:22222.GGGGGGGGGGGGGG",
"GGGGGGGGGGGGGGGG.75574>i7777,88@pp.pp@692i8888:22222.GGGGGGGGGGGGGG",
"GGGGGGGGGGGGGGGG.77775>05557,70.yrXrrX88,i8888:22222XGGGGGGGGGGGGGG",
"GGGGGGGGGGGGGGGG.72775>07575,77.44444.87>08988:,2,22.GGGGGGGGGGGGGG",
"GGGGGGGGGGGGGGGG.62755:i77&5,77:X.XX.:77>0&968-2,222.GGGGGGGGGGGGGG",
"GGGGGGGGGGGGGGGG.@+@@@&&#&S&,505;:@->8752&S#&#@@%+++.GGGGGGGGGGGGGG",
"GGGGGGGGGGGGGGGG.ddgffnBnndS&77777=07779&Spnnffdddds.GGGGGGGGGGGGGG",
"GGGGGGGGGGGGGGGG.44truppsassS&5577=7557&Spapprrtrr4w.GGGGGGGGGGGGGG",
"GGGGGGGGGGGGGGGG.4wtrpapaaaa.55577=77775.apaprrrtt4w.GGGGGGGGGGGGGG",
"GGGGGGGGGGGGGGGG....X.X.X.d.=55577=77775=.u...X....X.GGGGGGGGGGGGGG",
"GGGGGGGGGGGGGGGG #===:@:::X:=55555=75555=>.-=====*** GGGGGGGGGGGGGG",
"GGGGGGGGGGGGGGGG 2,,2,+555:5=55555%72222=8:899&2,,,, GGGGGGGGGGGGGG",
"GGGGGGGGGGGGGGGG 222,2$25455=55455+42552&98888&<,,,, GGGGGGGGGGGGGG",
"GGGGGGGGGGGGGGGG 22222*52222&55455o22223&78888&,,:,, GGGGGGGGGGGGGG",
"GGGGGGGGGGGGGGGG.++%%%&&@%%+++ooX Xoooo+@%+%+%oooo   GGGGGGGGGGGGGG",
"GGGGGGGGGGGGGGGG pppaaaaaadaddahgh hhhfdddaaaaaaaapa GGGGGGGGGGGGGG",
"GGGGGGGGGGGGGGGG BVVVVVVShSSSSZhFF FFSSSShhSVVVVBhVV GGGGGGGGGGGGGG",
"GGGGGGGGGGGGGGGG 3q33wqq3wwerrrrra arrrrrrerwwq<q<<< GGGGGGGGGGGGGG",
"GGGGGGGGGGGGGGGG 333333qweweeeerra.arrrrereewww<<<<< GGGGGGGGGGGGGG",
"GGGGGGGGGGGGGGGG.<3<3wwwwweeewerra.arrrrrrqewwwwq<<< GGGGGGGGGGGGGG",
"GGGGGGGGGGGGGGGG.333wwwwweeweerrra.arrrrreeewwwwqq<< GGGGGGGGGGGGGG",
"GGGGGGGGGGGGGGGG  ..      .   .o.... .   . .    ..   GGGGGGGGGGGGGG",
"GGGGGGGGGGGGGGGGGGGGGGGGGGGGGGGGGGGGGGGGGGGGGGGGGGGGGGGGGGGGGGGGGGG",
"GGGGGGGGGGGGGGGGGGGGGGGGGGGGGGGGGGGGGGGGGGGGGGGGGGGGGGGGGGGGGGGGGGG",
"GGGGGGGGGGGGGGGGGGGGGGGGGGGGGGGGGGGGGGGGGGGGGGGGGGGGGGGGGGGGGGGGGGG",
"GGGGGGGGGGGGGGGGGGGGGGGGGGGGGGGGGGGGGGGGGGGGGGGGGGGGGGGGGGGGGGGGGGG",
"GGGGGGGGGGGGGGGGGGGGGGGGGGGGGGGGGGGGGGGGGGGGGGGGGGGGGGGGGGGGGGGGGGG",
"GGGGGGGGGGGGGGGGGGGGGGGGGGGGGGGGGGGGGGGGGGGGGGGGGGGGGGGGGGGGGGGGGGG",
"GGGGGGGGGGGGGGGGGGGGGGGGGGGGGGGGGGGGGGGGGGGGGGGGGGGGGGGGGGGGGGGGGGG"
};
