/* XPM */
static char *_bafe8989e6c4df4cc02b86ff0645562BuGDlEjTB8hnbfQe[] = {
/* columns rows colors chars-per-pixel */
"64 64 171 2 ",
"   c #000000",
".  c #141B1B",
"X  c #1C1D1D",
"o  c #1A221F",
"O  c #1F1F20",
"+  c #271F23",
"@  c #2F1D24",
"#  c #1E2121",
"$  c #222222",
"%  c #2B2225",
"&  c #2E2228",
"*  c #2A2B2A",
"=  c #332426",
"-  c #3C2521",
";  c #3E2925",
":  c #342329",
">  c #3C232B",
",  c #2E302F",
"<  c #333332",
"1  c #3D3D3B",
"2  c #491F2E",
"3  c #451F2C",
"4  c #402926",
"5  c #4D2C27",
"6  c #42242D",
"7  c #4E242C",
"8  c #462929",
"9  c #4B2A29",
"0  c #522B2B",
"q  c #5A2C2B",
"w  c #582B24",
"e  c #5F3129",
"r  c #4B2332",
"t  c #462330",
"y  c #522433",
"u  c #5A2536",
"i  c #4E3138",
"p  c #403F3E",
"a  c #4A3B3F",
"s  c #5C3933",
"d  c #503039",
"f  c #613129",
"g  c #793327",
"h  c #7D382D",
"j  c #783529",
"k  c #6C2F32",
"l  c #65263A",
"z  c #6C263C",
"x  c #692B36",
"c  c #74273E",
"v  c #7C2643",
"b  c #7E2841",
"n  c #772943",
"m  c #3F4241",
"M  c #444644",
"N  c #4C4C4A",
"B  c #484745",
"V  c #504F4D",
"C  c #52514F",
"Z  c #555653",
"A  c #585755",
"S  c #595957",
"D  c #585C59",
"F  c #654C47",
"G  c #674E49",
"H  c #694F49",
"J  c #66424D",
"K  c #794E46",
"L  c #69514C",
"P  c #694651",
"I  c #7D5952",
"U  c #7E7B77",
"Y  c #8D352E",
"T  c #83392C",
"R  c #8F3B2E",
"E  c #943A2C",
"W  c #852B3E",
"Q  c #8C3A30",
"!  c #953C32",
"~  c #9C373B",
"^  c #9E3C35",
"/  c #A43D37",
"(  c #A73C3A",
")  c #B33B3E",
"_  c #B93E3E",
"`  c #9B4739",
"'  c #9D483A",
"]  c #9E4031",
"[  c #AC4433",
"{  c #B34434",
"}  c #BA423B",
"|  c #B94436",
" . c #C14733",
".. c #C34934",
"X. c #C94936",
"o. c #C6423F",
"O. c #CC463D",
"+. c #D84731",
"@. c #D54D37",
"#. c #DC4D35",
"$. c #D54B3A",
"%. c #DB4E38",
"&. c #D2463F",
"*. c #DE5037",
"=. c #DF5038",
"-. c #E24E36",
";. c #E35038",
":. c #822744",
">. c #842A44",
",. c #8A2945",
"<. c #8E2848",
"1. c #8D2749",
"2. c #922D44",
"3. c #9C274F",
"4. c #95284B",
"5. c #9C294D",
"6. c #972B48",
"7. c #9F3345",
"8. c #A42B4D",
"9. c #A92E4C",
"0. c #A43245",
"q. c #A93049",
"w. c #AC3641",
"e. c #B43647",
"r. c #B53943",
"t. c #BC3A44",
"y. c #B53548",
"u. c #A32950",
"i. c #A52951",
"p. c #C43E44",
"a. c #C83E44",
"s. c #A3707E",
"d. c #C64140",
"f. c #CC4241",
"g. c #C05240",
"h. c #DD5E51",
"j. c #DB6F5C",
"k. c #DE715F",
"l. c #E27562",
"z. c #E57966",
"x. c #E87D6A",
"c. c #D37B82",
"v. c #D87E85",
"b. c #8C8784",
"n. c #948781",
"m. c #9A8D87",
"M. c #978B8A",
"N. c #948881",
"B. c #95938E",
"V. c #999691",
"C. c #9F9C96",
"Z. c #AEA49D",
"A. c #AEACA5",
"S. c #A9A7A2",
"D. c #B1A7A0",
"F. c #B1ABA4",
"G. c #B3AFA8",
"H. c #CF8B9D",
"J. c #DAB5A9",
"K. c #DFB9AD",
"L. c #CBC6BE",
"P. c #C6C1BB",
"I. c #F2C8BC",
"U. c #CCC8C0",
"Y. c #D3CFC7",
"T. c #D2D0C8",
"R. c #DADAD2",
"E. c #F7CDC1",
"W. c #FEDBCC",
"Q. c #FAF5ED",
"!. c white",
/* pixels */
"                                                                                                                                ",
"                                                                                                                                ",
"                                                                                                                                ",
"                                                                                                                                ",
"                                                                                                                                ",
"                                                                                                                                ",
"                                                                                                                                ",
"                                                                                                                                ",
"                                                                                                                                ",
"                                                                                                                                ",
"                                                                                                                                ",
"                                                                    $ $                                                         ",
"                                                                  $ $                                                           ",
"                                                        $ $     $ $                 $ $                                         ",
"                                                      $ $ $     $ $       $       $                                             ",
"                                                    $ $ $ #     $ $     $ #     $ $                                             ",
"                                $ $ $ % # $         $ # # # # # $ $ # # # # # # # $                                             ",
"                                $ $ $ $ $ $ $       $ = 0 f f q 7 2 6 7 q e e q 7 3 :                                           ",
"                                    $ $ $ $ $ $ $ # O 5 ] X.X.} 7.4.<.7.} X.X.} 0.n > $                                         ",
"                                  $ $ $ # # $ $ # # # 5 { ;.;.h.c.H.H.c.h.-.;.h.v.s.a o X                                       ",
"                                $ $ # % % % $ % % $ $ 5 [ #.%.l.I.Q.Q.I.l.+.+.z.E.P.Z # + % $ $                                 ",
"                  $ $ $ $ $ $ # # # # : u u & % u u : 5 [ #.#.z.W.!.!.W.z.+.+.x.W.T.D @ y u : o #                               ",
"                $ $ $ $ $ $ $ % : * $ 6 ,.2.q y ,.v > 5 [ -.;.k.J.R.R.J.j.+.@.k.K.A.N > W <.y & $ $                             ",
"                    $ $ $ $ # > z l : 8 ] d.{ [ 8.v > 5 { -.;...I D D I g.-.;.g.I N * 5 / d.2.l > # $ $                         ",
"                    $ $ $ $ # 6 ,.4.x j | ;.;.f.p.2.u q Q [ [ T - . . - T [ [ T - X : x | $.p.,.6 $ # $                         ",
"                            # > v q.| ..@.*.*.%.@.} 7.n 7 ; ; = $ X # $ - 4 4 = $ > c 7.O.#.%./ 5 # # $                         ",
"                          $ # : y W w.f.d.d.$.*.*.$.d.7.x r r r y y y y r r r r y x 0.d.&.*.;.{ 5 # $ $                         ",
"                        $ $ $ $ % r ,.8.8.e.O.*.%.%.%.d.q.4.4.4.4.4.5.5.5.6.5.4.4.0.o.$.%.#.*.[ 5 # # $                         ",
"                        $ $ # = y c 4.8.t.d.f.;.*.*.*.$.f.d.p.p.p.p.p.p.d.a.p.p.d.f.$.*.;.;.;.{ 0 # #                           ",
"                        $ $ $ > n 6.5.q.} X.@.@.X.X.%.$.X.X.$.$.X.X.@.@.X.X.$.$.X.X.$.%.X...X.^ 5 #                             ",
"                    $ $ $ $ $ % 6 l 4.2.k T ....h h .. .j j ....g g ....g g ....j j ..| g w e 5 = $                             ",
"                    $ $ $ $ $ # # : z z > 4 R R 8 ; R ' H G ' ` F F ` ` G G ` ` F F ' [ L M * # # $                             ",
"                            $ $ # % : : % % 4 4 % $ ; L D.D.L L Z.Z.G L D.D.L L S.Z.L L A.Z.N o # $                             ",
"                              $ $ # $ $ $ $ o $ $ # # M V.B.m Z Y.T.Z M B.B.m Z T.T.Z m B.B.B X O                               ",
"                                    $ $ $ $ $ $ $ $ $ % < < $ A L.L.A $ < < $ S P.P.Z $ < < * #                                 ",
"                                      $ $ $ $ $ $ $ $ $ X X X p U U p X . . O p U s.p O o o o                                   ",
"                                        $ $ $ $ $ $ $ $ $ $ $ $ * * $ $ $ $ $ % % * $ # $ $                                     ",
"                          $ $         $ $ $ $ $ $ $ $ $ $ + X X X X $ $ $ $ $ $ X X X X $ $ $                                   ",
"                        $ $ $ $     $ $ $ $ $ $ $ $ # # $ * 1 1 * O X $ $ $ + X $ * 1 p * $ $ #                                 ",
"                    $ $ $ $ $ $ $ $ $ $ $ $ $ $ $ O X X . N C.C.B X X X $ $ X X O B C.C.B X X o $ $                             ",
"                    $ $ $ $ $ $ $ $ $ $ $ $ $ $ $ < C C * S T.T.S * V C , , Z N * S T.Y.S * C C < #                             ",
"                        $ $ $ $ $ $ $ $ $ $ $ o o C G.D.N Z U.U.Z N F.F.N N A.A.N Z U.U.Z N A.F.V O O $                         ",
"                      $ $ $ $ $ $ # $ % t t & + 6 P M.m.K K N.N.K K m.m.K K m.m.K K N.b.J J m.b.B X O                           ",
"                    $ $ $ $ $ $ $ % $ > b W 6 6 c >.i s [ [ s s [ [ s s [ [ s s [ [ s d >.>.d , % $                             ",
"                  $ $ $ $ $ # : y y & 8 ~ _ ! ! ) ) Y E X.X.E E X.X.E E X.X.E E X.X.E Y ) ) c 2 & #                             ",
"                $ $ $ $     # 6 :.,.6 0 [ $.&.$.$.*.$.*.@.*.$.%.%.%.%.$.*.$.@.%.%.%.$.%.%.O.y.>.6 o                             ",
"                            # 6 ,.5.:.>.0.e.y.t.&.*.#.*.%.*.*.*.*.%.*.*.$.$.*.*.%.%.%.#.#.$.f.^ 9 #                             ",
"                            $ : z ,.3.8.3.8.9.r.O.*.*.%.*.$.$.&.$.%.%.%.*.*.*.$.%.%.%.%.%.#.;.{ 5 $                             ",
"                            $ % : y ,.u.3.9.d.$.@.#.#.*.*.O.r.r.O.*.*.*.*.$.*.*.$.*.*.*.%.*.;.[ 5 # # $                         ",
"                          $ $ % > u 1.u.3.q.t.o.o.o.d.d.O.t.8.8.t.d.d.O.$.*.*.$.O.d.d.O.$.;.#.[ 5 $ # $                         ",
"                        $ $ # > n 4.5.3.8.8.8.9.9.8.8.8.8.8.5.8.8.8.i.e.O.*.*.f.e.8.8.e.O.*.*.[ 5 # # $                         ",
"                      $ $ $ # 6 ,.i.8.8.5.5.3.3.3.5.u.u.u.u.u.u.u.u.3.9.r.p.p.r.8.3.3.8.e.p.d.~ 8 # #                           ",
"                    $ $ $ $ # > b 4.8.5.8.3.3.8.8.5.5.4.4.4.4.4.4.4.4.6.5.6.6.5.5.u.5.8.8.5.5.b 6 #                             ",
"                    $ $ $     : r l <.i.u.8.3.5.i.<.l y y y y y y y y y y r y l <.i.i.u.u.<.l r :                               ",
"                    $ $         # > n 4.5.3.u.5.4.n > # # $ $ $ $ $ $ $ $ $ $ > n <.,.<.<.c > #                                 ",
"                                    > u >.u.i.,.y >                         # $ : t 6 6 6 6                                     ",
"                                    o > >.5.>.z : #                         $ $ # # # # # #                                     ",
"                                    # 6 :.>.y =                                                                                 ",
"                                    # : u u & #                                                                                 ",
"                                    $ % % % $ $                                                                                 ",
"                                                                                                                                ",
"                                                                                                                                ",
"                                                                                                                                ",
"                                                                                                                                "
};