/* XPM */
static char *result[] = {
/* columns rows colors chars-per-pixel */
"64 64 4 1 ",
"  c #2F2E2F",
". c #39314B",
"X c #3E2F5A",
"o c #564064",
/* pixels */
"                                                                ",
"                                                                ",
"oooooooooooooooooo      oooooooooooooooooooooooooooo      oooooo",
"oooooooooooooooooo      oooooooooooooooooooooooooooo      oooooo",
"ooooXXoooooooooooooo  ooooooooooooXXooooooXXoooooooooo  oooooooo",
"ooooXXoooooooooooooo  ooooooooooooXXooooooXXoooooooooo  oooooooo",
"XXXXXXXXooXXXXXXoooo  ooooXXXXooXXXXXXooXXXXXXXXXXXXoo  ooXXXXoo",
"XXXXXXXXooXXXXXXoooo  ooooXXXXooXXXXXXooXXXXXXXXXXXXoo  ooXXXXoo",
"XXXX..XXXXXXXX....oo  oo....XXXXXXXXXXXXXXXXXXXX..XXXX  XXXXXXXX",
"XXXX..XXXXXXXX....oo  oo....XXXXXXXXXXXXXXXXXXXX..XXXX  XXXXXXXX",
"....................  ............XXXX................  ........",
"....................  ............XXXX................  ........",
"..................      ............................      ......",
"..................      ............................      ......",
"                                                                ",
"                                                                ",
"      oooooooooooooooooooooooooooooo      oooooooooooooooooooooo",
"      oooooooooooooooooooooooooooooo      oooooooooooooooooooooo",
"oo  ooooooooooooooooooooXXXXoooooooooo  ooooooooooooXXXXoooooooo",
"oo  ooooooooooooooooooooXXXXoooooooooo  ooooooooooooXXXXoooooooo",
"oo  ooooXXXXooXXXXXXooXXXXXXXXooXXoooo  ooooXXooXXXXXXXXXXooXXoo",
"oo  ooooXXXXooXXXXXXooXXXXXXXXooXXoooo  ooooXXooXXXXXXXXXXooXXoo",
"oo  oo..XXXXXXXX..XXXXXX......XXXX..oo  oo..XXXXXXXX....XXXXXX..",
"oo  oo..XXXXXXXX..XXXXXX......XXXX..oo  oo..XXXXXXXX....XXXXXX..",
"..  ......XXXX......XXXXXXXXXXXX......  ......XXXX....XXXXXX....",
"..  ......XXXX......XXXXXXXXXXXX......  ......XXXX....XXXXXX....",
"..  ......................XXXX........  ........................",
"..  ......................XXXX........  ........................",
"      ..............................      ......................",
"      ..............................      ......................",
"                                                                ",
"                                                                ",
"oooooooooooooo      oooooooooooooooooooooooo      oooooooooooooo",
"oooooooooooooo      oooooooooooooooooooooooo      oooooooooooooo",
"ooooooooXXoooooo  ooooooooooooXXoooooooooooooo  ooooooXXoooooooo",
"ooooooooXXoooooo  ooooooooooooXXoooooooooooooo  ooooooXXoooooooo",
"XXXXooXXXXXXoooo  ooooXXXXooXXXXXXXXooXXXXoooo  ooooXXXXXXXXooXX",
"XXXXooXXXXXXoooo  ooooXXXXooXXXXXXXXooXXXXoooo  ooooXXXXXXXXooXX",
"XXXX..XXXXXXXXoo  ooXXXXXXXXXX..XXXX..XXXXXXoo  ooXXXX..XXXXXXXX",
"XXXX..XXXXXXXXoo  ooXXXXXXXXXX..XXXX..XXXXXXoo  ooXXXX..XXXXXXXX",
"..XXXX..XXXXXX..  ..XXXXXXXX....XXXXXX..XXXX..  ..XXXXXX..XXXX..",
"..XXXX..XXXXXX..  ..XXXXXXXX....XXXXXX..XXXX..  ..XXXXXX..XXXX..",
"XXXXXX....XX....  ....XX......XXXX..XXXXXX....  ....XXXXXXXX....",
"XXXXXX....XX....  ....XX......XXXX..XXXXXX....  ....XXXXXXXX....",
"..XX............  ....................XX......  ......XX........",
"..XX............  ....................XX......  ......XX........",
"..............      ........................      ..............",
"..............      ........................      ..............",
"                                                                ",
"                                                                ",
"oooo      oooooooooooooooooooooooo      oooooooooooooooooooooooo",
"oooo      oooooooooooooooooooooooo      oooooooooooooooooooooooo",
"oooooo  ooooooooooooXXooooooXXoooooo  ooooooooooooooooXXoooooooo",
"oooooo  ooooooooooooXXooooooXXoooooo  ooooooooooooooooXXoooooooo",
"XXoooo  ooooXXXXooXXXXXXooXXXXXXoooo  ooooXXXXooXXXXXXXXXXooooXX",
"XXoooo  ooooXXXXooXXXXXXooXXXXXXoooo  ooooXXXXooXXXXXXXXXXooooXX",
"XX..oo  oo..XXXXXXXXXXXX..XXXXXX..oo  oo..XXXXXXXXXXXX..XXXXXXXX",
"XX..oo  oo..XXXXXXXXXXXX..XXXXXX..oo  oo..XXXXXXXXXXXX..XXXXXXXX",
"......  ......XX....XXXXXXXXXX......  ......XXXXXXXX....XXXXXXXX",
"......  ......XX....XXXXXXXXXX......  ......XXXXXXXX....XXXXXXXX",
"......  ..................XX........  ........XX............XX..",
"......  ..................XX........  ........XX............XX..",
"....      ........................      ........................",
"....      ........................      ........................"
};
