/* XPM */
static char *result[] = {
/* columns rows colors chars-per-pixel */
"53 93 60 1 ",
"  c #4F2913",
". c #522C14",
"X c #542E19",
"o c #54331E",
"O c #58331A",
"+ c #543421",
"@ c #583620",
"# c #563926",
"$ c #5B3C26",
"% c #563B2A",
"& c #5C3E2B",
"* c #5E402C",
"= c #594233",
"- c #5B4739",
"; c #5D493C",
": c #62432D",
"> c #644631",
", c #674831",
"< c #694A33",
"1 c #5E4E41",
"2 c #5E5245",
"3 c #625446",
"4 c #655847",
"5 c #625549",
"6 c #635A4D",
"7 c #695E4F",
"8 c #635C52",
"9 c #695F50",
"0 c #676057",
"q c #6A6153",
"w c #676159",
"e c #6A645C",
"r c #6E685E",
"t c #70675C",
"y c #71695E",
"u c #7C725D",
"i c #6B6761",
"p c #6D6961",
"a c #716B62",
"s c #736F69",
"d c #757065",
"f c #787367",
"g c #75716A",
"h c #79756B",
"j c #7D7A6E",
"k c #7E7B70",
"l c #807761",
"z c #817963",
"x c #817D72",
"c c #858276",
"v c #878479",
"b c #89867B",
"n c #8B897E",
"m c #8F8C82",
"M c #928F87",
"N c #929087",
"B c #959289",
"V c #98968E",
"C c #9C9A92",
"Z c None",
/* pixels */
"ZZZZZZZZZZZZZZZZZZZZZZZZZZZZZZZZZZZZZZZZZZZZZZZZZZZZZ",
"ZZZZZZZZZZZZZZZZZZZZZZZZZZZZZZZZZZZZZZZZZZZZZZZZZZZZZ",
"ZZZZZZZZZZZZZZZZZZZZZZZZZZZZZZZZZZZZZZZZZZZZZZZZZZZZZ",
"ZZZZZZZZZZZZZZZZZZZZZZZZZZZZZZZZZZZZZZZZZZZZZZZZZZZZZ",
"ZZZZZZZZZZZZZZZZZZZZZZZZZZZZZZZZZZZZZZZZZZZZZZZZZZZZZ",
"ZZZZZZZZZZZZZZZZZZZZZZZZZZZZZZZZZZZZZZZZZZZZZZZZZZZZZ",
"ZZZZZZZZZZZZZZZZZZZZZZZZZZZZZZZZZZZZZZZZZZZZZZZZZZZZZ",
"ZZZZZZZZZZZZZZZZZZZZZZZZZZZZZZZZZZZZZZZZZZZZZZZZZZZZZ",
"ZZZZZZZZZZZZZZZZZZZZZZZZZZZZZZZZZZZZZZZZZZZZZZZZZZZZZ",
"ZZZZZZZZZZZZ:>>>,,,>,>>>,,,<<:,:::ZZZZZZZZZZZZZZZZZZZ",
"ZZZZZZZZZZZ:BnnncccccccccccxccxvxN&&ZZZZZZZZZZZZZZZZZ",
"ZZZZZZZZZZ:BnbnnvcvcvcccccccccxmvvMM*ZZZZZZZZZZZZZZZZ",
"ZZZZZZZZZZ>BbnccvcvccvvccvvcxxxxvvcvN:ZZZZZZZZZZZZZZZ",
"ZZZZZZZZZZ>Bccccc0qtttyyyytttpanvvvvM:ZZZZZZZZZZZZZZZ",
"ZZZZZZZZZZ,Nvcvv9$*$*&&&&&:&>**0cccxM:ZZZZZZZZZZZZZZZ",
"ZZZZZZZZZZ,Nvvvv:xxccvcccxccxxx*ccccM:ZZZZZZZZZZZZZZZ",
"ZZZZZZZZZZ,Nbvcc,cxxxvcvmxxxxnx:ccccB:ZZZZZZZZZZZZZZZ",
"ZZZZZZZZZZ,Ncvbb:jxxxxvxxxxnxxx*xcvvM:ZZZZZZZZZZZZZZZ",
"ZZZZZZZZZZ:Nbbbb,xccvxxxxmnxxxx$ccvvM:ZZZZZZZZZZZZZZZ",
"ZZZZZZZZZZ:Nbbvb:cccxxxxxxxxxxx*vvvvM>ZZZZZZZZZZZZZZZ",
"ZZZZZZZZZZ>Nnnbb<xxbvhfxxxxxxxx:vvvvV>ZZZZZZZZZZZZZZZ",
"ZZZZZZZZZZ*Vnnbb>xxxvhfxxxxxzff:nvvvV>ZZZZZZZZZZZZZZZ",
"ZZZZZZZZZZ*Bnnnn>xxbxvxxxhxxxff:nvvnV:ZZZZZZZZZZZZZZZ",
"ZZZZZZZZZZ:Vnnnn>xxxbvxxxxdffff*nvvvV:ZZZZZZZZZZZZZZZ",
"ZZZZZZZZZZ:Bnnnnm>*:,::,::::&**nnnvnV:ZZZZZZZZZZZZZZZ",
"ZZZZZZZZZZ:VnnnnmbnmnnnnnnnnnnnnbbnnV:ZZZZZZZZZZZZZZZ",
"ZZZZZZZZZZ:BnnnnnnmnnnnnnnnnbnnnnnnvV$ZZZZZZZZZZZZZZZ",
"ZZZZZZZZZZ:dNVnnnnnnnnnmnnnnmnnmnnbV9XZZZZZZZZZZZZZZZ",
"ZZZZZZZZZZ*addCCCCCCVVVVCVVVVVVCCCV99.ZZZZZZZZZZZZZZZ",
"ZZZZZZZZZZ:yavsaaatttattyuatttttttex8.ZZZZZZZZZZZZZZZ",
"ZZZZZZZZZZ*tvaaaatttataaaayattttetttg.ZZZZZZZZZZZZZZZ",
"ZZZZZZZZZZ$rxsstaaaaaaaaaaaatttteterh.ZZZZZZZZZZZZZZZ",
"ZZZZZZZZZZ#xyrryayryyayaaaaaaaaatteeh.ZZZZZZZZZZZZZZZ",
"ZZZZZZZZZZ@hrrtrryayaaaaapaaaaaaterrh.ZZZZZZZZZZZZZZZ",
"ZZZZZZZZZZoxrtrrrrrayapaaadaaaaaarrrh.ZZZZZZZZZZZZZZZ",
"ZZZZZZZZZZohrrraayaaaaaypaaaaaapaarrh.ZZZZZZZZZZZZZZZ",
"ZZZZZZZZZZ@hiierrarapaaaaaaapaapaapph.ZZZZZZZZZZZZZZZ",
"ZZZZZZZZZZZX112232355565242222221111XZZZZZZZZZZZZZZZZ",
"ZZZZZZZZZZZZO1122235662462622222111XZZZZZZZZZZZZZZZZZ",
"ZZZZZZZZZZZZZO;21225626564622;2;11XZZZZZZZZZZZZZZZZZZ",
"ZZZZZZZZZZZZZZOXX++#$&&&=*++ooooX ZZZZZZZZZZZZZZZZZZZ",
"ZZZZZZZZZZZZZZ eeeei+reieeweeeeie ZZZZZZZZZZZZZZZZZZZ",
"ZZZZZZZZZZZZZZ.e88e8&eeeeieeeeeie ZZZZZZZZZZZZZZZZZZZ",
"ZZZZZZZZZZZZZZ weeee=eweeeeieeeii.ZZZZZZZZZZZZZZZZZZZ",
"ZZZZZZZZZZZZZZ.wweew=wweeweewiwie ZZZZZZZZZZZZZZZZZZZ",
"ZZZZZZZZZZZZZZ wwwww=ieeeeeeewiii ZZZZZZZZZZZZZZZZZZZ",
"ZZZZZZZZZZZZZZ eewew=eweeeeweewie ZZZZZZZZZZZZZZZZZZZ",
"ZZZZZZZZZZZZZZ wewww=wweeeeieeiie ZZZZZZZZZZZZZZZZZZZ",
"ZZZZZZZZZZZZZZ.ewwww==wwwwwiiwiwi.ZZZZZZZZZZZZZZZZZZZ",
"ZZZZZZZZZZZZZZZ#%=+++++112112-==+ZZZZZZZZZZZZZZZZZZZZ",
"ZZZZZZZZZZZZZZ eiiwwiwiwiw==ggggg ZZZZZZZZZZZZZZZZZZZ",
"ZZZZZZZZZZZZZZ 88888888886=siiiii ZZZZZZZZZZZZZZZZZZZ",
"ZZZZZZZZZZZZZZ 88828888866=iiiiii ZZZZZZZZZZZZZZZZZZZ",
"ZZZZZZZZZZZZZZ 88888882285-iiiiii ZZZZZZZZZZZZZZZZZZZ",
"ZZZZZZZZZZZZZZ 88828288852=iiiiii ZZZZZZZZZZZZZZZZZZZ",
"ZZZZZZZZZZZZZZ 88888888588%iiiiii ZZZZZZZZZZZZZZZZZZZ",
"ZZZZZZZZZZZZZZ.22886685888+ipiiii ZZZZZZZZZZZZZZZZZZZ",
"ZZZZZZZZZZZZZZ 22288858862+iipiii ZZZZZZZZZZZZZZZZZZZ",
"ZZZZZZZZZZZZZZZ++#%#+%=-+++++====ZZZZZZZZZZZZZZZZZZZZ",
"ZZZZZZZZZZ:::: sssp=iiiisssssssgg      ZZZZZZZZZZZZZZ",
"ZZZZZZZZZ:hhhh.eiww=wwwwwwwwwiipi.44444 ZZZZZZZZZZZZZ",
"ZZZZZZZZ,bjjhj.wwww-8wwwwwwwwwwei.44444 ZZZZZZZZZZZZZ",
"ZZZZZZZZ>bjjjj.eeww=wwwwwwwwwwwwe 44464 ZZZZZZZZZZZZZ",
"ZZZZZZZZ,njjjj.ewew-wwwwwwwwwwwww 44746 ZZZZZZZZZZZZZ",
"ZZZZZZZZ<bcjjj.eeew*wwwwwwwwwwwww 26676 ZZZZZZZZZZZZZ",
"ZZZZZZZZ<bxxjc.reww=ewwwwwwwwwwww q7767 ZZZZZZZZZZZZZ",
"ZZZZZZZZ<njccx.rwre=wwwwwwwwwwwww 77777 ZZZZZZZZZZZZZ",
"ZZZZZZZZ<bccczxo==-==------%%+ooo77777n ZZZZZZZZZZZZZ",
"ZZZZZZZZ<nccccXhhhghgggsss;1%ssss qqwwb ZZZZZZZZZZZZZ",
"ZZZZZZZZ<ncccc.appprieiiiwsg%wwww q7qgb ZZZZZZZZZZZZZ",
"ZZZZZZZZ<nccccOdpppreiewi8w8;wwww qqqhv ZZZZZZZZZZZZZ",
"ZZZZZZZZ<bcccc.dppppieei88881wwww 77jjm ZZZZZZZZZZZZZ",
"ZZZZZZZZ<mccccOdppeieeee8w8858i8w qqjjv ZZZZZZZZZZZZZ",
"ZZZZZZZZ<mcccc.dprpeeii08w88&iwww qhjjm ZZZZZZZZZZZZZ",
"ZZZZZZZZ<ncvcc.dpriewwqwiiii+wwww qjjjv ZZZZZZZZZZZZZ",
"ZZZZZZZZ<McvccOuereeeeqq88ie+wwww 0jjjv ZZZZZZZZZZZZZ",
"ZZZZZZZZ<NcccccOXX..O.......     qkkkkm ZZZZZZZZZZZZZ",
"ZZZZZZZZ<nbccccczzllfuluuuuuduuuujjjkkv ZZZZZZZZZZZZZ",
"ZZZZZZZZ<nvcvcccccccxckckxxjxjhkkjjjkjb ZZZZZZZZZZZZZ",
"ZZZZZZZZ<Mcccccccccccxcxkcxkjjjkkjjjkkm ZZZZZZZZZZZZZ",
"ZZZZZZZZ<ncccccccccccccccxxxkkkkkhkjkjb ZZZZZZZZZZZZZ",
"ZZZZZZZZ<CCVVBBNnBBNBBNBNNNBBBNNMNBNNBN ZZZZZZZZZZZZZ",
"ZZZZZZZZOcrryyyrayyydrydyrarreeeewwwwen ZZZZZZZZZZZZZ",
"ZZZZZZZZOhtrrrrrayyyprdrdrrrrreweweewwc ZZZZZZZZZZZZZ",
"ZZZZZZZZ.fttrrrrrryydradaprarreweewwwwk.ZZZZZZZZZZZZZ",
"ZZZZZZZZ.O...OX.O..X........           .ZZZZZZZZZZZZZ",
"ZZZZZZZZZZZZZZZZZZZZZZZZZZZZZZZZZZZZZZZZZZZZZZZZZZZZZ",
"ZZZZZZZZZZZZZZZZZZZZZZZZZZZZZZZZZZZZZZZZZZZZZZZZZZZZZ",
"ZZZZZZZZZZZZZZZZZZZZZZZZZZZZZZZZZZZZZZZZZZZZZZZZZZZZZ",
"ZZZZZZZZZZZZZZZZZZZZZZZZZZZZZZZZZZZZZZZZZZZZZZZZZZZZZ",
"ZZZZZZZZZZZZZZZZZZZZZZZZZZZZZZZZZZZZZZZZZZZZZZZZZZZZZ",
"ZZZZZZZZZZZZZZZZZZZZZZZZZZZZZZZZZZZZZZZZZZZZZZZZZZZZZ",
"ZZZZZZZZZZZZZZZZZZZZZZZZZZZZZZZZZZZZZZZZZZZZZZZZZZZZZ"
};
