/* XPM */
static char *result[] = {
/* columns rows colors chars-per-pixel */
"64 64 119 2 ",
"   c #3B0001",
".  c #3C0101",
"X  c #3C0102",
"o  c #3C0202",
"O  c #3D0202",
"+  c #3E0202",
"@  c #3F0302",
"#  c #3E0303",
"$  c #3F0403",
"%  c #4C0A03",
"&  c #4E0B03",
"*  c #4D0B04",
"=  c #4F0C04",
"-  c #4B130C",
";  c #4C140D",
":  c #4C150D",
">  c #4C150E",
",  c #4D160E",
"<  c #4D170E",
"1  c #4D170F",
"2  c #4E180F",
"3  c #5D2919",
"4  c #5E2A19",
"5  c #5D2A1A",
"6  c #5E2B1B",
"7  c #E02706",
"8  c #E02707",
"9  c #E02807",
"0  c #E02907",
"q  c #E22D08",
"w  c #E22E08",
"e  c #E22E09",
"r  c #E22F09",
"t  c #E2300A",
"y  c #E5340A",
"u  c #E5350A",
"i  c #E4350B",
"p  c #E5360B",
"a  c #E23912",
"s  c #E43F14",
"d  c #D95C15",
"f  c #DA5D15",
"g  c #EA6617",
"h  c #F56115",
"j  c #F56215",
"k  c #F56216",
"l  c #F56316",
"z  c #F66316",
"x  c #F86716",
"c  c #F86816",
"v  c #F86817",
"b  c #F86917",
"n  c #F86918",
"m  c #F86A18",
"M  c #F86A19",
"N  c #FA6D18",
"B  c #FA6E18",
"V  c #FA6E19",
"C  c #FA6F19",
"Z  c #FA7019",
"A  c #FA701A",
"S  c #FA711A",
"D  c #F77221",
"F  c #F77321",
"G  c #F77421",
"H  c #F87321",
"J  c #F97822",
"K  c #FA7922",
"L  c #FA7923",
"P  c #FA7A23",
"I  c #FA7A24",
"U  c #FA7B24",
"Y  c #F7832C",
"T  c #F9852D",
"R  c #F9852E",
"E  c #F9862E",
"W  c #D4C072",
"Q  c #D5C173",
"!  c #E6CB76",
"~  c #E6CC76",
"^  c #F3CD75",
"/  c #F4CE76",
"(  c #E4D37E",
")  c #E4D47F",
"_  c #E5D47F",
"`  c #E5D57F",
"'  c #E6D67F",
"]  c #F6D276",
"[  c #F6D376",
"{  c #F6D377",
"}  c #F6D477",
"|  c #F7D477",
" . c #E5D680",
".. c #E6D680",
"X. c #E6D780",
"o. c #E7D881",
"O. c #F5DE80",
"+. c #F5DE81",
"@. c #F5DF81",
"#. c #F6DE80",
"$. c #F6DE81",
"%. c #F6DF81",
"&. c #F5DF82",
"*. c #F6DF82",
"=. c #F5E082",
"-. c #F6E082",
";. c #F6E083",
":. c #F3E78A",
">. c #F3E88A",
",. c #F3E88B",
"<. c #F4E88A",
"1. c #F5E88A",
"2. c #F5E98B",
"3. c #F6E98B",
"4. c #F7EA8B",
"5. c #F5EA8C",
"6. c #F6EA8C",
"7. c #F7EB8C",
"8. c #000000",
/* pixels */
"8.8.8.8.8.8.8.8.8.8.8.8.8.8.8.8.8.8.8.8.8.8.8.8.8.8.8.8.8.8.8.8.8.8.8.8.8.8.8.8.8.8.8.8.8.8.8.8.8.8.8.8.8.8.8.8.8.8.8.8.8.8.8.8.",
"8.8.8.8.8.8.8.8.8.8.8.8.8.8.8.8.8.8.8.8.8.8.8.8.8.8.8.8.8.8.8.8.8.8.8.8.8.8.8.8.8.8.8.8.8.8.8.8.8.8.8.8.8.8.8.8.8.8.8.8.8.8.8.8.",
"8.8.8.8.8.8.8.8.8.8.8.8.8.8.8.8.8.8.8.8.8.8.8.8.8.8.8.8.8.8.8.8.8.8.8.8.8.8.8.8.8.8.8.8.8.8.8.8.8.8.8.8.8.8.9 9 8.8.8.8.8.8.8.8.",
"8.8.8.8.8.8.8.8.8.8.8.8.8.8.8.8.8.8.8.8.8.8.8.8.8.8.8.8.8.8.8.8.8.8.8.8.8.8.8.8.8.8.8.8.8.8.8.8.8.8.8.8.8.8.9 9 8.8.8.8.8.8.8.8.",
"8.8.8.8.8.8.8.8.8.8.8.8.8.8.8.8.8.8.8.8.8.8.8.8.8.8.8.8.8.8.8.8.8.8.8.8.8.8.9 9 9 9 9 9 9 9 9 9 9 9 8.8.8.8.8.8.8.8.8.8.8.8.8.8.",
"8.8.8.8.8.8.8.8.8.8.8.8.8.8.8.8.8.8.8.8.8.8.8.8.8.8.8.8.8.8.8.8.8.8.8.8.8.8.9 9 9 9 9 9 9 9 9 9 9 9 8.8.8.8.8.8.8.8.8.8.8.8.8.8.",
"8.8.8.8.8.8.8.8.8.8.8.8.8.8.8.8.8.8.8.8.8.8.8.8.8.8.9 9 8.8.8.8.8.8.8.8.9 9 9 9 9 9 9 9 9 9 9 9 9 9 9 9 8.8.8.8.8.8.8.8.8.8.8.8.",
"8.8.8.8.8.8.8.8.8.8.8.8.8.8.8.8.8.8.8.8.8.8.8.8.8.8.9 9 8.8.8.8.8.8.8.8.9 9 9 9 9 0 e r r e 0 9 9 9 9 9 8.8.8.8.8.8.8.8.8.8.8.8.",
"8.8.8.8.8.8.8.8.8.8.8.8.8.8.8.8.8.8.9 9 8.8.8.8.8.8.8.8.8.8.8.8.8.8.9 9 9 9 9 9 8 w k b b l e 9 9 9 9 9 9 9 8.8.8.8.9 9 8.8.8.8.",
"8.8.8.8.8.8.8.8.8.8.8.8.8.8.8.8.8.8.9 9 8.8.8.8.8.8.8.8.8.8.8.8.8.8.r r r r r r e u n C m l e 9 9 9 9 9 9 9 8.8.8.8.9 9 8.8.8.8.",
"8.8.8.8.8.8.8.8.8.8.8.8.8.8.8.8.8.8.8.8.8.8.8.8.8.8.8.8.8.8.9 9 8 e z b v v v v v b C b u w 0 9 9 9 8.8.8.8.8.8.8.8.9 9 9 9 8.8.",
"8.8.8.8.8.8.8.8.8.8.8.8.8.8.8.8.8.8.8.8.8.8.8.8.8.8.8.8.8.8.9 0 w u n Z C A P P A C C v e 8 9 9 9 9 8.8.8.8.8.8.8.8.9 9 9 9 8.8.",
"8.8.8.8.8.8.8.8.8.8.8.8.8.8.8.8.8.8.8.8.8.8.8.8.8.8.8.8.9 9 8 w k n B B B K } } K B Z b r 9 9 9 8.8.8.8.8.8.8.8.8.8.9 9 9 9 8.8.",
"8.8.8.8.8.8.8.8.8.8.8.8.8.8.8.8.8.8.8.8.8.8.8.8.8.8.8.8.9 0 w u n S L I P T =.=.T J M k e 9 9 9 8.8.8.8.8.8.8.8.8.8.9 9 9 9 8.8.",
"8.8.8.8.8.8.8.8.8.8.8.8.8.8.8.8.8.8.8.8.8.8.8.8.8.8.9 9 9 e k n N K { +.O.@.1.1.=./ s q 0 9 9 9 8.8.8.8.8.8.8.8.8.8.8.8.9 9 8.8.",
"8.8.8.8.8.8.8.8.8.8.8.8.8.8.8.8.8.8.8.8.8.8.8.8.8.8.9 9 9 r b S K T &.5.5.5.2.1.-.^ a 7 9 9 9 9 8.8.8.8.8.8.8.8.8.8.8.8.9 9 8.8.",
"8.8.8.8.8.8.8.8.8.8.8.8.8.8.8.8.8.8.8.8.8.8.8.8.9 9 9 9 8 e v P { &.1.2.5.5.5.&.E D t 9 9 9 8.8.8.8.8.8.8.8.8.8.8.8.8.8.8.8.8.8.",
"8.8.8.8.8.8.8.8.8.8.8.8.8.8.8.8.8.8.8.8.8.8.8.8.9 9 9 0 w u v U +.5.2.1.@.O.+.[ H h w 9 9 9 8.8.8.8.8.8.8.8.8.8.8.8.8.8.8.8.8.8.",
"8.8.8.8.8.8.8.8.8.8.8.8.8.8.8.8.8.8.8.8.8.8.8.8.9 9 8 w k n N P O.5.5.@.T P U G p w 0 9 8.8.8.8.8.8.8.8.8.8.8.8.8.8.8.8.8.8.8.8.",
"8.8.8.8.8.8.8.8.8.8.8.8.8.8.8.8.8.8.8.8.8.8.8.8.9 0 w u n S K T @.5.5.O.P N b j w 8 9 9 8.8.8.8.8.8.8.8.8.8.8.8.8.8.8.8.8.8.8.8.",
"8.8.8.8.8.8.8.8.8.8.8.8.8.8.8.8.8.8.8.8.8.8.9 9 9 e k n B L { &.1.2.5.O.P c y q 9 9 9 9 8.8.8.8.8.8.8.8.8.8.9 9 8.8.8.8.8.8.8.8.",
"8.8.8.8.8.8.8.8.8.8.8.8.8.8.8.8.8.8.8.8.8.8.9 9 9 r b Z B I +.5.2.2.5.@.T F i w r e 0 9 8.8.8.8.8.8.8.8.8.8.9 9 8.8.8.8.8.8.8.8.",
"8.8.8.8.8.8.8.8.8.8.8.8.8.8.8.8.8.8.8.8.9 9 9 9 8 e v C B P O.5.2.2.2.1.&.] F x b k w 8 9 9 9 9 8.8.8.8.8.8.8.8.8.8.8.8.8.8.8.8.",
"8.8.8.8.8.8.8.8.8.8.8.8.8.8.8.8.8.8.8.8.9 9 9 0 w u b A K T @.5.2.2.2.2.5.&.R K S n u e r e 0 9 8.8.8.8.8.8.8.8.8.8.8.8.8.8.8.8.",
"8.8.8.8.8.8.8.8.8.8.8.8.8.8.8.8.8.8.8.8.9 9 8 w k n B L { &.1.2.2.2.2.2.2.1.&.{ K N b v b k w 8 9 9 8.8.8.8.8.8.8.8.8.8.8.8.8.8.",
"8.8.8.8.8.8.8.8.8.8.8.8.8.8.8.8.8.8.8.8.9 0 w u n Z B I +.5.2.2.2.2.2.2.2.2.5.&.T K A C Z n u w 0 9 8.8.8.8.8.8.8.8.8.8.8.8.8.8.",
"8.8.8.8.8.8.8.8.8.8.8.8.8.8.8.8.8.8.8.8.9 e k n V C B P O.5.2.2.2.2.2.2.2.2.2.1.&.{ K B C V n k w 8 9 9 8.8.8.8.8.8.8.8.8.8.8.8.",
"8.8.8.8.8.8.8.8.8.8.8.8.8.8.8.8.8.8.8.8.9 r b Z C A K T @.5.2.2.2.2.2.2.2.2.2.2.5.&.T K A C Z n u w 0 9 8.8.8.8.8.8.8.8.8.8.8.8.",
"8.8.8.8.8.8.8.8.8.8.8.8.9 9 8.8.8.8.9 9 8 e v C B K { &.1.2.2.2.2.2.2.2.2.2.2.2.2.1.&.{ K B C V n k e 9 9 9 8.8.9 9 8.8.8.8.8.8.",
"8.8.8.8.8.8.8.8.8.8.8.8.9 9 8.8.8.8.9 0 w u b A K T &.5.2.2.2.2.2.2.2.2.2.2.2.2.2.2.5.&.T K A C Z b r 9 9 9 8.8.9 9 8.8.8.8.8.8.",
"8.8.8.8.8.8.8.8.8.8.8.8.8.8.8.8.9 9 8 w k n B L { &.3.6.2.2.2.2.6.6.2.2.6.6.2.2.6.6.2.1.-.| K B C v e 8 9 9 8.8.8.8.8.8.8.8.8.8.",
"8.8.8.8.8.8.8.8.8.8.8.8.8.8.8.8.9 0 w u n Z B I $.,.` ` :.2.2.:.` ` :.:.` ` :.:.` ` :.:. .! Y K A b u w 0 9 8.8.8.8.8.8.8.8.8.8.",
"8.8.8.8.8.8.8.8.8.8.8.8.8.8.8.8.9 e k n V C B P %. .5 5 ..7.6.` 5 5 ....5 5 ....5 5 ....5 3 ~ | L B n k e 9 9 9 8.8.8.8.8.8.8.8.",
"8.8.8.8.8.8.8.8.8.8.8.8.8.8.8.8.9 r b Z C A K T -.) , - W ..<.( > > _ _ > > _ _ > > _ _ > > ) *.I B Z b r 9 9 9 8.8.8.8.8.8.8.8.",
"8.8.8.8.8.8.8.8.8.8.8.8.9 9 9 9 9 r v C B L { &.3.( 2 # : 6 o.` < < ' ' < < ' ' < < ' ' < , ) %.P B C v e 8 9 9 9 9 8.8.8.8.8.8.",
"8.8.8.8.8.8.8.8.8.8.8.8.9 9 9 9 9 r v C B I +.5.6.( 2 .   : Q Q : : Q Q : : Q Q : : Q Q ; < ) -.T K A b u w 0 9 9 9 8.8.8.8.8.8.",
"8.8.8.8.8.8.8.8.8.8.8.8.8.8.9 9 9 r v C B I O.5.6.( 2 . O $ , , $ $ , , $ $ , , $ $ , , # 2 ( 3.&.{ L B n k e 9 9 9 8.8.8.8.8.8.",
"8.8.8.8.8.8.8.8.8.8.8.8.8.8.9 9 9 r v C B I O.5.6.( 2 . O O . . O O . . O O . . O O . . . 2 ( 6.5.+.I B Z b r 9 9 9 8.8.8.8.8.8.",
"8.8.8.8.8.8.8.8.8.8.8.8.8.8.9 9 9 r v C B I O.5.6.( 2 . O O O O O O o o O O O O O O o o . 2 ( 6.5.O.I B C v r 9 9 9 8.8.8.8.8.8.",
"8.8.8.8.8.8.8.8.8.8.8.8.8.8.9 9 9 r v C B I O.5.6.( 2 . O O O O O @ * * @ O O O O @ * * + 2 ( 6.5.O.I B C v r 9 9 9 8.8.8.8.8.8.",
"8.8.8.8.8.8.8.8.8.8.8.8.8.8.8.8.9 r b Z B I +.5.6.( 2 . O O O O o * d d * o O O o * d d % 1 ( 6.5.O.I B Z b r 9 9 9 8.8.8.8.8.8.",
"8.8.8.8.8.8.8.8.8.8.8.8.8.8.8.8.9 e k n B L { &.3.( 2 . O O O O X = g g = X O O X = g g & 1 ( 6.5.O.I B n k e 9 9 9 8.8.8.8.8.8.",
"8.8.8.8.8.8.8.8.8.8.8.8.8.8.8.8.9 0 w u b A K T -.) <   O O O O X = g g = X O O X = g g & 1 ( 6.5.+.U v u w 0 9 8.8.8.8.8.8.8.8.",
"8.8.8.8.8.8.8.8.8.8.8.8.8.8.8.8.9 9 8 e v C B P %. .6 : $ O O O o * d d * o O O o * d d % 1 ( 3.&.{ P v e 8 9 9 8.8.8.8.8.8.8.8.",
"8.8.8.8.8.8.8.8.8.8.8.8.8.8.8.8.8.8.9 r b Z B I #.>...W , . O O O @ * * @ O O O O @ * * + 2 ) -.T K S b r 9 8.8.8.8.8.8.8.8.8.8.",
"8.8.8.8.8.8.8.8.8.8.8.8.8.8.8.8.8.8.9 e k n B I O.5.7._ 2 . O O O O o o O O O O O O o o . 2 ) %.P N b z r 9 8.8.8.8.8.8.8.8.8.8.",
"8.8.8.8.8.8.8.8.8.8.8.8.8.8.8.8.8.8.9 0 w u v U +.5.6.( <   O O O O O O O O o o O O O O   < ) %.U v u e 8.8.8.8.8.8.8.8.8.8.8.8.",
"8.8.8.8.8.8.8.8.8.8.8.8.8.8.8.8.8.8.9 9 8 e v P { &.3.` 6 : $ O O O O O O @ * * @ O O $ : 6  .%.U v e 8 8.8.8.8.8.8.8.8.8.8.8.8.",
"8.8.8.8.8.8.8.8.8.8.8.8.8.8.8.8.8.8.8.8.9 r b S K T &.,.X.W :   O O O O o * f f * o . , W ..,.$.U v r 9 8.8.8.8.8.8.8.8.8.8.8.8.",
"8.8.8.8.8.8.8.8.8.8.8.8.8.8.8.8.8.8.8.8.9 r z b N K { &.4.X.6 : $ O O O o * f f * o . 2 _ 4.&.{ P v r 9 8.8.8.8.8.8.8.8.8.8.8.8.",
"8.8.8.8.8.8.8.8.8.8.8.8.8.8.8.8.8.8.8.8.8.8.e u b S K T &.,.X.W :   . . . + % % + .   < ) ;.T K S b r 9 8.8.8.8.8.8.8.8.8.8.8.8.",
"8.8.8.8.8.8.8.8.8.8.8.8.8.8.8.8.8.8.8.8.8.8.8 e z b N K { &.4.X.6 < 2 2 2 2 1 1 2 2 < 4 ~ | K N b z r 9 8.8.8.8.8.8.8.8.8.8.8.8.",
"8.8.8.8.8.8.8.8.8.8.8.8.8.8.8.8.8.8.8.8.8.8.8.8.e u b S K T &.,. .) ) ) ) ) ) ) ) ) ) ~ Y K S b u e 8.8.8.8.8.8.8.8.8.8.8.8.8.8.",
"8.8.8.8.8.8.8.8.8.8.8.8.8.8.8.8.8.8.8.8.8.8.8.8.8 e z b N K { $.%.%.%.%.%.%.%.%.%.%.*.| K N b z e 8 8.8.8.8.8.8.8.8.8.8.8.8.8.8.",
"8.8.8.8.8.8.8.8.8.8.8.8.8.8.8.8.8.8.8.8.8.8.8.8.8.8.e u b S P U U U I I I I I I I I U P S b u e 8.8.8.8.8.8.8.8.8.8.8.8.8.8.8.8.",
"8.8.8.8.8.8.8.8.8.8.8.8.8.8.8.8.8.8.8.8.8.8.8.8.8.8.8 e z b v v v v B B B B B B B B v v b z e 8 8.8.8.8.8.8.8.8.8.8.8.8.8.8.8.8.",
"8.8.8.8.8.8.8.8.8.8.8.8.8.8.8.8.8.8.8.8.8.8.8.8.8.8.8.8.r r r r e u n Z C C C C Z n u e r r 8.8.8.8.8.8.8.8.8.8.8.8.8.8.8.8.8.8.",
"8.8.8.8.8.8.8.8.8.8.8.8.8.8.8.8.8.8.8.8.8.8.8.8.8.8.8.8.9 9 9 9 8 e z b v v v v b z e 8 9 9 8.8.8.8.8.8.8.8.8.8.8.8.8.8.8.8.8.8.",
"8.8.8.8.8.8.8.8.8.8.8.8.8.8.8.8.8.8.8.8.8.8.8.8.8.8.8.8.8.8.8.8.8.8.r r r r r r r r 8.8.8.8.8.8.8.8.8.8.8.8.8.8.8.8.8.8.8.8.8.8.",
"8.8.8.8.8.8.8.8.8.8.8.8.8.8.8.8.8.8.8.8.8.8.8.8.8.8.8.8.8.8.8.8.8.8.9 9 9 9 9 9 9 9 8.8.8.8.8.8.8.8.8.8.8.8.8.8.8.8.8.8.8.8.8.8.",
"8.8.8.8.8.8.8.8.8.8.8.8.8.8.8.8.8.8.8.8.8.8.8.8.8.8.8.8.8.8.8.8.8.8.8.8.8.8.8.8.8.8.8.8.8.8.8.8.8.8.8.8.8.8.8.8.8.8.8.8.8.8.8.8.",
"8.8.8.8.8.8.8.8.8.8.8.8.8.8.8.8.8.8.8.8.8.8.8.8.8.8.8.8.8.8.8.8.8.8.8.8.8.8.8.8.8.8.8.8.8.8.8.8.8.8.8.8.8.8.8.8.8.8.8.8.8.8.8.8.",
"8.8.8.8.8.8.8.8.8.8.8.8.8.8.8.8.8.8.8.8.8.8.8.8.8.8.8.8.8.8.8.8.8.8.8.8.8.8.8.8.8.8.8.8.8.8.8.8.8.8.8.8.8.8.8.8.8.8.8.8.8.8.8.8.",
"8.8.8.8.8.8.8.8.8.8.8.8.8.8.8.8.8.8.8.8.8.8.8.8.8.8.8.8.8.8.8.8.8.8.8.8.8.8.8.8.8.8.8.8.8.8.8.8.8.8.8.8.8.8.8.8.8.8.8.8.8.8.8.8."
};
