/* XPM */
static char *result[] = {
/* columns rows colors chars-per-pixel */
"64 64 117 2 ",
"   c #3B0001",
".  c #3C0101",
"X  c #3C0202",
"o  c #3D0202",
"O  c #3E0202",
"+  c #3F0302",
"@  c #3E0303",
"#  c #3F0403",
"$  c #4C0A03",
"%  c #4D0B04",
"&  c #4B130C",
"*  c #4C140D",
"=  c #4C150D",
"-  c #4C150E",
";  c #4D160E",
":  c #4D170E",
">  c #4D170F",
",  c #4E180F",
"<  c #5D2919",
"1  c #5E2A19",
"2  c #5D2A1A",
"3  c #5E2B1B",
"4  c #E02706",
"5  c #E02707",
"6  c #E02807",
"7  c #E02907",
"8  c #E22C07",
"9  c #E02A08",
"0  c #E22D08",
"q  c #E22E08",
"w  c #E22E09",
"e  c #E22F09",
"r  c #E2300A",
"t  c #E4340A",
"y  c #E5340A",
"u  c #E5350A",
"i  c #E23712",
"p  c #E23812",
"a  c #E23912",
"s  c #E23A13",
"d  c #E43E13",
"f  c #DA5D15",
"g  c #E44A1F",
"h  c #F56216",
"j  c #F56316",
"k  c #F66316",
"l  c #F66416",
"z  c #F86716",
"x  c #F86817",
"c  c #F86917",
"v  c #F86918",
"b  c #F86A18",
"n  c #F86B19",
"m  c #FA6D18",
"M  c #FA6E18",
"N  c #FA6E19",
"B  c #FA6F19",
"V  c #FA7019",
"C  c #FA701A",
"Z  c #FA711A",
"A  c #F77220",
"S  c #F97822",
"D  c #FA7922",
"F  c #FA7923",
"G  c #FA7A23",
"H  c #FA7A24",
"J  c #FA7B24",
"K  c #F7832C",
"L  c #F9852D",
"P  c #F9852E",
"I  c #D4C072",
"U  c #D5C173",
"Y  c #E6CB76",
"T  c #E6CC76",
"R  c #F1C673",
"E  c #F3CD75",
"W  c #F4CD75",
"Q  c #E4D37E",
"!  c #E4D47F",
"~  c #E5D47F",
"^  c #E5D57F",
"/  c #E6D67F",
"(  c #F6D377",
")  c #F6D477",
"_  c #F7D477",
"`  c #F3D77F",
"'  c #F3D87F",
"]  c #E5D680",
"[  c #E6D680",
"{  c #E6D780",
"}  c #E7D881",
"|  c #F3D980",
" . c #F5DE80",
".. c #F5DE81",
"X. c #F5DF81",
"o. c #F6DE80",
"O. c #F6DE81",
"+. c #F6DF81",
"@. c #F5DF82",
"#. c #F6DF82",
"$. c #F5E082",
"%. c #F6E082",
"&. c #F6E083",
"*. c #F3E78A",
"=. c #F5E78A",
"-. c #F3E88A",
";. c #F3E88B",
":. c #F4E88A",
">. c #F5E88A",
",. c #F5E98B",
"<. c #F6E98B",
"1. c #F7EA8B",
"2. c #F5EA8C",
"3. c #F5EB8C",
"4. c #F6EA8C",
"5. c #F7EB8C",
"6. c #000000",
/* pixels */
"6.6.6.6.6.6.6.6.6.6.6.6.6 6 6.6.6.6.6.6.6.6.6.6.6.6.6.6.6.6.6.6.6.6.6.6.6.6.6.6.6.6.6.6.6.6.6.6.6.6.6.6.6.6.6.6.6.6.6.6.6.6.6.6.",
"6.6.6.6.6.6.6.6.6.6.6.6.6 6 6.6.6.6.6.6.6.6.6.6.6.6.6.6.6.6.6.6.6.6.6.6.6.6.6.6.6.6.6.6.6.6.6.6.6.6.6.6.6.6.6.6.6.6.6.6.6.6.6.6.",
"6.6.6.6.6.6.6.6.6.6.6.6.6.6.6 6 6.6.6.6.6.6.6 6 6.6.6.6.6 6 6 6 6 6 6 6 6.6.6.6.6.6.6.6.6.6.6.6.6.6.6.6.6.6.6.6.6.6.6.6.6.6.6.6.",
"6.6.6.6.6.6.6.6.6.6.6.6.6.6.6 6 6.6.6.6.6.6.6 6 6.6.6.6.6 6 6 6 6 7 w e 6.6.6.6.6.6.6.6.6.6.6.6.6.6.6.6.6.6.6.6.6.6.6.6.6.6.6.6.",
"6.6.6.6.6.6.6.6.6.6.6 6 6 6 6 6 6 6 6 6 6.6.6.6.6.6.6.6.6.6.6 6 6 w k k w 5 6 6 6 6 6.6.6.6.6.6.6.6.6.6.6.6.6.6.6.6.6.6.6.6.6.6.",
"6.6.6.6.6.6.6.6.6.6.6 6 6 6 6 6 6 6 6 6 6.6.6.6.6.6.6.6.6.6.6 6 6 w k l t q 7 6 6 6 6.6.6.6.6.6.6.6.6.6.6.6.6.6.6.6.6.6.6.6.6.6.",
"6.6.6.6.6.6.6.6.6.6.6 6 6 6 6 6 6.6.6.6.6.6.6.6.6.6.6.6.6.6.6.6.6 7 q t k j q 5 6 6 6 6 6 6 6.6.6.6.6.6.6.6.6.6.6.6.6.6.6.6.6.6.",
"6.6.6.6.6.6.6.6.6.6.6 6 6 6 6 6 6.6.6.6.6.6.6.6.6.6.6.6.6.6.6.6.6 6 5 w c b u w e e e w 7 6 6.6.6.6.6.6.6.6.6.6.6.6.6.6.6.6.6.6.",
"6.6.6.6.6.6.6.6.6 6 6 6 6.6.6.6.6.6.6 6 6 6 6.6.6.6.6.6.6.6.6.6.6.6.6 e c B c x x x c h q 5 6 6 6.6.6.6.6.6.6.6.6.6.6.6.6.6.6.6.",
"6.6.6.6.6.6.6.6.6 6 6 6 6.6.6.6.6.6.6 6 6 6 6.6.6.6.6.6.6.6.6.6.6.6.6 w h v B B B B V v u q 7 6 6.6.6.6.6.6.6.6.6.6.6.6.6.6.6.6.",
"6.6.6.6.6.6.6.6.6.6.6.6.6.6.6.6.6.6.6.6.6.6.6.6.6.6.6.6.6.6.6.6.6.6.6 7 q u v V B B M M v h q 5 6 6 6.6.6.6.6.6.6.6.6.6.6.6.6.6.",
"6.6.6.6.6.6.6.6.6.6.6.6.6.6.6.6.6.6.6.6.6.6.6.6.6.6.6.6.6.6.6.6.6.6.6 6 5 q h v N C F F Z v u q 7 6 6.6.6.6.6.6.6.6.6.6.6.6.6.6.",
"6.6.6.6.6.6.6.6.6.6.6.6.6.6.6.6.6.6.6.6.6.6.6.6.6.6.6 6 6.6.6.6.6.6.6.6.6 7 0 y x G ) ) D m b j w 6 6.6.6.6.6.6.6 6 6.6.6.6.6.6.",
"6.6.6.6.6.6.6.6.6.6.6.6.6.6.6.6.6.6.6.6.6.6.6.6.6.6.6 6 6.6.6.6.6.6.6.6.6 7 0 y x J X.$.L S n j w 6 6.6.6.6.6.6.6 6 6.6.6.6.6.6.",
"6.6.6.6.6.6.6.6.6.6.6.6.6.6.6.6.6.6.6.6.6.6.6.6.6.6.6.6.6.6.6.6.6.6.6.6.6 w h v M H  .,.%.W d 8 7 6 6 6 6.6.6.6.6.6.6.6.6.6.6.6.",
"6.6.6.6.6.6.6.6.6.6.6.6.6.6.6.6.6.6.6.6.6.6.6.6.6.6.6.6.6.6.6.6.6.6.6.6.6 e c V M H  .2.2.| g i 9 6 6 6 6.6.6.6.6.6.6.6.6.6.6.6.",
"6.6.6.6.6.6.6.6.6.6.6.6.6.6.6.6.6.6.6.6.6.6.6.6.6.6.6.6.6.6.6.6.6.6.6 6 5 w x B M G  .2.,.=.| R p 4 6 6 6.6.6.6.6.6.6.6.6.6.6.6.",
"6.6.6.6.6.6.6.6.6.6.6.6.6.6.6.6.6.6.6.6.6.6.6.6.6.6.6.6.6.6.6.6.6.6.6 7 q u c C D L X.2.,.,.3.' s 4 6 6 6.6.6.6.6.6.6.6.6.6.6.6.",
"6.6.6.6.6.6.6.6.6.6.6.6.6.6.6.6.6.6.6.6.6.6.6.6.6.6.6.6.6.6.6 6 6 6 5 q h v m D ( @.>.,.,.,.3.` s 4 6 6 6.6.6.6.6.6.6.6.6.6.6.6.",
"6.6.6.6.6.6.6.6.6.6.6.6.6.6.6.6.6.6.6.6.6.6.6.6.6.6.6.6.6.6.6 7 w e w u v Z D L @.2.,.,.,.>.%.E a 4 6 6 6.6.6.6.6.6.6.6.6.6.6.6.",
"6.6.6.6.6.6.6.6.6.6.6.6.6.6.6.6.6.6.6.6.6.6.6.6.6.6.6 6 6 6 5 q h c x x m D ( @.>.,.,.,.2.@.P A r 6 6 6 6.6.6.6.6.6.6.6.6.6.6.6.",
"6.6.6.6.6.6.6.6.6.6.6.6.6.6.6.6.6.6.6.6.6.6.6.6.6.6.e e e e w u v Z G J G L @.2.,.,.,.>.@.( D z e 6 6 6 6.6.6.6.6.6.6.6.6.6.6.6.",
"6.6.6.6.6.6.6.6.6.6.6.6.6.6.6.6.6.6.6.6.6.6.6 6 5 w k c x x x c m D ( .. .X.>.,.,.,.2.@.L D C x e 6 6 6 6.6.6.6.6.6.6.6.6.6.6.6.",
"6.6.6.6.6.6.6.6.6.6.6.6.6.6.6.6.6.6.6.6.6.6.6 7 q u v V B B B C D L @.2.2.2.,.,.,.>.@.( D M B x e 6 6 6 6.6.6.6.6.6.6.6.6.6.6.6.",
"6.6.6.6.6.6.6.6.6.6.6.6.6.6.6.6.6.6.6.6.6 6 5 q h v N B B B M D ( @.>.,.,.,.,.,.2.X.L D C B B x e 6 6 6 6 6 6.6.6.6.6.6.6.6.6.6.",
"6.6.6.6.6.6.6.6.6.6.6.6.6.6.6.6.6.6.6.6.6 7 q u v V B B B C D L @.2.,.,.,.,.,.,.2. .G M B B B x e 6 6 6 6 6 6.6.6.6.6.6.6.6.6.6.",
"6.6.6.6.6.6.6.6.6.6.6.6.6.6.6.6.6.6.6.6.6 w h v N B M M M D ( @.>.,.,.,.,.,.,.,.2. .G M B B B x w 5 6 6 6 6 6.6.6.6.6.6.6.6.6.6.",
"6.6.6.6.6.6.6.6.6.6.6.6.6.6.6.6.6.6.6.6.6 e c V B C F H G L @.2.,.,.,.,.,.,.,.,.2.X.L D C B B c u q 7 6 6 6 6.6.6.6.6.6.6.6.6.6.",
"6.6.6.6.6.6.6.6.6.6.6.6.6.6.6.6.6.6.6 6 5 w x B M D ( .. .X.>.,.,.,.,.,.,.,.,.,.,.>.@.( D M B N v h w 6 6 6 6.6.6.6.6.6.6.6.6.6.",
"6.6.6.6.6.6.6.6.6.6.6.6.6.6.6.6.6.6.6 7 q u c C D L @.2.2.2.,.,.,.,.,.,.,.,.,.,.,.,.2.@.L D C B V c e 6 6 6 6.6.6.6.6.6.6.6.6.6.",
"6.6.6.6.6.6.6.6.6.6.6.6.6.6.6.6.6 6 5 q h v M F ( @.<.4.,.,.,.,.4.4.,.,.4.4.,.,.4.4.,.>.%._ D M B x w 5 6 6 6 6 6.6.6.6.6.6.6.6.",
"6.6.6.6.6.6.6.6.6.6.6.6.6.6.6.6.6 7 q u v V M H O.;.^ ^ *.,.,.*.^ ^ *.*.^ ^ *.*.^ ^ *.*.] Y K D C c u q 7 6 6 6 6.6.6.6.6.6.6.6.",
"6.6.6.6.6.6.6.6.6.6.6.6.6.6.6.6.6 w h v N B M G +.] 2 2 [ 5.4.^ 2 2 [ [ 2 2 [ [ 2 2 [ [ 2 < T _ F M v h w 6 6 6 6.6.6.6.6.6.6.6.",
"6.6.6.6.6.6.6.6.6.6.6.6.6.6.6.6.6 e c V B C D L %.! ; & I [ :.Q - - ~ ~ - - ~ ~ - - ~ ~ - - ! #.H M V c e 6 6 6 6.6.6.6.6.6.6.6.",
"6.6.6.6.6.6.6.6.6.6.6.6.6.6.6 6 6 e x B M F ( @.<.Q , @ = 3 } ^ : : / / : : / / : : / / : ; ! +.G M B x w 5 6 6 6 6 6.6.6.6.6.6.",
"6.6.6.6.6.6.6.6.6.6.6.6.6.6.6 6 6 e x B M H ..2.4.Q , .   = U U = = U U = = U U = = U U * : ! %.L D C c u q 7 6 6 6 6.6.6.6.6.6.",
"6.6.6.6.6.6.6.6.6.6.6.6.6.6.6 6 6 e x B M H  .2.4.Q , . o # ; ; # # ; ; # # ; ; # # ; ; @ , Q <.@.( F M v h w 6 6 6 6.6.6.6.6.6.",
"6.6.6.6.6.6.6.6.6.6.6.6.6.6.6 6 6 e x B M H  .2.4.Q , . o o . . o o . . o o . . o o . . . , Q 4.2...H M V c e 6 6 6 6.6.6.6.6.6.",
"6.6.6.6.6.6.6.6.6.6.6.6.6.6.6 6 6 e x B M H  .2.4.Q , . o o o o o o o o o o o o o o o o . , Q 4.2. .H M B x e 6 6 6 6.6.6.6.6.6.",
"6.6.6.6.6.6.6.6.6.6.6.6.6.6.6 6 6 e x B M H  .2.4.Q , . o o o o o o o o o o o o o o o o . , Q 4.2. .H M B x e 6 6 6 6.6.6.6.6.6.",
"6.6.6.6.6.6.6.6.6.6.6.6.6.6.6.6.6 e c V M H ..2.4.Q , . o o o o o o X X o o o o o o X X . , Q 4.2. .H M V c e 6 6.6.6.6.6.6.6.6.",
"6.6.6.6.6.6.6.6.6.6.6.6.6.6.6.6.6 w h v M F ( @.<.Q , . o o o o o + % % + o o o o + % % O , Q 4.2. .H M v h w 6 6.6.6.6.6.6.6.6.",
"6.6.6.6.6.6.6.6.6.6.6.6.6.6.6.6.6 7 q u c C D L %.! :   o o o o X % f f % X o o X % f f $ > Q 4.2...J x u q 7 6 6.6.6.6.6.6.6.6.",
"6.6.6.6.6.6.6.6.6.6.6.6.6.6.6.6.6 6 5 w x B M G +.] 3 = # o o o X % f f % X o o X % f f $ > Q <.@.( G x w 5 6 6 6.6.6.6.6.6.6.6.",
"6.6.6.6.6.6.6.6.6.6.6.6.6.6.6.6.6.6.6 e c V M H o.-.[ I ; . o o o + % % + o o o o + % % O , ! %.L D Z c e 6 6.6.6.6.6.6.6.6.6.6.",
"6.6.6.6.6.6.6.6.6.6.6.6.6.6.6.6.6.6.6 w h v M H  .2.5.~ , . o o o o X X o o o o o o X X . , ! +.G m c k e 6 6.6.6.6.6.6.6.6.6.6.",
"6.6.6.6.6.6.6.6.6.6.6.6.6.6.6.6.6.6.6 7 q u x J ..2.4.Q :   o o o o o o o o X X o o o o   : ! +.J x u w 6.6.6.6.6.6.6.6.6.6.6.6.",
"6.6.6.6.6.6.6.6.6.6.6.6.6.6.6.6.6.6.6 6 5 w x G ( @.<.^ 3 = # o o o o o o + % % + o o # = 3 ] +.J x w 5 6.6.6.6.6.6.6.6.6.6.6.6.",
"6.6.6.6.6.6.6.6.6.6.6.6.6.6.6.6.6.6.6.6.6 e c Z D L @.;.{ I =   o o o o X % f f % X . ; I [ ;.O.J x e 6 6.6.6.6.6.6.6.6.6.6.6.6.",
"6.6.6.6.6.6.6.6.6.6.6.6.6.6.6.6.6.6.6.6.6 e k c m D ( @.1.{ 3 = # o o o X % f f % X . , ~ 1.@.( G x e 6 6.6.6.6.6.6.6.6.6.6.6.6.",
"6.6.6.6.6.6.6.6.6.6.6.6.6.6.6.6.6.6.6.6.6.6.w u c Z D L @.;.{ I =   . . . O $ $ O .   : ! &.L D Z c e 6 6.6.6.6.6.6.6.6.6.6.6.6.",
"6.6.6.6.6.6.6.6.6.6.6.6.6.6.6.6.6.6.6.6.6.6.5 w k c m D ( @.1.{ 3 : , , , , > > , , : 1 T _ D m c k e 6 6.6.6.6.6.6.6.6.6.6.6.6.",
"6.6.6.6.6.6.6.6.6.6.6.6.6.6.6.6.6.6.6.6.6.6.6.6.w u c Z D L @.;.] ! ! ! ! ! ! ! ! ! ! T K D Z c u w 6.6.6.6.6.6.6.6.6.6.6.6.6.6.",
"6.6.6.6.6.6.6.6.6.6.6.6.6.6.6.6.6.6.6.6.6.6.6.6.5 w k c m D ( O.+.+.+.+.+.+.+.+.+.+.#._ D m c k w 5 6.6.6.6.6.6.6.6.6.6.6.6.6.6.",
"6.6.6.6.6.6.6.6.6.6.6.6.6.6.6.6.6.6.6.6.6.6.6.6.6.6.w u c Z G J J J H H H H H H H H J G Z c u w 6.6.6.6.6.6.6.6.6.6.6.6.6.6.6.6.",
"6.6.6.6.6.6.6.6.6.6.6.6.6.6.6.6.6.6.6.6.6.6.6.6.6.6.5 w k c x x x x M M M M M M M M x x c k w 5 6.6.6.6.6.6.6.6.6.6.6.6.6.6.6.6.",
"6.6.6.6.6.6.6.6.6.6.6.6.6.6.6.6.6.6.6.6.6.6.6.6.6.6.6.6.e e e e w u v V B B B B V v u w e e 6.6.6.6.6.6.6.6.6.6.6.6.6.6.6.6.6.6.",
"6.6.6.6.6.6.6.6.6.6.6.6.6.6.6.6.6.6.6.6.6.6.6.6.6.6.6.6.6 6 6 6 5 w k c x x x x c k w 5 6 6 6.6.6.6.6.6.6.6.6.6.6.6.6.6.6.6.6.6.",
"6.6.6.6.6.6.6.6.6.6.6.6.6.6.6.6.6.6.6.6.6.6.6.6.6.6.6.6.6.6.6.6.6.6.e e e e e e e e 6.6.6.6.6.6.6.6.6.6.6.6.6.6.6.6.6.6.6.6.6.6.",
"6.6.6.6.6.6.6.6.6.6.6.6.6.6.6.6.6.6.6.6.6.6.6.6.6.6.6.6.6.6.6.6.6.6.6 6 6 6 6 6 6 6 6.6.6.6.6.6.6.6.6.6.6.6.6.6.6.6.6.6.6.6.6.6.",
"6.6.6.6.6.6.6.6.6.6.6.6.6.6.6.6.6.6.6.6.6.6.6.6.6.6.6.6.6.6.6.6.6.6.6.6.6.6.6.6.6.6.6.6.6.6.6.6.6.6.6.6.6.6.6.6.6.6.6.6.6.6.6.6.",
"6.6.6.6.6.6.6.6.6.6.6.6.6.6.6.6.6.6.6.6.6.6.6.6.6.6.6.6.6.6.6.6.6.6.6.6.6.6.6.6.6.6.6.6.6.6.6.6.6.6.6.6.6.6.6.6.6.6.6.6.6.6.6.6.",
"6.6.6.6.6.6.6.6.6.6.6.6.6.6.6.6.6.6.6.6.6.6.6.6.6.6.6.6.6.6.6.6.6.6.6.6.6.6.6.6.6.6.6.6.6.6.6.6.6.6.6.6.6.6.6.6.6.6.6.6.6.6.6.6.",
"6.6.6.6.6.6.6.6.6.6.6.6.6.6.6.6.6.6.6.6.6.6.6.6.6.6.6.6.6.6.6.6.6.6.6.6.6.6.6.6.6.6.6.6.6.6.6.6.6.6.6.6.6.6.6.6.6.6.6.6.6.6.6.6."
};
