/* XPM */
static char *result[] = {
/* columns rows colors chars-per-pixel */
"64 64 99 2 ",
"   c #3B0001",
".  c #3C0101",
"X  c #3C0102",
"o  c #3C0202",
"O  c #3D0202",
"+  c #3E0202",
"@  c #3F0302",
"#  c #3E0303",
"$  c #3F0403",
"%  c #4C0A03",
"&  c #4E0B03",
"*  c #4D0B04",
"=  c #4F0C04",
"-  c #4B130C",
";  c #4C140D",
":  c #4C150D",
">  c #4C150E",
",  c #4D160E",
"<  c #4D170E",
"1  c #4D170F",
"2  c #4E180F",
"3  c #5D2919",
"4  c #5E2A19",
"5  c #5D2A1A",
"6  c #5E2B1B",
"7  c #E02707",
"8  c #E02807",
"9  c #E02907",
"0  c #E22D08",
"q  c #E22E08",
"w  c #E22E09",
"e  c #E22F09",
"r  c #E4340A",
"t  c #E5340A",
"y  c #E5350A",
"u  c #D95C15",
"i  c #DA5D15",
"p  c #EA6617",
"a  c #F56216",
"s  c #F56316",
"d  c #F66316",
"f  c #F86817",
"g  c #F86917",
"h  c #F86918",
"j  c #FA6D18",
"k  c #FA6E18",
"l  c #FA6E19",
"z  c #FA6F19",
"x  c #FA7019",
"c  c #FA701A",
"v  c #FA711A",
"b  c #FA7822",
"n  c #FA7922",
"m  c #FA7923",
"M  c #FA7A23",
"N  c #FA7A24",
"B  c #FA7B24",
"V  c #F7832C",
"C  c #F9842D",
"Z  c #F9852D",
"A  c #D4C072",
"S  c #D5C173",
"D  c #E6CB76",
"F  c #E6CC76",
"G  c #E4D37E",
"H  c #E4D47F",
"J  c #E5D47F",
"K  c #E5D57F",
"L  c #E6D67F",
"P  c #F6D377",
"I  c #F6D477",
"U  c #F7D477",
"Y  c #E5D680",
"T  c #E6D680",
"R  c #E6D780",
"E  c #E7D881",
"W  c #F5DE80",
"Q  c #F5DE81",
"!  c #F5DF81",
"~  c #F6DE80",
"^  c #F6DE81",
"/  c #F6DF81",
"(  c #F5DF82",
")  c #F6DF82",
"_  c #F5E082",
"`  c #F6E082",
"'  c #F6E083",
"]  c #F3E78A",
"[  c #F3E88A",
"{  c #F3E88B",
"}  c #F4E88A",
"|  c #F5E88A",
" . c #F5E98B",
".. c #F6E98B",
"X. c #F7EA8B",
"o. c #F5EA8C",
"O. c #F6EA8C",
"+. c #F7EB8C",
"@. c #000000",
/* pixels */
"@.@.@.@.@.@.@.@.@.@.@.@.@.@.@.@.@.@.@.@.@.@.@.@.@.@.@.@.@.@.@.@.@.@.@.@.@.@.@.@.@.@.@.@.@.@.@.@.@.@.@.@.@.@.@.@.@.@.@.@.@.@.@.@.",
"@.@.@.@.@.@.@.@.@.@.@.@.@.@.@.@.@.@.@.@.@.@.@.@.@.@.@.@.@.@.@.@.@.@.@.@.@.@.@.@.@.@.@.@.@.@.@.@.@.@.@.@.@.@.@.@.@.@.@.@.@.@.@.@.",
"@.@.@.@.@.@.@.@.@.@.@.@.@.@.@.@.@.@.@.@.@.@.@.@.@.@.@.@.@.@.@.@.8 8 8 8 8 8 @.@.@.@.@.@.@.@.@.@.@.@.@.@.@.@.@.@.@.@.@.@.@.@.@.@.",
"@.@.@.@.@.@.@.@.@.@.@.@.@.@.@.@.@.@.@.@.@.@.@.@.@.@.@.@.@.@.@.@.8 8 8 8 8 8 @.@.@.@.@.@.@.@.@.@.@.@.@.@.@.@.@.@.@.@.@.@.@.@.@.@.",
"@.@.@.@.@.@.@.@.@.@.@.@.@.@.@.@.@.@.@.@.@.@.@.@.@.@.8 8 8 8 8 8 8 8 8 8 8 8 8 8 8 8 8 8 @.@.@.@.@.@.@.@.@.@.@.@.@.@.@.@.@.@.@.@.",
"@.@.@.@.@.@.@.@.@.@.@.@.@.@.@.@.@.@.@.@.@.@.@.@.@.@.8 8 8 9 w e e e e e e e e w 9 8 8 8 @.@.@.@.@.@.@.@.@.@.@.@.@.@.@.@.@.@.@.@.",
"@.@.@.@.@.@.@.@.@.@.@.@.@.@.@.@.@.@.@.@.@.@.8 8 8 8 8 8 7 q a g g g f f f f g a q 7 8 8 8 8 @.@.@.@.@.@.@.@.@.@.@.@.@.@.@.@.@.@.",
"@.@.@.@.@.@.@.@.@.@.@.@.@.@.@.@.@.@.@.@.@.@.8 9 w e e e w y h z h h z z z z x h y q 9 8 8 8 @.@.@.@.@.@.@.@.@.@.@.@.@.@.@.@.@.@.",
"@.@.@.@.8 8 @.@.@.@.@.@.@.@.@.@.@.@.@.@.8 8 7 q s g g g g h z h t t h x z z z l h a q 7 8 8 8 8 @.@.@.@.@.@.@.@.@.@.@.@.@.@.@.@.",
"@.@.@.@.8 8 @.@.@.@.@.@.@.@.@.@.@.@.@.@.8 9 q r d g g g g g g a 0 0 a h l z z z x h y q 9 8 8 8 @.@.@.@.@.@.@.@.@.@.@.@.@.@.@.@.",
"@.@.@.@.@.@.@.@.@.@.@.@.@.@.@.@.@.@.@.@.8 w s d r w e e e e e w 9 9 q y g z k k k k h a q 7 8 8 @.@.@.@.@.@.8 8 @.@.@.@.@.@.@.@.",
"@.@.@.@.@.@.@.@.@.@.@.@.@.@.@.@.@.@.@.@.8 e g g w 7 8 8 8 8 8 8 8 8 7 w f c m N N m v h y q 9 8 @.@.@.@.@.@.8 8 @.@.@.@.@.@.@.@.",
"@.@.@.@.@.@.@.@.@.@.@.@.@.@.@.@.@.@.@.@.8 e g g e 8 @.@.@.@.@.@.@.@.8 e f M I ! Q P n j h a w 8 @.@.@.@.@.@.@.@.@.@.@.@.@.@.@.@.",
"@.@.@.@.@.@.@.@.@.@.@.@.@.@.@.@.@.@.@.@.8 w s s w 8 @.@.@.@.@.@.@.@.8 e f M I _  .( Z n v g e 8 @.@.@.@.@.@.@.@.@.@.@.@.@.@.@.@.",
"@.@.@.@.@.@.@.@.@.@.@.@.@.@.@.@.@.@.8 8 8 8 w w 9 8 @.@.@.@.@.@.@.@.8 e g v n Z (  .( P M f w 7 8 8 @.@.@.@.@.@.@.@.@.@.@.@.@.@.",
"@.@.@.@.@.@.@.@.@.@.@.@.@.@.@.@.@.@.8 9 w w 8 8 8 8 @.@.@.@.@.@.@.@.8 w a h j n P (  .Q B f y q 9 8 @.@.@.@.@.@.@.@.@.@.@.@.@.@.",
"@.@.@.@.@.@.@.@.8 8 @.@.@.@.@.@.@.@.8 w d d w 8 @.@.@.@.@.@.@.@.@.@.8 9 0 t g c b C ( Q M j h a w 8 @.@.@.@.@.@.@.@.@.@.@.@.@.@.",
"@.@.@.@.@.@.@.@.8 8 @.@.@.@.@.@.@.@.8 w d d e 8 @.@.@.@.@.@.@.@.@.@.8 9 0 t g c b C ( ( Z n v g e 8 @.@.@.@.@.@.@.@.@.@.@.@.@.@.",
"@.@.@.@.@.@.@.@.@.@.@.@.@.@.@.@.8 8 8 9 w e @.@.@.@.@.@.@.@.8 8 8 8 7 q a h j n P ( | | ( P M f e 8 @.@.@.@.@.@.@.@.@.@.@.@.@.@.",
"@.@.@.@.@.@.@.@.@.@.@.@.@.@.@.@.8 8 8 8 8 8 @.@.@.@.@.@.@.@.8 9 w e w y h v n Z ( o. . .o.Q B f e 8 @.@.@.@.@.@.@.@.@.@.@.@.@.@.",
"@.@.@.@.@.@.@.@.@.@.@.@.@.@.8 8 8 8 @.@.@.@.@.@.@.@.8 8 8 8 7 q a g f f j n P ( |  . . .o.Q B f e 8 8 8 @.@.@.@.@.@.@.@.@.@.@.@.",
"@.@.@.@.@.@.@.@.@.@.@.@.@.@.8 8 8 8 @.@.@.@.@.@.@.@.e e e e w y h v M B M Z ( o. . . .| ( P M f e 8 8 8 @.@.@.@.@.@.@.@.@.@.@.@.",
"@.@.@.@.@.@.@.@.@.@.@.@.@.@.@.@.@.@.@.@.@.@.8 8 7 w d g f f f g j n P Q W ! |  . . .o.( Z n c f e 8 8 8 @.@.@.@.@.@.@.@.@.@.@.@.",
"@.@.@.@.@.@.@.@.@.@.@.@.@.@.@.@.@.@.@.@.@.@.8 9 q y h x z z z c n Z ( o.o.o. . . .| ( P n k z f e 8 8 8 @.@.@.@.@.@.@.@.@.@.@.@.",
"@.@.@.@.@.@.@.@.@.@.8 8 @.@.@.@.@.@.@.@.8 8 7 q a h l z z z k n P ( |  . . . . .o.! Z n c z z f e 8 8 8 8 8 @.@.@.@.@.@.@.@.@.@.",
"@.@.@.@.@.@.@.@.@.@.8 8 @.@.@.@.@.@.@.@.8 9 q y h x z z z c n Z ( o. . . . . . .o.W M k z z z f e 8 8 8 8 8 @.@.@.@.@.@.@.@.@.@.",
"@.@.@.@.@.@.@.@.8 8 @.@.@.@.@.@.@.@.@.@.8 w a h l z k k k n P ( |  . . . . . . .o.W M k z z z f w 7 8 8 8 8 @.@.@.@.@.@.@.@.@.@.",
"@.@.@.@.@.@.@.@.8 8 @.@.@.@.@.@.@.@.@.@.8 e g x z c m N M Z ( o. . . . . . . . .o.! Z n c z z g y q 9 8 8 8 @.@.@.@.@.@.@.@.@.@.",
"@.@.@.@.@.@.@.@.@.@.@.@.@.@.@.@.@.@.8 8 7 w f z k n P Q W ! |  . . . . . . . . . .| ( P n k z l h a w 8 8 8 @.@.@.@.@.@.@.@.@.@.",
"@.@.@.@.@.@.@.@.@.@.@.@.@.@.@.@.@.@.8 9 q y g c n Z ( o.o.o. . . . . . . . . . . . .o.( Z n c z x g e 8 8 8 @.@.@.@.@.@.@.@.@.@.",
"@.@.@.@.@.@.@.@.@.@.@.@.@.@.@.@.8 8 7 q a h k m P ( ..O. . . . .O.O. . .O.O. . .O.O. .| ` U n k z f w 7 8 8 8 8 @.@.@.@.@.@.@.@.",
"@.@.@.@.@.@.@.@.@.@.@.@.@.@.@.@.8 9 q y h x k N ^ { K K ]  . .] K K ] ] K K ] ] K K ] ] Y D V n c g y q 9 8 8 8 @.@.@.@.@.@.@.@.",
"@.@.@.@.@.@.@.@.@.@.@.@.@.@.@.@.8 w a h l z k M / Y 5 5 T +.O.K 5 5 T T 5 5 T T 5 5 T T 5 3 F U m k h a w 8 8 8 @.@.@.@.@.@.@.@.",
"@.@.@.@.@.@.@.@.@.@.@.@.@.@.@.@.8 e g x z c n Z ` H , - A T } G > > J J > > J J > > J J > > H ) N k x g e 8 8 8 @.@.@.@.@.@.@.@.",
"@.@.@.@.@.@.@.@.@.@.@.@.@.@.8 8 8 e f z k m P ( ..G 2 # : 6 E K < < L L < < L L < < L L < , H / M k z f w 7 8 8 8 8 @.@.@.@.@.@.",
"@.@.@.@.@.@.@.@.@.@.@.@.@.@.8 8 8 e f z k N Q o.O.G 2 .   : S S : : S S : : S S : : S S ; < H ` Z n c g y q 9 8 8 8 @.@.@.@.@.@.",
"@.@.@.@.@.@.@.@.@.@.@.@.@.@.8 8 8 e f z k N W o.O.G 2 . O $ , , $ $ , , $ $ , , $ $ , , # 2 G ..( P m k h a w 8 8 8 @.@.@.@.@.@.",
"@.@.@.@.@.@.@.@.@.@.@.@.@.@.8 8 8 e f z k N W o.O.G 2 . O O . . O O . . O O . . O O . . . 2 G O.o.Q N k x g e 8 8 8 @.@.@.@.@.@.",
"@.@.@.@.@.@.@.@.@.@.@.@.@.@.8 8 8 e f z k N W o.O.G 2 . O O O O O O o o O O O O O O o o . 2 G O.o.W N k z f e 8 8 8 @.@.@.@.@.@.",
"@.@.@.@.@.@.@.@.@.@.@.@.@.@.8 8 8 e f z k N W o.O.G 2 . O O O O O @ * * @ O O O O @ * * + 2 G O.o.W N k z f e 8 8 8 @.@.@.@.@.@.",
"@.@.@.@.@.@.@.@.@.@.@.@.@.@.@.@.8 e g x k N Q o.O.G 2 . O O O O o * u u * o O O o * u u % 1 G O.o.W N k x g e 8 @.@.@.@.@.@.@.@.",
"@.@.@.@.@.@.@.@.@.@.@.@.@.@.@.@.8 w a h k m P ( ..G 2 . O O O O X = p p = X O O X = p p & 1 G O.o.W N k h a w 8 @.@.@.@.@.@.@.@.",
"@.@.@.@.@.@.@.@.@.@.@.@.@.@.@.@.8 9 q y g c n Z ` H <   O O O O X = p p = X O O X = p p & 1 G O.o.Q B f y q 9 8 @.@.@.@.@.@.@.@.",
"@.@.@.@.@.@.@.@.@.@.@.@.@.@.@.@.8 8 7 w f z k M / Y 6 : $ O O O o * u u * o O O o * u u % 1 G ..( P M f w 7 8 8 @.@.@.@.@.@.@.@.",
"@.@.@.@.@.@.@.@.@.@.@.@.@.@.@.@.@.@.8 e g x k N ~ [ T A , . O O O @ * * @ O O O O @ * * + 2 H ` Z n v g e 8 @.@.@.@.@.@.@.@.@.@.",
"@.@.@.@.@.@.@.@.@.@.@.@.@.@.@.@.@.@.8 w a h k N W o.+.J 2 . O O O O o o O O O O O O o o . 2 H / M j g d e 8 @.@.@.@.@.@.@.@.@.@.",
"@.@.@.@.@.@.@.@.@.@.@.@.@.@.@.@.@.@.8 9 q y f B Q o.O.G <   O O O O O O O O o o O O O O   < H / B f y w @.@.@.@.@.@.@.@.@.@.@.@.",
"@.@.@.@.@.@.@.@.@.@.@.@.@.@.@.@.@.@.8 8 7 w f M P ( ..K 6 : $ O O O O O O @ * * @ O O $ : 6 Y / B f w 7 @.@.@.@.@.@.@.@.@.@.@.@.",
"@.@.@.@.@.@.@.@.@.@.@.@.@.@.@.@.@.@.@.@.8 e g v n Z ( { R A :   O O O O o * i i * o . , A T { ^ B f e 8 @.@.@.@.@.@.@.@.@.@.@.@.",
"@.@.@.@.@.@.@.@.@.@.@.@.@.@.@.@.@.@.@.@.8 e d g j n P ( X.R 6 : $ O O O o * i i * o . 2 J X.( P M f e 8 @.@.@.@.@.@.@.@.@.@.@.@.",
"@.@.@.@.@.@.@.@.@.@.@.@.@.@.@.@.@.@.@.@.@.@.w y g v n Z ( { R A :   . . . + % % + .   < H ' Z n v g e 8 @.@.@.@.@.@.@.@.@.@.@.@.",
"@.@.@.@.@.@.@.@.@.@.@.@.@.@.@.@.@.@.@.@.@.@.7 w d g j n P ( X.R 6 < 2 2 2 2 1 1 2 2 < 4 F U n j g d e 8 @.@.@.@.@.@.@.@.@.@.@.@.",
"@.@.@.@.@.@.@.@.@.@.@.@.@.@.@.@.@.@.@.@.@.@.@.@.w y g v n Z ( { Y H H H H H H H H H H F V n v g y w @.@.@.@.@.@.@.@.@.@.@.@.@.@.",
"@.@.@.@.@.@.@.@.@.@.@.@.@.@.@.@.@.@.@.@.@.@.@.@.7 w d g j n P ^ / / / / / / / / / / ) U n j g d w 7 @.@.@.@.@.@.@.@.@.@.@.@.@.@.",
"@.@.@.@.@.@.@.@.@.@.@.@.@.@.@.@.@.@.@.@.@.@.@.@.@.@.w y g v M B B B N N N N N N N N B M v g y w @.@.@.@.@.@.@.@.@.@.@.@.@.@.@.@.",
"@.@.@.@.@.@.@.@.@.@.@.@.@.@.@.@.@.@.@.@.@.@.@.@.@.@.7 w d g f f f f k k k k k k k k f f g d w 7 @.@.@.@.@.@.@.@.@.@.@.@.@.@.@.@.",
"@.@.@.@.@.@.@.@.@.@.@.@.@.@.@.@.@.@.@.@.@.@.@.@.@.@.@.@.e e e e w y h x z z z z x h y w e e @.@.@.@.@.@.@.@.@.@.@.@.@.@.@.@.@.@.",
"@.@.@.@.@.@.@.@.@.@.@.@.@.@.@.@.@.@.@.@.@.@.@.@.@.@.@.@.8 8 8 8 7 w d g f f f f g d w 7 8 8 @.@.@.@.@.@.@.@.@.@.@.@.@.@.@.@.@.@.",
"@.@.@.@.@.@.@.@.@.@.@.@.@.@.@.@.@.@.@.@.@.@.@.@.@.@.@.@.@.@.@.@.@.@.e e e e e e e e @.@.@.@.@.@.@.@.@.@.@.@.@.@.@.@.@.@.@.@.@.@.",
"@.@.@.@.@.@.@.@.@.@.@.@.@.@.@.@.@.@.@.@.@.@.@.@.@.@.@.@.@.@.@.@.@.@.8 8 8 8 8 8 8 8 @.@.@.@.@.@.@.@.@.@.@.@.@.@.@.@.@.@.@.@.@.@.",
"@.@.@.@.@.@.@.@.@.@.@.@.@.@.@.@.@.@.@.@.@.@.@.@.@.@.@.@.@.@.@.@.@.@.@.@.@.@.@.@.@.@.@.@.@.@.@.@.@.@.@.@.@.@.@.@.@.@.@.@.@.@.@.@.",
"@.@.@.@.@.@.@.@.@.@.@.@.@.@.@.@.@.@.@.@.@.@.@.@.@.@.@.@.@.@.@.@.@.@.@.@.@.@.@.@.@.@.@.@.@.@.@.@.@.@.@.@.@.@.@.@.@.@.@.@.@.@.@.@.",
"@.@.@.@.@.@.@.@.@.@.@.@.@.@.@.@.@.@.@.@.@.@.@.@.@.@.@.@.@.@.@.@.@.@.@.@.@.@.@.@.@.@.@.@.@.@.@.@.@.@.@.@.@.@.@.@.@.@.@.@.@.@.@.@.",
"@.@.@.@.@.@.@.@.@.@.@.@.@.@.@.@.@.@.@.@.@.@.@.@.@.@.@.@.@.@.@.@.@.@.@.@.@.@.@.@.@.@.@.@.@.@.@.@.@.@.@.@.@.@.@.@.@.@.@.@.@.@.@.@."
};
