/* XPM */
static char *_a2151466454468a80ed842452f9013dpcLPYmmAT0Vpsl3N[] = {
/* columns rows colors chars-per-pixel */
"64 64 168 2 ",
"   c None",
".  c #121919",
"X  c #1D1D1D",
"o  c #16211E",
"O  c #1A221F",
"+  c #2E211D",
"@  c #30221E",
"#  c #1F1F20",
"$  c #231D21",
"%  c #2C1E23",
"&  c #331E26",
"*  c #1E2121",
"=  c #222222",
"-  c #2B2325",
";  c #2C2C2C",
":  c #232728",
">  c #312326",
",  c #382725",
"<  c #3C2925",
"1  c #332329",
"2  c #3C232B",
"3  c #2D3232",
"4  c #353939",
"5  c #3C3D3C",
"6  c #303130",
"7  c #5B1E33",
"8  c #601D34",
"9  c #472B27",
"0  c #4D2C26",
"q  c #43252D",
"w  c #4A252F",
"e  c #4C2C28",
"r  c #452626",
"t  c #512C26",
"y  c #4C2431",
"u  c #442531",
"i  c #522533",
"p  c #5C2535",
"a  c #5E2439",
"s  c #5E2B30",
"d  c #62272E",
"f  c #642B2D",
"g  c #663228",
"h  c #6C312E",
"j  c #653227",
"k  c #713227",
"l  c #72332A",
"z  c #7A332F",
"x  c #7D392B",
"c  c #692532",
"v  c #632B33",
"b  c #64253A",
"n  c #6B253D",
"m  c #6D2B36",
"M  c #73273F",
"N  c #7B2D3A",
"B  c #752F35",
"V  c #603F38",
"C  c #3D403F",
"Z  c #7D2743",
"A  c #743349",
"S  c #3E4443",
"D  c #434442",
"F  c #4D4647",
"G  c #5C4D4F",
"H  c #4D514F",
"J  c #51504E",
"K  c #5F4E54",
"L  c #575654",
"P  c #555856",
"I  c #63514C",
"U  c #6C564F",
"Y  c #635155",
"T  c #6E5852",
"R  c #685551",
"E  c #705952",
"W  c #716F6B",
"Q  c #72706C",
"!  c #843A2D",
"~  c #883B2E",
"^  c #842C3F",
"/  c #8B2D3E",
"(  c #93313F",
")  c #963E30",
"_  c #A53D35",
"`  c #AD3C3B",
"'  c #B03C3A",
"]  c #96493B",
"[  c #984A3C",
"{  c #AD432F",
"}  c #AC4332",
"|  c #A64034",
" . c #B14433",
".. c #BD4634",
"X. c #BC433A",
"o. c #B14938",
"O. c #BA4537",
"+. c #C14735",
"@. c #C34834",
"#. c #C5413F",
"$. c #CC463C",
"%. c #CD483A",
"&. c #CA4A36",
"*. c #D84731",
"=. c #D44C37",
"-. c #DC4D36",
";. c #D1473D",
":. c #D44A3A",
">. c #DB4E38",
",. c #DE5037",
"<. c #DF5038",
"1. c #E24D36",
"2. c #E15137",
"3. c #E15038",
"4. c #822744",
"5. c #852844",
"6. c #8D2B44",
"7. c #8E2848",
"8. c #882746",
"9. c #922A47",
"0. c #9B2F43",
"q. c #93274B",
"w. c #9C274F",
"e. c #95284A",
"r. c #9E294E",
"t. c #9C3141",
"y. c #923040",
"u. c #9F2850",
"i. c #863951",
"p. c #A22A4E",
"a. c #A92F4B",
"s. c #AF3447",
"d. c #AC3149",
"f. c #AB3445",
"g. c #B33547",
"h. c #B13941",
"j. c #BD3C44",
"k. c #B1314B",
"l. c #A42950",
"z. c #A63F61",
"x. c #C33E42",
"c. c #B44356",
"v. c #C34040",
"b. c #CB4241",
"n. c #CD4A41",
"m. c #D46654",
"M. c #DF6758",
"N. c #D66956",
"B. c #E2695A",
"V. c #E47865",
"C. c #E77C68",
"Z. c #8C8985",
"A. c #8C8F8B",
"S. c #BE998E",
"D. c #B19196",
"F. c #B5ADA6",
"G. c #B4AFA9",
"H. c #B2B4AE",
"J. c #B9B0A9",
"K. c #C29C91",
"L. c #E29B9B",
"P. c #E1B6BE",
"I. c #C6C2BA",
"U. c #CACCC4",
"Y. c #D5D1C9",
"T. c #F8D3C6",
"R. c #FED8CA",
"E. c #FFFFFA",
/* pixels */
"                                                                                                                                ",
"                                                                                                                                ",
"                                                                                                                                ",
"                                                                                                                                ",
"                                                                                                                                ",
"                                                                                                                                ",
"                                                                    = =                                                         ",
"                                                        = =     = =                 = =                                         ",
"                                                        = =     = =                 = =                                         ",
"                                                    = = = =     = =     = *     = =                                             ",
"                                                  = = = * * o * * = * * * * # X * =                                             ",
"                                = = = = = = = = = = = = = - - - = = - = - - = - - =     = =                                     ",
"                                  = = = * * * = = * * , h ! ! z c b 7 d z ~ ! z c 7 2 O O * =                                   ",
"                                    = = > > = = - - = 0 } >.-.n.c.z.z.c.n.*.-.n.c.i.u = - - = =                                 ",
"                          = = = * * * 1 b a > 1 b b 1 0  .1.1.M.L.P.P.L.B.-.-.B.L.D.F > b a > O *                               ",
"                        = = * - 1 1 = q 6.0.s s 7.4.2 0 } -.-.V.T.E.E.T.V.*.*.V.R.U.P q / 0.p 1 = =                             ",
"                    = = = = * 2 n n 1 9 _ %...' a.Z 2 0 } -.-.V.T.E.E.T.V.*.*.C.R.U.L r _ x.0.n 2 = O =                         ",
"                  = = = = * * q 6.e.B x ..2.3.:.x./ 2 9  .1.1.m.S.H.H.S.m.1.1.N.K.A.S 0 { :.x.( q = = =                         ",
"                = = = = = = * q 4.d.X.&.:.>.>.>.>.| e 9 } <.>.o.V 4 4 V o.-.-.o.V 3 : 0  .1.>.` 0 * = =                         ",
"                = = = =   = = - y N f.x.x.v.:.<.,.O.N v l ! ! g @ . . + j ! ! j + $ w N X.>.3. .t * * =                         ",
"                = =         = = - w 5.p.p.g.$.<.-.$.g.5.w > > > - - - - > > > > - w Z s.$.1.1.} 0 * * =                         ",
"                          * = 1 p Z q.a.j.b.:.<.,.>.b.h.^ n b b M n M n n n n b n / h.b.>.3.3.o.t * *                           ",
"                        = = * 2 M q.w.a.o.@.:.=.@.@.=.#.0.9.p.a.9.9.p.p.9.9.a.p.9.0.$.=.@...+.) 9 *                             ",
"                        = = = - 2 p 7.9.v x @...x l +...f d ` ' d d ' ' d d ` ` d f ..+.k 0 t 9 - =                             ",
"                        = = = * * 2 b b 1 < ~ ~ < < ! [ E E [ [ U U ] ] E E [ [ U U ] [ E H 3 # = =                             ",
"                    = = = = = = * = > 1 = - , , - = , R J.F.I I F.F.I G F.F.I I F.F.I I F.G.J X # =                             ",
"                  = = = = = = = = = * = = * * * = * X S A.Z.5 P Y.Y.L 5 Z.Z.C P Y.Y.P 5 Z.Z.D O #                               ",
"                = = = =             = = = = = = = = = = ; ; * L I.I.L + ; : + L I.I.L = ; ; - =                                 ",
"                  =                 = = = = = = = = = O X X # 5 Q Q 5 X . o O 5 Q Q 5 = X X #                                   ",
"                                    = =     = = = = = = = = * * - = = = + * = = = = = = = =                                     ",
"                                                = = = = = = = + * X * = = = = + X X     = =                                     ",
"                                                = = = = $ = = = = = = = = = * * = =     = =                                     ",
"                                    = =     = = = * = = = = * * = = = = = = = = = = = =                                         ",
"                                    = = =   = = = = = = = = * + = = = = = = = = = = X X                                         ",
"                    = = = = = =     = = = = = = = = = = = = = = = = = = = = = = = = = = = = = $                                 ",
"                      = = = = = = = = = = = = = = $ X X X 5 Q W 5 X X X X X X X * 5 Q W 5 # X X X                               ",
"                            = = = = = = = = = = = = ; ; * L I.I.L O ; ; = - ; ; = L I.I.L $ ; 6 = = = =                         ",
"                          = = = = = = = * * = # X S A.Z.5 L Y.Y.P C Z.Z.S C Z.Z.5 L Y.Y.P 5 Z.Z.D = = =                         ",
"                        = = = = = = = = 1 1 = $ % Y J.F.I I F.F.I I F.F.I I F.F.I I F.F.G G F.F.J # # =                         ",
"                = = = = = = = * * * * 2 n b 1 > b A Y E ] ] U U ] [ T T ] ] T T ] ] U K A A Y H 6 =                             ",
"                = = = = = = = - 2 2 = w ( t.h h t.t.f k ....k h ....k k ....k k ....k f t.0.p & = =                             ",
"                            * 2 M M 2 9 | :.@.@.%.%.+.@.=.=.@.@.=.=.+.+.=.=.@.@.=.=.+...%.v.0.n 2 *                             ",
"                            * w 5.e.b m ` b.v.b.:.2.,.,.>.,.,.<.>.>.1.<.,.<.>.<.-.>.-.2.<.:.b.( q =                             ",
"                            * 2 Z w.w.e.r.p.l.g.$.>.>.>.>.>.=.>.:.>.>.>.:.>.>.,.>.>.>.>.>.>.>.| 9 *                             ",
"                            = - y n 7.l.u.p.g.$.:.,.,.,.>.*.c.v.:.,.,.,.>.:.:.,.>.,.,.,.=.,.2.} t *                             ",
"                            = = - y 4.l.u.d.v.:.:.:.:.:.:.#.` d.#.:.:.:.:.,.>.>.:.:.:.:.>.,.<.} 0 *                             ",
"                          = = 1 a Z e.p.p.p.g.g.g.g.g.g.g.k.p.p.s.g.g.j.:.,.,.:.j.s.g.j.:.,.2. .0 * *                           ",
"                        = = = 2 4.l.p.p.r.p.w.w.w.w.l.p.w.p.l.r.r.p.u.d.v.;.;.v.a.w.w.a.j.;.;._ e * = =                         ",
"                = = = = = * * 2 4.p.l.r.r.r.r.r.r.r.p.p.p.p.l.r.l.p.w.p.d.d.d.a.p.w.w.p.a.d.g.6.q * = =                         ",
"                = = = = = - q b 7.p.w.p.l.p.p.p.p.w.Z M M M Z n M M M Z Z Z q.l.p.p.w.p.w.q.Z a 1 = =                           ",
"                        * 2 M e.r.p.r.r.r.r.e.p.r.4.y - - 1 1 - - 1 - - = y 4.r.p.w.w.p.p.5.w - = =                             ",
"                        * q 5.l.l.l.p.7.M b b b b p 1 o O O O * O * * o o 1 p M e.p.l.l.l.q.n w - * *                           ",
"                        * 2 5.r.e.e.r.Z q = - = = -                         = q Z r.e.e.e.e.r.Z w = = =                         ",
"                        * w 4.e.n i i i 1                                     1 y i i i i n e.r.4.a 1 *                         ",
"                        * 2 M M 2 * = =                                         = = = * * 2 M 7.7.Z 2 *                         ",
"                        = - 2 2 - *                                                         q q q q                             ",
"                        = = * * = =                                                         * * * *                             ",
"                                                                                                                                ",
"                                                                                                                                ",
"                                                                                                                                ",
"                                                                                                                                ",
"                                                                                                                                ",
"                                                                                                                                ",
"                                                                                                                                "
};
