/* XPM */
static char *_64d740df7fc437f9dfb530af30db27eNv8KRsdIwBsuKapR[] = {
/* columns rows colors chars-per-pixel */
"32 36 5 1 ",
"  c None",
". c #222222",
"X c #DA4E38",
"o c #9F294E",
"O c #FDF7ED",
/* pixels */
"                                ",
"                                ",
"                                ",
"                                ",
"                                ",
"                 .              ",
"              . .    .          ",
"             .. . . .           ",
"       ..... ........           ",
"        ......XXooXXo....       ",
"      ....o.o.XXOOXXO.o...      ",
"    ....o.XXo.XXOOXXO.Xo.       ",
"       .oXXXo.XX..XX..XX..      ",
"      ...ooXXo.......oXX...     ",
"      ..ooXXXXoooooooXXX.       ",
"      ...o.X.X.X.X.X.X...       ",
"      ........O.O.O.O.O..       ",
"      .  .......O...O...        ",
"         ..............         ",
"         . ...........          ",
"           . ....... .          ",
"           .  .....             ",
"           . ....... .          ",
"      .  . ............   .     ",
"      .. ............... ..     ",
"       ........O.....O....      ",
"      .......O.O.O.O.O.O..      ",
"      ....o.o.X.X.X.X.o..       ",
"       .o.XXXXXXXXXXXXXo.       ",
"       .ooooXXXXXXXXXXXX..      ",
"      ...ooXXXXoXXXXXXXX...     ",
"     ...ooooooooooXXooXX.       ",
"       .oooooooooooooooo.       ",
"        .oooo......oooo.        ",
"         .oo.      .oo.         ",
"         ...       ...          "
};
