/* XPM */
static char *_efb09c90279461eb24f016bb8ee9fdfMLAmDZmpQX8PPaxv[] = {
/* columns rows colors chars-per-pixel */
"64 64 172 2 ",
"   c None",
".  c #1E1E1E",
"X  c #171D1D",
"o  c #231F1E",
"O  c #17211E",
"+  c #1A221F",
"@  c #1F1E21",
"#  c #241E21",
"$  c #291F22",
"%  c #3B1F28",
"&  c #1E2121",
"*  c #222222",
"=  c #2B2225",
"-  c #292928",
";  c #2F2028",
":  c #312425",
">  c #3D2824",
",  c #352329",
"<  c #3C232C",
"1  c #3E2227",
"2  c #2A3231",
"3  c #313331",
"4  c #393837",
"5  c #373A3A",
"6  c #3A3D3B",
"7  c #432624",
"8  c #462B26",
"9  c #4B2C26",
"0  c #43242C",
"q  c #4D2B29",
"w  c #512E27",
"e  c #532C2A",
"r  c #5D292C",
"t  c #5E302A",
"y  c #4D2431",
"u  c #472330",
"i  c #552534",
"p  c #5D2437",
"a  c #5F2439",
"s  c #48383C",
"d  c #622D2F",
"f  c #6A3128",
"g  c #62322D",
"h  c #63253A",
"j  c #6C263C",
"k  c #662B34",
"l  c #72263E",
"z  c #7B253E",
"x  c #793429",
"c  c #3F413E",
"v  c #41403F",
"b  c #752740",
"n  c #7C2742",
"m  c #7E2841",
"M  c #6F3449",
"N  c #73374B",
"B  c #713D4C",
"V  c #524F4D",
"C  c #594E4F",
"Z  c #4D514F",
"A  c #51504E",
"S  c #5E514D",
"D  c #5A4F50",
"F  c #565351",
"G  c #5B5351",
"H  c #565856",
"J  c #595A56",
"K  c #585C58",
"L  c #725E59",
"P  c #67585D",
"I  c #76625C",
"U  c #6C5D62",
"Y  c #705D60",
"T  c #676662",
"R  c #676A67",
"E  c #6A6966",
"W  c #6F7370",
"Q  c #7F7D79",
"!  c #8E3B2E",
"~  c #963E2F",
"^  c #8E2F3F",
"/  c #8E3636",
"(  c #94323D",
")  c #983835",
"_  c #A63D36",
"`  c #A33A3A",
"'  c #B03F39",
"]  c #BE3E3F",
"[  c #9C412F",
"{  c #914A3E",
"}  c #AC4333",
"|  c #A74034",
" . c #B34434",
".. c #BA4533",
"X. c #BE4834",
"o. c #C5423F",
"O. c #CB453D",
"+. c #C54A34",
"@. c #D84731",
"#. c #D24C37",
"$. c #DC4C35",
"%. c #D54A3A",
"&. c #DB4E38",
"*. c #DD5037",
"=. c #E44F37",
"-. c #E15137",
";. c #E25038",
":. c #832744",
">. c #892647",
",. c #852845",
"<. c #8B2A45",
"1. c #8E2848",
"2. c #8D2748",
"3. c #962E42",
"4. c #94284A",
"5. c #9D294E",
"6. c #982F43",
"7. c #9C3143",
"8. c #973042",
"9. c #9F2850",
"0. c #A22A4E",
"q. c #A92E4C",
"w. c #AC314A",
"e. c #A33046",
"r. c #B43646",
"t. c #B73845",
"y. c #BA3944",
"u. c #B33449",
"i. c #BB354B",
"p. c #A22950",
"a. c #AD2C50",
"s. c #C13D43",
"d. c #884D41",
"f. c #8C5144",
"g. c #87635B",
"h. c #89655D",
"j. c #88746D",
"k. c #816F70",
"l. c #9E6676",
"z. c #877576",
"x. c #807F7B",
"c. c #8B7972",
"v. c #907B74",
"b. c #C54140",
"n. c #CC4340",
"m. c #C45644",
"M. c #DC5B4E",
"N. c #DD715E",
"B. c #CF717A",
"V. c #D3737D",
"C. c #E27462",
"Z. c #E57A67",
"A. c #E87E6A",
"S. c #83817C",
"D. c #C87D92",
"F. c #B2AEA8",
"G. c #B5B4AD",
"H. c #BAB3AC",
"J. c #C1BCB5",
"K. c #C5BFB8",
"L. c #E2BCB0",
"P. c #C5C0B8",
"I. c #EFC3B9",
"U. c #E7C1B4",
"Y. c #F4C8BD",
"T. c #CFD2CA",
"R. c #D6D2CA",
"E. c #FDD9CB",
"W. c #FFDFD0",
"Q. c #E5E5DC",
"!. c #F7EEE8",
"~. c white",
/* pixels */
"                                                                                                                                ",
"                                                                                                                                ",
"                                                                                                                                ",
"                                                                                                                                ",
"                                                                    * *                                                         ",
"                                  * * * *                         *                                                             ",
"                                * * * * * *             * &     * *                 * *                                         ",
"                                    * * * * & & & & * * & & & & & & & & & & & & & &     * *                                     ",
"                                    * & * = < 0 0 < = = 8 e e e 8 0 % 0 q w e q 0 1     & &                                     ",
"                    * * * * * * * * * * & < l 4.2.l , 8 ~ +.X.' 6.>.>.6.' X.X.' 6.l 0 * * * * *                                 ",
"                      * * * * * * = u 0 * 0 ( i.a.:.< 9  .=.=.M.B.D.D.B.M.=.=.M.V.l.s $ 0 u ; * *                               ",
"                            * * & 0 m n 0 w } n.u.n 1 9 } $.$.C.I.!.!.I.C.@.@.Z.Y.J.F % z m 0 & * *                             ",
"                              & & 0 ,.0./ [ +.&.n.( 8 q } &.$.Z.E.~.~.E.Z.@.@.A.W.T.J 7 ) ` 9 @ & *                             ",
"                                & < b e.o.%.%.&.&.| 9 9 } *.$.N.L.Q.Q.L.N.@.@.C.U.G.Z 9 ' ' w & & *                             ",
"                              * * = < k 7.u.u.y.%.} 8 8 } ;.;.m.g.R R g.m.=.=.m.h.H 2 9  . .w # * *                             ",
"                            * * * * , i >.0.a.s.n. .d e ) ....! 7 . X > ! ....! > @ ; d .. .w + & *                             ",
"                            * * * < j 2.5.q.s.%.&.O.7.l e 9 8 > = . . $ 7 8 8 > o , j 7.O.} e &                                 ",
"                          * * * & , h ,.5.7.) | [ _ t.( 1 @ < < # $ 0 0 # # < < # 0 3.y._ x > *                                 ",
"                    * * * * * * * * = y ,.,.e : : t  .| q < b b < < :.n < < z b < e |  .g : * *                                 ",
"                      * * * * * * * + : i i ; & & : f f.v.z.B B k.z.N S z.z.B B z.j.d.d.c.W 6 . *                               ",
"                                * * * * * * * * * o o F H.H.V F K.K.A V H.H.V A J.P.A A H.G.F . @ *                             ",
"                                  * * * * & * * * & . 5 E T 3 J R.R.J 3 T T 3 J R.R.J 3 T E 4 & *                               ",
"                                    * * * * * * * * * * * * + A F.F.A o . * . V F.F.A . o * * *                                 ",
"                                    * * * * * * * * * * # . * 3 V V 3 o . . . 3 V V 3 * . .                                     ",
"                                    * * * * * * * * * * * * * * . . & * * * * * . . @ * * *                                     ",
"                                    * *     * * * * * * * * * * & @ * * * * * * * * * * * *                                     ",
"                                    * *     * * * * * * * * * * * * * * * * * * * * * * * *                                     ",
"                                    * *     * *     * * * * * * * * * * * * * * * * * * * *                                     ",
"                                    * *     * *     * * * * * * * * * * * * * * * * * * * *                                     ",
"                                    * *     * *     * * * * * = * * * * * * * * * *     * *                                     ",
"                                            * *       * * * * * * * * * * *   * * *                                             ",
"                                            * *         * * * * * * * * * *     * *                                             ",
"                                    * *     * *             * * * * * *                                                         ",
"                                    * *     * *               * * * *                                                           ",
"                                            * *                 * *                     * *                                     ",
"                                            * *               * * * *                   * *                                     ",
"                                    * *     * *             * * * * * *         * *     * *                                     ",
"                                    * *     * *       * * * * * * * * * * * * * * *     * *                                     ",
"                    * *             * *     * *     * * * * * * * * * * * * * * * *     * *                                     ",
"                    * * * * * *     * * * * * * * * * * * * * * * * * * * * * * * * * * * *                                     ",
"                    * * * * * *     * * * * * * * * * * * * . . * * * * * * * * * * + * * *                                     ",
"                        * * * * * * * * * * * * * * * * * * * * * * * * * * * * * * * * * * * *                                 ",
"                          * * * * * * * * * * * * * . . o 4 T T 4 . . . * * . . . 4 T T 4 . . . *                               ",
"                            * * * * * * * * * * * * - * . F J.J.F & = - * * - * * A J.J.F * * - * * * *                         ",
"                  * *       * * * * * * * & * & + v S.x.5 H R.R.H 6 Q Q 6 6 Q Q 4 H R.R.J 4 Q x.V . . o                         ",
"                * * * *     * * * * * * : ; * * $ G H.H.S S H.H.S S H.H.S S H.H.S S H.H.S C H.H.V X . *                         ",
"                  * * * * * * * * & * , h p , ; p N U I { { I L { { I I { { I I { { I P M N Y K 3 * .                           ",
"                    * * * * * * < , * 8 <.3.d d 3.3.r f ....f f ....f f ....f f ....f r 3.3.i $ * *                             ",
"                        * * * < b j , 8 _ O.X.X.O.O. ...#.#...X.#.#.....#.#.....#.#.....O.y.3.h < &                             ",
"                          * & 0 >.4.a k ' n.n.n.%.*.;.*.&.&.*.*.&.&.&.*.&.&.&.*.&.&.&.*.-.%.s.3.0 &                             ",
"                            & < n 5.4.4.5.q.0.r.O.&.&.&.&.&.&.&.&.&.&.&.&.&.&.&.&.&.&.&.*.&.%.| 9 &                             ",
"                            & , e l 4.p.5.0.r.b.%.*.*.&.&.#.o.o.%.*.*.&.&.&.&.&.*.&.*.&.&.*.;.} q & &                           ",
"                            * * = y ,.p.5.w.b.%.%.%.&.%.&.o.w.u.o.%.%.%.&.&.&.%.%.%.%.%.%.*.*.} 9 & & *                         ",
"                  * * * * * & , i b 4.5.5.q.r.t.t.y.t.t.t.w.0.0.u.t.t.o.%.&.&.%.s.t.t.] %.*.;. .9 * * *                         ",
"                * * * * * * & 0 :.0.p.5.5.5.5.0.5.5.0.5.0.5.0.0.0.9.5.w.b.%.%.b.w.5.5.w.b.%.%.| q & & *                         ",
"                    * * * & & < :.p.0.0.5.0.0.p.p.p.p.p.p.p.0.p.p.p.0.0.w.u.u.w.0.5.5.0.w.u.u.^ 0 *                             ",
"                    * * * - < i 1.p.0.p.0.5.:.n n m n m n n n n n n n n n b n :.4.p.0.5.p.4.:.j < &                             ",
"                        & < l 4.4.5.0.0.0.,.y , , , , , , < , , , , < , , , , y ,.0.p.0.p.,.y ,                                 ",
"                        * , p l l j j j j p , + & O + + + + + + + + + + + + O , a n 4.p.p.m < +                                 ",
"                        * * = = = = = = = =                                     * u :.5.p.:.< &                                 ",
"                                                                                  , y l 4.:.< &                                 ",
"                                                                                    * 0 :.:.0 &                                 ",
"                                                                                    & 0 m :.0 &                                 ",
"                                                                                    & < :.:.0 &                                 "
};
