/* XPM */
static char *_3d9462e931d4589c5bba7dd75d4631dAiiOjN6fulmZstnG[] = {
/* columns rows colors chars-per-pixel */
"32 36 5 1 ",
"  c None",
". c #222222",
"X c #DA4E38",
"o c #9F294E",
"O c #FDF7ED",
/* pixels */
"                                ",
"                                ",
"                 .              ",
"        ...   . .    .          ",
"         ............ .         ",
"     ......oo.XXooXXo...        ",
"       ..o.Xo.XXOOXXO.o..       ",
"        .oXXX.XXOOXXO.X..       ",
"       ...ooX.XX..XX..X..       ",
"       ..ooXXo.......oX.        ",
"     .....o..X.o.o.o.X..        ",
"        ......O.O.O.O.O..       ",
"         .......O...O...        ",
"         ..............         ",
"         . ............         ",
"         . . ..........         ",
"         . . ........ .         ",
"           .  ..... .           ",
"         . .   ...              ",
"           .    .     .         ",
"         . .   ...  . .         ",
"     .   . . ........ .         ",
"     ... ..............         ",
"      ..................        ",
"       ........O.....O....      ",
"    .. ......O.O.O.O.O.O..      ",
"     .....o.o.X.X.X.X.o..       ",
"      ..o.XXXXXXXXXXXXXo.       ",
"       .ooooXXXXXXXXXXXX.       ",
"       ..ooXXXXoXXXXXXXX..      ",
"    ....ooooooooooXXooXX..      ",
"     ...oooooooooooooooo.       ",
"      .oooo.........ooo.        ",
"      .....         .oo.        ",
"                     .o.        ",
"                     .o.        "
};
