/* XPM */
static char *_3de8832b936437ba0a9e1ed28012497q2jXv1SASunddbam[] = {
/* columns rows colors chars-per-pixel */
"32 36 5 1 ",
"  c None",
". c #222222",
"X c #DA4E38",
"o c #9F294E",
"O c #FDF7ED",
/* pixels */
"                                ",
"                                ",
"                                ",
"                                ",
"                                ",
"                                ",
"                 .              ",
"              . .    .          ",
"             .. . . .           ",
"        ...  ........           ",
"         .....XXooXXo.          ",
"        ......XXOOXXO...        ",
"    ......o.o.XXOOXXO.o..       ",
"     ...o.XXo.XX..XX..Xo..      ",
"       .oXXXXo.......oXX..      ",
"      ...ooXXXoooooooXXX..      ",
"      ..ooXXXXXXXXXXXXXX.       ",
"     ....o.X.X.X.X.X.X...       ",
"       .......O.O.O.O.O..       ",
"         .......O...O...        ",
"          .............         ",
"      .. ...............        ",
"     ..........O.....O...       ",
"      .......O.O.O.O.O.O..      ",
"     .....o.o.X.X.X.X.o..       ",
"    .. .o.XXXXXXXXXXXXXo.       ",
"       .ooooXXXXXXXXXXXX.       ",
"       ..ooXXXXoXXXXXXXX..      ",
"      ..ooooooooooXXooXX..      ",
"     ...oooooooooooooooo.       ",
"     .  .oooo.......ooo.        ",
"         .oo.      ....         ",
"         .o.                    ",
"         ...                    ",
"                                ",
"                                "
};
