/* XPM */
static char *result[] = {
/* columns rows colors chars-per-pixel */
"64 64 111 2 ",
"   c #3B0001",
".  c #3C0101",
"X  c #3C0102",
"o  c #3C0202",
"O  c #3D0202",
"+  c #3E0202",
"@  c #3F0302",
"#  c #3E0303",
"$  c #3F0403",
"%  c #4C0A03",
"&  c #4E0B03",
"*  c #4D0B04",
"=  c #4F0C04",
"-  c #4B130C",
";  c #4C140D",
":  c #4C150D",
">  c #4C150E",
",  c #4D160E",
"<  c #4D170E",
"1  c #4D170F",
"2  c #4E180F",
"3  c #5D2919",
"4  c #5E2A19",
"5  c #5D2A1A",
"6  c #5E2B1B",
"7  c #E02707",
"8  c #E02807",
"9  c #E02907",
"0  c #E22D08",
"q  c #E22E08",
"w  c #E22E09",
"e  c #E22F09",
"r  c #E4340A",
"t  c #E5340A",
"y  c #E5350A",
"u  c #E4350B",
"i  c #E5360B",
"p  c #D95C15",
"a  c #DA5D15",
"s  c #EA6617",
"d  c #F56215",
"f  c #F56216",
"g  c #F56316",
"h  c #F66316",
"j  c #F66416",
"k  c #F86716",
"l  c #F86816",
"z  c #F86817",
"x  c #F86917",
"c  c #F86918",
"v  c #F86A18",
"b  c #FA6D18",
"n  c #FA6E18",
"m  c #FA6E19",
"M  c #FA6F19",
"N  c #FA7019",
"B  c #FA701A",
"V  c #FA711A",
"C  c #F77321",
"Z  c #F77421",
"A  c #FA7822",
"S  c #FA7922",
"D  c #FA7923",
"F  c #FA7A23",
"G  c #FA7A24",
"H  c #FA7B24",
"J  c #F7832C",
"K  c #F9842D",
"L  c #F9852D",
"P  c #F9852E",
"I  c #D4C072",
"U  c #D5C173",
"Y  c #E6CB76",
"T  c #E6CC76",
"R  c #E4D37E",
"E  c #E4D47F",
"W  c #E5D47F",
"Q  c #E5D57F",
"!  c #E6D67F",
"~  c #F6D376",
"^  c #F6D377",
"/  c #F6D477",
"(  c #F7D477",
")  c #E5D680",
"_  c #E6D680",
"`  c #E6D780",
"'  c #E7D881",
"]  c #F5DE80",
"[  c #F5DE81",
"{  c #F5DF81",
"}  c #F6DE80",
"|  c #F6DE81",
" . c #F6DF81",
".. c #F5DF82",
"X. c #F6DF82",
"o. c #F5E082",
"O. c #F6E082",
"+. c #F6E083",
"@. c #F3E78A",
"#. c #F3E88A",
"$. c #F3E88B",
"%. c #F4E88A",
"&. c #F5E88A",
"*. c #F5E88B",
"=. c #F5E98B",
"-. c #F6E98B",
";. c #F7EA8B",
":. c #F5EA8C",
">. c #F6EA8C",
",. c #F7EB8C",
"<. c #000000",
/* pixels */
"<.<.<.<.<.<.<.<.<.<.<.<.<.<.<.<.<.<.<.<.<.<.<.<.<.<.<.<.<.<.<.<.<.<.<.<.<.<.<.<.<.<.<.<.<.<.<.<.<.<.<.<.<.<.<.<.<.<.<.<.<.<.<.<.",
"<.<.<.<.<.<.<.<.<.<.<.<.<.<.<.<.<.<.<.<.<.<.<.<.<.<.<.<.<.<.<.<.<.<.<.<.<.<.<.<.<.<.<.<.<.<.<.<.<.<.<.<.<.<.<.<.<.<.<.<.<.<.<.<.",
"<.<.<.<.<.<.8 8 <.<.<.<.<.<.<.<.<.<.<.<.<.<.<.<.<.<.<.<.<.<.<.<.<.<.<.<.<.<.<.<.<.<.<.<.<.<.<.<.<.<.<.<.<.<.<.<.<.<.<.<.<.<.<.<.",
"<.<.<.<.<.<.8 8 <.<.<.<.<.<.<.<.<.<.<.<.<.<.<.<.<.<.<.<.<.<.<.<.<.<.<.<.<.<.<.<.<.<.<.<.<.<.<.<.<.<.<.<.<.<.<.<.<.<.<.<.<.<.<.<.",
"<.<.<.<.<.<.<.<.<.<.<.<.<.<.<.<.<.<.<.<.<.<.<.<.<.<.<.<.<.<.<.<.<.<.<.<.<.<.<.<.<.<.<.<.<.<.<.<.<.<.<.<.<.<.<.<.<.<.<.<.<.<.<.<.",
"<.<.<.<.<.<.<.<.<.<.<.<.<.<.<.<.<.<.<.<.<.<.<.<.<.<.<.<.<.<.<.<.<.<.<.<.<.<.<.<.<.<.<.<.<.<.<.<.<.<.<.<.<.<.<.<.<.<.<.<.<.<.<.<.",
"<.<.<.<.<.<.<.<.<.<.<.<.<.<.<.<.<.<.<.<.<.<.<.<.<.<.<.<.<.<.<.<.<.<.<.<.<.<.<.<.<.<.<.<.<.<.<.<.<.<.<.<.<.<.<.<.<.<.<.<.<.<.<.<.",
"<.<.<.<.<.<.<.<.<.<.<.<.<.<.<.<.<.<.<.<.<.<.<.<.<.<.<.<.<.<.<.<.<.<.<.<.<.<.<.<.<.<.<.<.<.<.<.<.<.<.<.<.<.<.<.<.<.<.<.<.<.<.<.<.",
"<.<.<.<.<.<.<.<.<.<.8 8 8 8 8 8 <.<.<.<.<.<.<.<.<.<.<.<.<.<.<.<.<.<.<.<.<.<.<.<.<.<.<.<.<.<.<.<.<.<.<.<.<.<.<.<.<.<.<.<.<.<.<.<.",
"<.<.<.<.<.<.<.<.<.<.8 9 w w 9 8 <.<.<.<.<.<.<.<.<.<.<.<.<.<.<.<.<.<.<.<.<.<.<.<.<.<.<.<.<.<.<.<.<.<.<.<.<.<.<.<.<.<.<.<.<.<.<.<.",
"<.<.<.<.<.<.<.<.8 8 8 w h h w 8 8 8 8 8 <.<.<.<.<.<.<.<.<.<.<.<.<.<.<.<.8 8 8 8 <.<.<.<.<.<.<.<.<.<.<.<.<.<.<.<.<.<.<.<.<.<.<.<.",
"<.<.<.<.<.<.<.<.8 8 8 w h h w 8 8 9 w e <.<.<.<.<.<.<.<.<.<.<.<.<.<.<.<.8 8 8 8 <.<.<.<.<.<.<.<.<.<.<.<.<.<.<.<.<.<.<.<.<.<.<.<.",
"<.<.<.<.<.<.<.<.8 8 8 9 w w 9 8 8 w h h w 7 8 8 <.<.<.<.<.<.<.<.<.<.<.<.<.<.<.<.8 8 <.<.<.<.<.<.<.<.<.<.<.<.<.<.<.<.<.<.<.<.<.<.",
"<.<.<.<.<.<.<.<.8 8 8 8 8 8 8 8 8 w h j r q 9 8 <.<.<.<.<.<.<.<.<.<.<.<.<.<.<.<.8 8 <.<.<.<.<.<.<.<.<.<.<.<.<.<.<.<.<.<.<.<.<.<.",
"<.<.<.<.8 8 <.<.<.<.8 8 <.<.<.<.8 9 q r h g q 7 8 8 <.<.<.<.<.<.<.<.<.<.<.<.<.<.<.<.<.<.<.<.<.<.<.<.<.<.<.<.<.<.<.<.<.<.<.<.<.<.",
"<.<.<.<.8 8 <.<.<.<.8 8 <.<.<.<.8 8 7 w x v y q 9 8 <.<.<.<.<.<.<.<.<.<.<.<.<.<.<.<.<.<.<.<.<.<.<.<.<.<.<.<.<.<.<.<.<.<.<.<.<.<.",
"<.<.8 8 <.<.<.<.<.<.<.<.<.<.<.<.<.<.8 e x M c f q 7 8 8 8 8 8 8 8 8 8 8 <.<.<.<.<.<.<.<.<.<.<.<.<.<.<.<.<.<.<.<.<.<.<.<.<.<.<.<.",
"<.<.8 8 <.<.<.<.<.<.<.<.<.<.<.<.<.<.8 w f c M c y w e w 9 8 8 8 8 8 8 8 <.<.<.<.<.<.<.<.<.<.<.<.<.<.<.<.<.<.<.<.<.<.<.<.<.<.<.<.",
"<.<.<.<.<.<.<.<.8 8 <.<.<.<.<.<.<.<.8 9 q y x M x z z d q 7 8 8 8 8 8 8 8 8 8 8 <.<.<.<.<.<.<.<.<.<.<.<.<.<.<.<.<.<.<.<.<.<.<.<.",
"<.<.<.<.<.<.<.<.8 8 <.<.<.<.<.<.<.<.8 8 7 w z M M B F Z i w e e e e e w 9 8 8 8 <.<.<.<.<.<.<.<.<.<.<.<.<.<.<.<.<.<.<.<.<.<.<.<.",
"<.<.<.<.<.<.<.<.<.<.<.<.<.<.<.<.<.<.<.<.8 e x N n D / ^ C k z z z z x f q 7 8 8 <.<.<.<.<.<.<.<.<.<.<.<.<.<.<.<.<.<.<.<.<.<.<.<.",
"<.<.<.<.<.<.<.<.<.<.<.<.<.<.<.<.<.<.<.<.8 e h c n H { o.L F H F B M N c y q 9 8 <.<.<.<.<.<.<.<.<.<.<.<.<.<.<.<.<.<.<.<.<.<.<.<.",
"<.<.<.<.<.<.<.<.<.<.<.<.<.<.<.<.<.<.<.<.<.<.w y x H [ =.{ ] [ ^ S n M m c f q 7 8 8 <.<.<.<.<.<.<.<.<.<.<.<.<.<.<.<.<.<.<.<.<.<.",
"<.<.<.<.<.<.<.<.<.<.<.<.<.<.<.<.<.<.<.<.<.<.7 q d Z ~ ..*.:.:...L S B M N c y q 9 8 <.<.<.<.<.<.<.<.<.<.<.<.<.<.<.<.<.<.<.<.<.<.",
"<.<.<.<.<.<.<.<.<.<.<.<.<.<.<.<.<.<.<.<.<.<.8 9 0 u C P ..:.=.&...^ S n M m c f q 7 8 8 <.<.<.<.<.<.<.<.<.<.<.<.<.<.<.<.<.<.<.<.",
"<.<.<.<.<.<.<.<.<.<.<.<.<.<.<.<.<.<.<.<.<.<.8 9 0 t l S ^ ..&.=.:...L S B M N c y w e e <.<.<.<.<.<.<.<.<.<.<.<.<.<.<.<.<.<.<.<.",
"<.<.<.<.<.<.<.<.<.<.8 8 <.<.<.<.<.<.<.<.<.<.7 q f c m B A K { :.=.&...^ S n M m x z x h w 7 <.<.<.<.<.<.<.<.<.<.<.<.<.<.<.<.<.<.",
"<.<.<.<.<.<.<.<.<.<.8 8 <.<.<.<.<.<.<.<.<.<.w y c N M B A K { :.=.=.:...L S B M M M N c y w <.<.<.<.<.<.<.<.<.<.<.<.<.<.<.<.<.<.",
"<.<.<.<.<.<.<.<.<.<.<.<.<.<.<.<.<.<.<.<.7 w h c m M n S ^ ..&.=.=.=.=.&...^ S n M M M m c h w 7 <.<.<.<.<.<.<.<.<.<.<.<.<.<.<.<.",
"<.<.<.<.<.<.<.<.<.<.<.<.<.<.<.<.<.<.<.<.w y c N M B S L ..:.=.=.=.=.=.=.:...L S B M M M N c y w <.<.<.<.<.<.<.<.<.<.<.<.<.<.<.<.",
"<.<.<.<.<.<.<.<.<.<.<.<.<.<.<.<.<.<.8 e h c m M n S ^ ..&.=.=.=.=.=.=.=.=.&...^ S n n n n n x h w 7 <.<.<.<.<.<.<.<.<.<.<.<.<.<.",
"<.<.<.<.<.<.<.<.<.<.<.<.<.<.<.<.<.<.8 e x N M B S L ..:.=.=.=.=.=.=.=.=.=.=.:...L F G G G D V x y w <.<.<.<.<.<.<.<.<.<.<.<.<.<.",
"<.<.<.<.<.<.<.<.<.<.<.<.<.<.<.<.<.<.7 w z M n D ^ ..-.>.=.=.=.=.>.>.=.=.>.>.=.&.O. .} }  .( S b x h e 8 <.<.<.<.<.<.<.<.<.<.<.<.",
"<.<.<.<.<.<.<.<.<.<.<.<.<.<.<.<.<.<.w y x M n G | $.Q Q @.=.=.@.Q Q @.@.Q Q @.@.) ) #.#.) Y J S V x e 8 <.<.<.<.<.<.<.<.<.<.<.<.",
"<.<.<.<.<.<.<.<.<.<.<.<.<.<.<.<.8 e h c m M n F  .) 5 5 _ ,.>.Q 5 5 _ _ 5 5 _ _ 5 5 _ _ 5 3 T ( F z w 7 <.<.<.<.<.<.<.<.<.<.<.<.",
"<.<.<.<.<.<.<.<.<.<.<.<.<.<.<.<.8 e x N M B S L O.E , - I _ %.R > > W W > > W W > > W W > > E X.H z y w <.<.<.<.<.<.<.<.<.<.<.<.",
"<.<.<.<.<.<.<.<.<.<.<.<.<.<.<.<.8 e z M n D ^ ..-.R 2 # : 6 ' Q < < ! ! < < ! ! < < ! ! < , E  .F b x h e 8 <.<.<.<.<.<.<.<.<.<.",
"<.<.<.<.<.<.<.<.<.<.<.<.<.<.<.<.8 e z M n G [ :.>.R 2 .   : U U : : U U : : U U : : U U ; < E O.L S V x e 8 <.<.<.<.<.<.<.<.<.<.",
"<.<.<.<.<.<.<.<.<.<.<.<.<.<.<.<.8 e z M n G ] :.>.R 2 . O $ , , $ $ , , $ $ , , $ $ , , # 2 R -...^ F z e 8 <.<.<.<.<.<.<.<.<.<.",
"<.<.<.<.<.<.<.<.<.<.<.<.<.<.<.<.8 e z M n G ] :.>.R 2 . O O . . O O . . O O . . O O . . . 2 R >.:.[ H z e 8 <.<.<.<.<.<.<.<.<.<.",
"<.<.<.<.<.<.<.<.<.<.<.<.<.<.<.<.8 e z M n G ] :.>.R 2 . O O O O O O o o O O O O O O o o . 2 R >.:.] H z e 8 <.<.<.<.<.<.<.<.<.<.",
"<.<.<.<.<.<.<.<.<.<.<.<.<.<.<.<.8 e z M n G ] :.>.R 2 . O O O O O @ * * @ O O O O @ * * + 2 R >.:.] H z e 8 <.<.<.<.<.<.<.<.<.<.",
"<.<.<.<.<.<.<.<.<.<.<.<.<.<.<.<.8 e x N n G [ :.>.R 2 . O O O O o * p p * o O O o * p p % 1 R >.:.] H z e 8 <.<.<.<.<.<.<.<.<.<.",
"<.<.<.<.<.<.<.<.<.<.<.<.<.<.<.<.8 e h c n D ^ ..-.R 2 . O O O O X = s s = X O O X = s s & 1 R >.:.] H z e 8 <.<.<.<.<.<.<.<.<.<.",
"<.<.<.<.<.<.<.<.<.<.<.<.<.<.<.<.<.<.w y x B S L O.E <   O O O O X = s s = X O O X = s s & 1 R >.:.[ H z e 8 <.<.<.<.<.<.<.<.<.<.",
"<.<.<.<.<.<.<.<.<.<.<.<.<.<.<.<.<.<.7 w z M n F  .) 6 : $ O O O o * p p * o O O o * p p % 1 R -...^ F z e 8 <.<.<.<.<.<.<.<.<.<.",
"<.<.<.<.<.<.<.<.<.<.<.<.<.<.<.<.<.<.8 e x N n G } #._ I , . O O O @ * * @ O O O O @ * * + 2 E O.L S V x e 8 <.<.<.<.<.<.<.<.<.<.",
"<.<.<.<.<.<.<.<.<.<.<.<.<.<.<.<.<.<.8 e h c n G ] :.,.W 2 . O O O O o o O O O O O O o o . 2 E  .F b x h e 8 <.<.<.<.<.<.<.<.<.<.",
"<.<.<.<.<.<.<.<.<.<.<.<.<.<.<.<.<.<.<.<.w y z H [ :.>.R <   O O O O O O O O o o O O O O   < E  .H z y w <.<.<.<.<.<.<.<.<.<.<.<.",
"<.<.<.<.<.<.<.<.<.<.<.<.<.<.<.<.<.<.<.<.7 w z F ^ ..-.Q 6 : $ O O O O O O @ * * @ O O $ : 6 )  .H z w 7 <.<.<.<.<.<.<.<.<.<.<.<.",
"<.<.<.<.<.<.<.<.<.<.<.<.<.<.<.<.<.<.<.<.8 e x V S L ..$.` I :   O O O O o * a a * o . , I _ $.| H z e 8 <.<.<.<.<.<.<.<.<.<.<.<.",
"<.<.<.<.<.<.<.<.<.<.<.<.<.<.<.<.<.<.<.<.8 e h x b S ^ ..;.` 6 : $ O O O o * a a * o . 2 W ;...^ F z e 8 <.<.<.<.<.<.<.<.<.<.<.<.",
"<.<.<.<.<.<.<.<.<.<.<.<.<.<.<.<.<.<.<.<.<.<.w y x V S L ..$.` I :   . . . + % % + .   < E +.L S V x e 8 <.<.<.<.<.<.<.<.<.<.<.<.",
"<.<.<.<.<.<.<.<.<.<.<.<.<.<.<.<.<.<.<.<.<.<.7 w h x b S ^ ..;.` 6 < 2 2 2 2 1 1 2 2 < 4 T ( S b x h e 8 <.<.<.<.<.<.<.<.<.<.<.<.",
"<.<.<.<.<.<.<.<.<.<.<.<.<.<.<.<.<.<.<.<.<.<.<.<.w y x V S L ..$.) E E E E E E E E E E T J S V x y w <.<.<.<.<.<.<.<.<.<.<.<.<.<.",
"<.<.<.<.<.<.<.<.<.<.<.<.<.<.<.<.<.<.<.<.<.<.<.<.7 w h x b S ^ |  . . . . . . . . . .X.( S b x h w 7 <.<.<.<.<.<.<.<.<.<.<.<.<.<.",
"<.<.<.<.<.<.<.<.<.<.<.<.<.<.<.<.<.<.<.<.<.<.<.<.<.<.w y x V F H H H G G G G G G G G H F V x y w <.<.<.<.<.<.<.<.<.<.<.<.<.<.<.<.",
"<.<.<.<.<.<.<.<.<.<.<.<.<.<.<.<.<.<.<.<.<.<.<.<.<.<.7 w h x z z z z n n n n n n n n z z x h w 7 <.<.<.<.<.<.<.<.<.<.<.<.<.<.<.<.",
"<.<.<.<.<.<.<.<.<.<.<.<.<.<.<.<.<.<.<.<.<.<.<.<.<.<.<.<.e e e e w y c N M M M M N c y w e e <.<.<.<.<.<.<.<.<.<.<.<.<.<.<.<.<.<.",
"<.<.<.<.<.<.<.<.<.<.<.<.<.<.<.<.<.<.<.<.<.<.<.<.<.<.<.<.8 8 8 8 7 w h x z z z z x h w 7 8 8 <.<.<.<.<.<.<.<.<.<.<.<.<.<.<.<.<.<.",
"<.<.<.<.<.<.<.<.<.<.<.<.<.<.<.<.<.<.<.<.<.<.<.<.<.<.<.<.<.<.<.<.<.<.e e e e e e e e <.<.<.<.<.<.<.<.<.<.<.<.<.<.<.<.<.<.<.<.<.<.",
"<.<.<.<.<.<.<.<.<.<.<.<.<.<.<.<.<.<.<.<.<.<.<.<.<.<.<.<.<.<.<.<.<.<.8 8 8 8 8 8 8 8 <.<.<.<.<.<.<.<.<.<.<.<.<.<.<.<.<.<.<.<.<.<.",
"<.<.<.<.<.<.<.<.<.<.<.<.<.<.<.<.<.<.<.<.<.<.<.<.<.<.<.<.<.<.<.<.<.<.<.<.<.<.<.<.<.<.<.<.<.<.<.<.<.<.<.<.<.<.<.<.<.<.<.<.<.<.<.<.",
"<.<.<.<.<.<.<.<.<.<.<.<.<.<.<.<.<.<.<.<.<.<.<.<.<.<.<.<.<.<.<.<.<.<.<.<.<.<.<.<.<.<.<.<.<.<.<.<.<.<.<.<.<.<.<.<.<.<.<.<.<.<.<.<."
};
