/* XPM */
static char *result[] = {
/* columns rows colors chars-per-pixel */
"64 64 93 2 ",
"   c #3B0001",
".  c #3C0101",
"X  c #3C0202",
"o  c #3D0202",
"O  c #3E0202",
"+  c #3F0302",
"@  c #3E0303",
"#  c #3F0403",
"$  c #4C0A03",
"%  c #4D0B04",
"&  c #4B130C",
"*  c #4C140D",
"=  c #4C150D",
"-  c #4C150E",
";  c #4D160E",
":  c #4D170E",
">  c #4D170F",
",  c #4E180F",
"<  c #5D2919",
"1  c #5E2A19",
"2  c #5D2A1A",
"3  c #5E2B1B",
"4  c #E02707",
"5  c #E02807",
"6  c #E02907",
"7  c #E22D08",
"8  c #E22E08",
"9  c #E22E09",
"0  c #E22F09",
"q  c #E5340A",
"w  c #E5350A",
"e  c #DA5D15",
"r  c #F56216",
"t  c #F66316",
"y  c #F86817",
"u  c #F86917",
"i  c #F86918",
"p  c #FA6D18",
"a  c #FA6E18",
"s  c #FA6E19",
"d  c #FA6F19",
"f  c #FA7019",
"g  c #FA701A",
"h  c #FA711A",
"j  c #FA7822",
"k  c #FA7922",
"l  c #FA7923",
"z  c #FA7A23",
"x  c #FA7A24",
"c  c #FA7B24",
"v  c #F7832C",
"b  c #F9842D",
"n  c #F9852D",
"m  c #D4C072",
"M  c #D5C173",
"N  c #E6CB76",
"B  c #E6CC76",
"V  c #E4D37E",
"C  c #E4D47F",
"Z  c #E5D47F",
"A  c #E5D57F",
"S  c #E6D67F",
"D  c #F6D377",
"F  c #F6D477",
"G  c #F7D477",
"H  c #E5D680",
"J  c #E6D680",
"K  c #E6D780",
"L  c #E7D881",
"P  c #F5DE80",
"I  c #F5DE81",
"U  c #F5DF81",
"Y  c #F6DE80",
"T  c #F6DE81",
"R  c #F6DF81",
"E  c #F5DF82",
"W  c #F6DF82",
"Q  c #F5E082",
"!  c #F6E082",
"~  c #F6E083",
"^  c #F3E78A",
"/  c #F3E88A",
"(  c #F3E88B",
")  c #F4E88A",
"_  c #F5E88A",
"`  c #F5E88B",
"'  c #F5E98B",
"]  c #F6E98B",
"[  c #F7EA8B",
"{  c #F5EA8C",
"}  c #F6EA8C",
"|  c #F7EB8C",
" . c #000000",
/* pixels */
" . . . . . . . . . . . . . . . . . . . . . . . . . . . . . . . . . . . . . . . . . . . . . . . . . . . . . . . . . . . . . . . .",
" . . . . . . . . . . . . . . . . . . . . . . . . . . . . . . . . . . . . . . . . . . . . . . . . . . . . . . . . . . . . . . . .",
" . . . . . . . . . . . . . . . . . . . . . . . . . . . . . . . . . . . . . . . . . . . . . . . . . .5 5  . . . . . . . . . . . .",
" . . . . . . . . . . . . . . . . . . . . . . . . . . . . . . . . . . . . . . . . . . . . . . . . . .5 5  . . . . . . . . . . . .",
" . . . . . . . . . . . . . . . . . . . . . . . . . . . . . . . . . . . . . . . . . . . . . . . .5 5 5 5  . . . . . . . . . . . .",
" . . . . . . . . . . . . . . . . . . . . . . . . . . . . . . . . . . . . . . . . . . . . . . . .5 5 5 5  . . . . . . . . . . . .",
" . . . . . . . . . . . . . . . . . . . . . . . . . . . . . . . . . . . . . . . . . . . . . . . .5 5 5 5  . . . . . . . . . . . .",
" . . . . . . . . . . . . . . . . . . . . . . . . . . . . . . . . . . . . . . . . . . . . . . . .5 5 5 5  . . . . . . . . . . . .",
" . . . . . . . . . . . . . . . . . . . . . . . . . . . . . . . . . .5 5 5 5  . . . . . . . .5 5 5 5 5 5 5 5  . . . . . . . . . .",
" . . . . . . . . . . . . . . . . . . . . . . . . . . . . . . . . . .5 5 5 5  . . . . . . . .5 6 9 0 0 9 6 5  . . . . . . . . . .",
" . . . . . . . . . . . . . . . . . . . . . . . . . . . . . . . . . . . . . . . . . . . .5 5 5 9 r u u r 9 5  . . . . . . . . . .",
" . . . . . . . . . . . . . . . . . . . . . . . . . . . . . . . . . . . . . . . . . . . .5 5 5 0 u f f u 0 5  . . . . . . . . . .",
" . . . . . . . . . . . . . . . . . . . . . . . . . . . . . .5 5  . . . . . . . .5 5 5 5 5 5 4 9 y d d y 0 5  . . . . . . . . . .",
" . . . . . . . . . . . . . . . . . . . . . . . . . . . . . .5 5  . . . . . . . .5 6 9 0 0 0 9 w u d d y 0 5  . . . . . . . . . .",
" . . . . . . . . . . . . . . . . . . . . . . . . . . . . . . . . . . . . . .5 5 4 8 r u y y y u s d d y 0 5  . . . . . . . . . .",
" . . . . . . . . . . . . . . . . . . . . . . . . . . . . . . . . . . . . . .5 6 8 w i f d d d d d d d y 0 5  . . . . . . . . . .",
" . . . . . . . . . . . . . . . . . . . . . . . . . . . . . . . . . .5 5 5 5 4 8 r i a a a a d d d d d y 0 5  . . . . . . . . . .",
" . . . . . . . . . . . . . . . . . . . . . . . . . . . . . . . . . .5 6 9 0 9 w i h l x x l g d d d d y 0 5  . . . . . . . . . .",
" . . . . . . . . . . . . . . . . . . . . . . . . . . . . . . . . . .5 9 r u y u p k D I U F l a d d d y 0 5 5 5  . . . .5 5  . .",
" . . . . . . . . . . . . . . . . . . . . . . . . . . . . . . . . . .5 0 u f d g k n E ' Q F l a d d d y 0 5 5 5  . . . .5 5  . .",
" . . . . . . . . . . . . . . . . . . . . . . . . . . . . . .5 5 5 5 4 9 y d a k D E ` U b j g d d d d y 0 5 5 5  . .5 5  . . . .",
" . . . . . . . . . . . . . . . . . . . . . . . . . . . . . .5 6 9 0 9 w u g k n E { { U b j g d d d d y 0 5 5 5  . .5 5  . . . .",
" . . . . . . . . . . . . . . . . . . . . . . . . . .5 5 5 5 4 8 r u y y p k D E _ ' ' _ Q F l a d d f u 0 5 5 5  . . . . . . . .",
" . . . . . . . . . . . . . . . . . . . . . . . . . .0 0 0 0 9 w i h z c z n E { ' ' ' _ Q F l a d s i r 9 5 5 5  . . . . . . . .",
" . . . . . . . . . . . . . . . . . . . . . .5 5 4 9 t u y y y u p k D I P U _ ' ' ' { E n k g d f i w 8 6 5 5 5  . . . . . . . .",
" . . . . . . . . . . . . . . . . . . . . . .5 6 8 w i f d d d g k n E { { { ' ' ' _ E D k a d s i r 8 4 5 5 5 5  . . . . . . . .",
" . . . . . . . . . . . . . . . . . . . .5 5 4 8 r i s d d d a k D E _ ' ' ' ' ' { U n k g d d u q 7 6 5 5 5  . . . . . . . . . .",
" . . . . . . . . . . . . . . . . . . . .5 6 8 w i f d d d g k n E { ' ' ' ' ' ' { P z a d d d u q 7 6 5 5 5  . . . . . . . . . .",
" . . . . . . . . . . . . . . . . . . . .5 9 r i s d a a a k D E _ ' ' ' ' ' ' ' { P z a d d d s i r 9 5 5 5  . . . . . . . . . .",
" . . . . . . . . . . . . . . . . . . . .5 0 u f d g l x z n E { ' ' ' ' ' ' ' ' { U n k g d d d f u 0 5 5 5  . . . . . . . . . .",
" . . . . . . . . . . . . . . . . . .5 5 4 9 y d a k D I P U _ ' ' ' ' ' ' ' ' ' ' _ E D k a d d d y 9 4 5 5 5 5  . . . . . . . .",
" . . . . . . . . . . . . . . . . . .5 6 8 w u g k n E { { { ' ' ' ' ' ' ' ' ' ' ' ' { E n k g d d u w 8 6 5 5 5  . . . . . . . .",
" . . . . . . . . . . . . . . . .5 5 4 8 r i a l D E ] } ' ' ' ' } } ' ' } } ' ' } } ' _ ! G k a d s i r 8 4 5 5  . . . . . . . .",
" . . . . . . . . . . . . . . . .5 6 8 w i f a x T ( A A ^ ' ' ^ A A ^ ^ A A ^ ^ A A ^ ^ H N v k g d f i w 8 6 5  . . . . . . . .",
" . . . . . . . . . . . . . . . .5 9 r i s d a z R H 2 2 J | } A 2 2 J J 2 2 J J 2 2 J J 2 < B G l a d s i r 8 4 5 5  . . . . . .",
" . . . . . . . . . . . . . . . .5 0 u f d g k n ! C ; & m J ) V - - Z Z - - Z Z - - Z Z - - C W x a d d f i w 8 6 5  . . . . . .",
" . . . . . . . . . . . . . .5 5 5 0 y d a l D E ] V , @ = 3 L A : : S S : : S S : : S S : ; C R z a d d d s i r 9 5  . . . . . .",
" . . . . . . . . . . . . . .5 5 5 0 y d a x I { } V , .   = M M = = M M = = M M = = M M * : C ! n k g d d d f u 0 5  . . . . . .",
" . . . . . . . . . . . . . .5 5 5 0 y d a x P { } V , . o # ; ; # # ; ; # # ; ; # # ; ; @ , V ] E D l a d d f u 0 5  . . . . . .",
" . . . . . . . . . . . . . .5 5 5 0 y d a x P { } V , . o o . . o o . . o o . . o o . . . , V } { I x a d s i r 9 5  . . . . . .",
" . . . . . . . . . . . . . .5 5 5 0 y d a x P { } V , . o o o o o o o o o o o o o o o o . , V } { P x a d u w 8 6 5  . . . . . .",
" . . . . . . . . . . . . . .5 5 5 0 y d a x P { } V , . o o o o o o o o o o o o o o o o . , V } { P x a d y 9 4 5 5  . . . . . .",
" . . . . . . . . . . . . . . . .5 0 u f a x I { } V , . o o o o o o o o o o o o o o o o . , V } { P x a f u 0 5  . . . . . . . .",
" . . . . . . . . . . . . . . . .5 9 r i a l D E ] V , . o o o o o o o o o o o o o o o o . , V } { P x a i r 9 5  . . . . . . . .",
" . . . . . . . . . . . . . . . .5 6 8 w u g k n ! C :   o o o o o o o o o o o o o o o o . , V } { I c y w 8 6 5  . . . . . . . .",
" . . . . . . . . . . . . . . . .5 5 4 9 y d a z R H 3 = # o o o o o o o o o o o o o o o . , V ] E D z y 9 4 5 5  . . . . . . . .",
" . . . . . . . . . . . . . . . . . .5 0 u f a x Y / J m ; . o o o o o o o o o o o o o o . , C ! n k h u 0 5  . . . . . . . . . .",
" . . . . . . . . . . . . . . . . . .5 9 r i a x P { | Z , . o o o o o o o o o o o o o o . , C R z p u t 0 5  . . . . . . . . . .",
" . . . . . . . . . . . . . . . . . .5 6 8 w y c I { } V :   o o o o o o o o X X o o o o   : C R c y w 9  . . . . . . . . . . . .",
" . . . . . . . . . . . . . . . . . .5 5 4 9 y z D E ] A 3 = # o o o o o o + % % + o o # = 3 H R c y 9 4  . . . . . . . . . . . .",
" . . . . . . . . . . . . . . . . . . . .5 0 u h k n E ( K m =   o o o o X % e e % X . ; m J ( T c y 0 5  . . . . . . . . . . . .",
" . . . . . . . . . . . . . . . . . . . .5 0 t u p k D E [ K 3 = # o o o X % e e % X . , Z [ E D z y 0 5  . . . . . . . . . . . .",
" . . . . . . . . . . . . . . . . . . . . . .9 w u h k n E ( K m =   . . . O $ $ O .   : C ~ n k h u 0 5  . . . . . . . . . . . .",
" . . . . . . . . . . . . . . . . . . . . . .4 9 t u p k D E [ K 3 : , , , , > > , , : 1 B G k p u t 0 5  . . . . . . . . . . . .",
" . . . . . . . . . . . . . . . . . . . . . . . .9 w u h k n E ( H C C C C C C C C C C B v k h u w 9  . . . . . . . . . . . . . .",
" . . . . . . . . . . . . . . . . . . . . . . . .4 9 t u p k D T R R R R R R R R R R W G k p u t 9 4  . . . . . . . . . . . . . .",
" . . . . . . . . . . . . . . . . . . . . . . . . . .9 w u h z c c c x x x x x x x x c z h u w 9  . . . . . . . . . . . . . . . .",
" . . . . . . . . . . . . . . . . . . . . . . . . . .4 9 t u y y y y a a a a a a a a y y u t 9 4  . . . . . . . . . . . . . . . .",
" . . . . . . . . . . . . . . . . . . . . . . . . . . . .0 0 0 0 9 w i f d d d d f i w 9 0 0  . . . . . . . . . . . . . . . . . .",
" . . . . . . . . . . . . . . . . . . . . . . . . . . . .5 5 5 5 4 9 t u y y y y u t 9 4 5 5  . . . . . . . . . . . . . . . . . .",
" . . . . . . . . . . . . . . . . . . . . . . . . . . . . . . . . . .0 0 0 0 0 0 0 0  . . . . . . . . . . . . . . . . . . . . . .",
" . . . . . . . . . . . . . . . . . . . . . . . . . . . . . . . . . .5 5 5 5 5 5 5 5  . . . . . . . . . . . . . . . . . . . . . .",
" . . . . . . . . . . . . . . . . . . . . . . . . . . . . . . . . . . . . . . . . . . . . . . . . . . . . . . . . . . . . . . . .",
" . . . . . . . . . . . . . . . . . . . . . . . . . . . . . . . . . . . . . . . . . . . . . . . . . . . . . . . . . . . . . . . ."
};
