/* XPM */
static char *result[] = {
/* columns rows colors chars-per-pixel */
"64 64 101 2 ",
"   c #3B0001",
".  c #3C0101",
"X  c #3C0102",
"o  c #3C0202",
"O  c #3D0202",
"+  c #3E0202",
"@  c #3F0302",
"#  c #3E0303",
"$  c #3F0403",
"%  c #4C0A03",
"&  c #4E0B03",
"*  c #4D0B04",
"=  c #4F0C04",
"-  c #4B130C",
";  c #4C140D",
":  c #4C150D",
">  c #4C150E",
",  c #4D160E",
"<  c #4D170E",
"1  c #4D170F",
"2  c #4E180F",
"3  c #5D2919",
"4  c #5E2A19",
"5  c #5D2A1A",
"6  c #5E2B1B",
"7  c #E02707",
"8  c #E02807",
"9  c #E02907",
"0  c #E22D08",
"q  c #E22E08",
"w  c #E22E09",
"e  c #E22F09",
"r  c #E4340A",
"t  c #E5350A",
"y  c #E5350B",
"u  c #D95C15",
"i  c #DA5D15",
"p  c #EA6617",
"a  c #F56215",
"s  c #F66215",
"d  c #F56216",
"f  c #F66316",
"g  c #F66416",
"h  c #F86817",
"j  c #F86917",
"k  c #F86918",
"l  c #FA6D18",
"z  c #FA6E18",
"x  c #FA6E19",
"c  c #FA6F19",
"v  c #FA7019",
"b  c #FA701A",
"n  c #FA711A",
"m  c #F77421",
"M  c #FA7922",
"N  c #FA7923",
"B  c #FA7A23",
"V  c #FA7A24",
"C  c #FA7B24",
"Z  c #F7832C",
"A  c #F9852D",
"S  c #D4C072",
"D  c #D5C173",
"F  c #E6CB76",
"G  c #E6CC76",
"H  c #E4D37E",
"J  c #E4D47F",
"K  c #E5D47F",
"L  c #E5D57F",
"P  c #E6D67F",
"I  c #F6D377",
"U  c #F6D477",
"Y  c #F7D477",
"T  c #E5D680",
"R  c #E6D680",
"E  c #E6D780",
"W  c #E7D881",
"Q  c #F5DE80",
"!  c #F5DE81",
"~  c #F5DF81",
"^  c #F6DE80",
"/  c #F6DE81",
"(  c #F6DF81",
")  c #F5DF82",
"_  c #F6DF82",
"`  c #F5E082",
"'  c #F6E082",
"]  c #F6E083",
"[  c #F3E78A",
"{  c #F3E88A",
"}  c #F3E88B",
"|  c #F4E88A",
" . c #F5E88A",
".. c #F5E88B",
"X. c #F5E98B",
"o. c #F6E98B",
"O. c #F7EA8B",
"+. c #F5EA8C",
"@. c #F6EA8C",
"#. c #F7EB8C",
"$. c #000000",
/* pixels */
"$.$.$.$.$.$.$.$.$.$.$.$.$.$.$.$.$.$.$.$.$.$.$.$.$.$.$.$.$.$.$.$.$.$.$.$.$.$.$.$.$.$.$.$.$.$.$.$.$.$.$.$.$.$.$.$.$.$.$.$.$.$.$.$.",
"$.$.$.$.$.$.$.$.$.$.$.$.$.$.$.$.$.$.$.$.$.$.$.$.$.$.$.$.$.$.$.$.$.$.$.$.$.$.$.$.$.$.$.$.$.$.$.$.$.$.$.$.$.$.$.$.$.$.$.$.$.$.$.$.",
"$.$.$.$.$.$.$.$.$.$.$.$.$.$.$.$.$.$.$.$.$.$.$.$.$.$.$.$.$.$.$.$.$.$.$.$.$.$.$.$.$.$.$.$.$.$.$.$.$.$.$.$.8 8 $.$.$.$.$.$.$.$.$.$.",
"$.$.$.$.$.$.$.$.$.$.$.$.$.$.$.$.$.$.$.$.$.$.$.$.$.$.$.$.$.$.$.$.$.$.$.$.$.$.$.$.$.$.$.$.$.$.$.$.$.$.$.$.8 8 $.$.$.$.$.$.$.$.$.$.",
"$.$.$.$.$.$.$.$.$.$.$.$.$.$.$.$.$.$.$.$.$.$.$.$.$.$.$.$.$.$.$.$.$.$.$.$.$.$.$.$.$.$.8 8 $.$.$.$.$.$.$.$.$.$.8 8 $.$.$.$.$.$.$.$.",
"$.$.$.$.$.$.$.$.$.$.$.$.$.$.$.$.$.$.$.$.$.$.$.$.$.$.$.$.$.$.$.$.$.$.$.$.$.$.$.$.$.$.8 8 $.$.$.$.$.$.$.$.$.$.8 8 $.$.$.$.$.$.$.$.",
"$.$.$.$.$.$.$.$.$.$.$.$.$.$.$.$.$.$.$.$.$.$.$.$.$.$.$.$.$.$.$.$.8 8 $.$.$.$.$.$.$.$.$.$.$.$.$.$.$.$.$.$.$.$.$.$.$.$.$.$.$.$.$.$.",
"$.$.$.$.$.$.$.$.$.$.$.$.$.$.$.$.$.$.$.$.$.$.$.$.$.$.$.$.$.$.$.$.8 8 $.$.$.$.$.$.$.$.$.$.$.$.$.$.$.$.$.$.$.$.$.$.$.$.$.$.$.$.$.$.",
"$.$.$.$.$.$.$.$.$.$.$.$.$.$.$.$.$.$.$.$.$.$.$.$.$.$.$.$.$.$.$.$.$.$.$.$.$.$.$.$.$.$.$.$.8 8 8 8 8 8 8 8 $.$.$.$.$.$.$.$.$.$.$.$.",
"$.$.$.$.$.$.$.$.$.$.$.$.$.$.$.$.$.$.$.$.$.$.$.$.$.$.$.$.$.$.$.$.$.$.$.$.$.$.$.$.$.$.$.$.8 8 8 8 8 8 8 8 $.$.$.$.$.$.$.$.$.$.$.$.",
"$.$.$.$.$.$.$.$.$.$.$.$.$.$.$.$.$.$.$.$.$.$.$.$.$.$.$.$.$.$.$.$.$.$.$.$.8 8 8 8 8 8 8 8 8 8 8 8 8 8 8 8 8 8 8 8 $.$.$.$.$.$.$.$.",
"$.$.$.$.$.$.$.$.$.$.$.$.$.$.$.$.$.$.$.$.$.$.$.$.$.$.$.$.$.$.$.$.$.$.$.$.8 8 8 8 8 8 8 9 w e e e e e e w 9 8 8 8 $.$.$.$.$.$.$.$.",
"$.$.$.$.$.$.$.$.$.$.$.$.$.$.$.$.$.$.$.$.$.$.$.$.$.$.$.$.$.$.$.$.$.$.8 8 8 8 8 8 8 8 7 q d j h h h h j d q 7 8 8 8 8 $.$.$.$.$.$.",
"$.$.$.$.$.$.$.$.$.$.$.$.$.$.$.$.$.$.$.$.$.$.$.$.$.$.$.$.$.$.$.$.$.$.8 8 8 9 w e e e w t k n B C C B n k t q 9 8 8 8 $.$.$.$.$.$.",
"$.$.$.$.$.$.$.$.$.$.$.$.$.$.$.$.$.$.$.$.$.$.$.$.$.$.$.$.$.$.$.$.8 8 8 8 7 q d j h h h h l M I ! ! I M l k d w 8 8 8 $.$.$.$.$.$.",
"$.$.$.$.$.$.$.$.$.$.$.$.$.$.$.$.$.$.$.$.$.$.$.$.$.$.$.$.$.$.$.$.8 8 8 9 q t k n B C C C B A ) +.+.) A M n j e 8 8 8 $.$.$.$.$.$.",
"$.$.$.$.$.$.$.$.$.$.$.$.$.$.$.$.$.$.$.$.$.$.$.$.$.$.$.$.$.$.8 8 8 8 7 q d k l M I ! Q Q Q ~ ..+.+.X.` U B h w 7 8 8 8 8 $.$.$.$.",
"$.$.$.$.$.$.$.$.$.$.$.$.$.$.$.$.$.$.$.$.$.$.$.$.$.$.$.$.$.$.8 8 8 9 q t k n M A ) +.+.+.+...~ Q Q Q ~ I m s r q 9 8 8 8 $.$.$.$.",
"$.$.$.$.$.$.$.$.$.$.$.$.$.$.$.$.$.$.$.$.$.$.$.$.$.$.8 8 8 8 8 8 7 q d k l M I )  .X.X.X.+.) A B C C C m y r g f w 8 8 8 $.$.$.$.",
"$.$.$.$.$.$.$.$.$.$.$.$.$.$.$.$.$.$.$.$.$.$.$.$.$.$.8 8 8 8 8 9 q t k n M A ) +.X.X.X. .) I M l h h h a 0 0 f f w 8 8 8 $.$.$.$.",
"$.$.$.$.$.$.$.$.$.$.$.$.$.$.$.$.$.$.$.$.$.$.8 8 8 8 8 8 8 8 7 q d k l M I )  .X.X.X.+.~ A M b j t w e w 9 9 w w 9 8 8 8 $.$.$.$.",
"$.$.$.$.$.$.$.$.$.$.$.$.$.$.$.$.$.$.$.$.$.$.8 8 8 9 w e e e w t k n M A ) +.X.X.X.X.+.Q B z c h w 7 8 8 8 8 8 8 8 8 8 8 $.$.$.$.",
"$.$.$.$.$.$.$.$.$.$.$.$.$.$.$.$.$.$.$.$.$.$.8 8 7 q d j h h h j l M I )  .X.X.X.X.X.+.! V z c h e 8 $.$.8 8 8 8 8 8 8 8 8 8 $.$.",
"$.$.$.$.$.$.$.$.$.$.$.$.$.$.$.$.$.$.$.$.$.$.8 9 q t k v c c c b M A ) +.X.X.X.X.X. .) I N z c h e 8 $.$.8 8 8 8 8 8 8 8 8 8 $.$.",
"$.$.$.$.$.$.$.$.$.$.$.$.$.$.$.$.$.$.$.$.8 8 7 q d k x c c c z M I )  .X.X.X.X.X.+.~ A M b c c h e 8 $.$.$.$.$.$.$.$.8 8 $.$.$.$.",
"$.$.$.$.$.$.$.$.$.$.$.$.$.$.$.$.$.$.$.$.8 9 q t k v c c c b M A ) +.X.X.X.X.X.X.+.Q B z c c c h e 8 $.$.$.$.$.$.$.$.8 8 $.$.$.$.",
"$.$.$.$.$.$.$.$.$.$.$.$.$.$.$.$.$.$.$.$.8 w d k x c z z z M I )  .X.X.X.X.X.X.X.+.Q B z c c c h w 7 8 8 $.$.$.$.$.$.$.$.$.$.$.$.",
"$.$.$.$.$.$.$.$.$.$.$.$.$.$.$.$.$.$.$.$.8 e j v c b N V B A ) +.X.X.X.X.X.X.X.X.+.~ A M b c c j t q 9 8 $.$.$.$.$.$.$.$.$.$.$.$.",
"$.$.$.$.$.$.$.$.$.$.$.$.$.$.$.$.$.$.8 8 7 w h c z M I ! Q ~  .X.X.X.X.X.X.X.X.X.X. .) I M z c x k d w 8 8 8 $.$.$.$.$.$.$.$.8 8 ",
"$.$.$.$.$.$.$.$.$.$.$.$.$.$.$.$.$.$.8 9 q t j b M A ) +.+.+.X.X.X.X.X.X.X.X.X.X.X.X.+.) A M b c v j e 8 8 8 $.$.$.$.$.$.$.$.8 8 ",
"$.$.$.$.$.$.$.$.$.$.$.$.$.$.$.$.8 8 7 q d k z N I ) o.@.X.X.X.X.@.@.X.X.@.@.X.X.@.@.X. .' Y M z c h w 7 8 8 $.$.$.$.$.$.$.$.8 8 ",
"$.$.$.$.$.$.$.$.$.$.$.$.$.$.$.$.8 9 q t k v z V / } L L [ X.X.[ L L [ [ L L [ [ L L [ [ T F Z M b j t q 9 8 $.$.$.$.$.$.$.$.8 8 ",
"$.$.$.$.$.$.$.$.$.$.$.$.$.$.$.$.8 w d k x c z B ( T 5 5 R #.@.L 5 5 R R 5 5 R R 5 5 R R 5 3 G Y N z k d w 8 8 8 $.$.$.$.$.$.$.$.",
"$.$.$.$.$.$.$.$.$.$.$.$.$.$.$.$.8 e j v c b M A ' J , - S R | H > > K K > > K K > > K K > > J _ V z v j e 8 8 8 $.$.$.$.$.$.$.$.",
"$.$.$.$.$.$.$.$.$.$.$.$.$.$.8 8 8 e h c z N I ) o.H 2 # : 6 W L < < P P < < P P < < P P < , J ( B z c h w 7 8 8 8 8 $.$.$.$.$.$.",
"$.$.$.$.$.$.$.$.$.$.$.$.$.$.8 8 8 e h c z V ! +.@.H 2 .   : D D : : D D : : D D : : D D ; < J ' A M b j t q 9 8 8 8 $.$.$.$.$.$.",
"$.$.$.$.$.$.$.$.$.$.$.$.$.$.8 8 8 e h c z V Q +.@.H 2 . O $ , , $ $ , , $ $ , , $ $ , , # 2 H o.) I N z k d w 8 8 8 $.$.$.$.$.$.",
"$.$.$.$.$.$.$.$.$.$.$.$.$.$.8 8 8 e h c z V Q +.@.H 2 . O O . . O O . . O O . . O O . . . 2 H @.+.! V z v j e 8 8 8 $.$.$.$.$.$.",
"$.$.$.$.$.$.$.$.$.$.$.$.$.$.8 8 8 e h c z V Q +.@.H 2 . O O O O O O o o O O O O O O o o . 2 H @.+.Q V z c h e 8 8 8 $.$.$.$.$.$.",
"$.$.$.$.$.$.$.$.$.$.$.$.$.$.8 8 8 e h c z V Q +.@.H 2 . O O O O O @ * * @ O O O O @ * * + 2 H @.+.Q V z c h e 8 8 8 $.$.$.$.$.$.",
"$.$.$.$.$.$.$.$.$.$.$.$.$.$.$.$.8 e j v z V ! +.@.H 2 . O O O O o * u u * o O O o * u u % 1 H @.+.Q V z v j e 8 8 8 $.$.$.$.$.$.",
"$.$.$.$.$.$.$.$.$.$.$.$.$.$.$.$.8 w d k z N I ) o.H 2 . O O O O X = p p = X O O X = p p & 1 H @.+.Q V z k d w 8 8 8 $.$.$.$.$.$.",
"$.$.$.$.$.$.$.$.$.$.$.$.$.$.$.$.8 9 q t j b M A ' J <   O O O O X = p p = X O O X = p p & 1 H @.+.! C h t q 9 8 $.$.$.$.$.$.$.$.",
"$.$.$.$.$.$.$.$.$.$.$.$.$.$.$.$.8 8 7 w h c z B ( T 6 : $ O O O o * u u * o O O o * u u % 1 H o.) I B h w 7 8 8 $.$.$.$.$.$.$.$.",
"$.$.$.$.$.$.$.$.$.$.$.$.$.$.$.$.$.$.8 e j v z V ^ { R S , . O O O @ * * @ O O O O @ * * + 2 J ' A M n j e 8 $.$.$.$.$.$.$.$.$.$.",
"$.$.$.$.$.$.$.$.$.$.$.$.$.$.$.$.$.$.8 w d k z V Q +.#.K 2 . O O O O o o O O O O O O o o . 2 J ( B l j f e 8 $.$.$.$.$.$.$.$.$.$.",
"$.$.$.$.$.$.$.$.$.$.$.$.$.$.$.$.$.$.8 9 q t h C ! +.@.H <   O O O O O O O O o o O O O O   < J ( C h t w $.$.$.$.$.$.$.$.$.$.$.$.",
"$.$.$.$.$.$.$.$.$.$.$.$.$.$.$.$.$.$.8 8 7 w h B I ) o.L 6 : $ O O O O O O @ * * @ O O $ : 6 T ( C h w 7 $.$.$.$.$.$.$.$.$.$.$.$.",
"$.$.$.$.$.$.$.$.$.$.$.$.$.$.$.$.$.$.$.$.8 e j n M A ) } E S :   O O O O o * i i * o . , S R } / C h e 8 $.$.$.$.$.$.$.$.$.$.$.$.",
"$.$.$.$.$.$.$.$.$.$.$.$.$.$.$.$.$.$.$.$.8 e f j l M I ) O.E 6 : $ O O O o * i i * o . 2 K O.) I B h e 8 $.$.$.$.$.$.$.$.$.$.$.$.",
"$.$.$.$.$.$.$.$.$.$.$.$.$.$.$.$.$.$.$.$.$.$.w t j n M A ) } E S :   . . . + % % + .   < J ] A M n j e 8 $.$.$.$.$.$.$.$.$.$.$.$.",
"$.$.$.$.$.$.$.$.$.$.$.$.$.$.$.$.$.$.$.$.$.$.7 w f j l M I ) O.E 6 < 2 2 2 2 1 1 2 2 < 4 G Y M l j f e 8 $.$.$.$.$.$.$.$.$.$.$.$.",
"$.$.$.$.$.$.$.$.$.$.$.$.$.$.$.$.$.$.$.$.$.$.$.$.w t j n M A ) } T J J J J J J J J J J G Z M n j t w $.$.$.$.$.$.$.$.$.$.$.$.$.$.",
"$.$.$.$.$.$.$.$.$.$.$.$.$.$.$.$.$.$.$.$.$.$.$.$.7 w f j l M I / ( ( ( ( ( ( ( ( ( ( _ Y M l j f w 7 $.$.$.$.$.$.$.$.$.$.$.$.$.$.",
"$.$.$.$.$.$.$.$.$.$.$.$.$.$.$.$.$.$.$.$.$.$.$.$.$.$.w t j n B C C C V V V V V V V V C B n j t w $.$.$.$.$.$.$.$.$.$.$.$.$.$.$.$.",
"$.$.$.$.$.$.$.$.$.$.$.$.$.$.$.$.$.$.$.$.$.$.$.$.$.$.7 w f j h h h h z z z z z z z z h h j f w 7 $.$.$.$.$.$.$.$.$.$.$.$.$.$.$.$.",
"$.$.$.$.$.$.$.$.$.$.$.$.$.$.$.$.$.$.$.$.$.$.$.$.$.$.$.$.e e e e w t k v c c c c v k t w e e $.$.$.$.$.$.$.$.$.$.$.$.$.$.$.$.$.$.",
"$.$.$.$.$.$.$.$.$.$.$.$.$.$.$.$.$.$.$.$.$.$.$.$.$.$.$.$.8 8 8 8 7 w f j h h h h j f w 7 8 8 $.$.$.$.$.$.$.$.$.$.$.$.$.$.$.$.$.$.",
"$.$.$.$.$.$.$.$.$.$.$.$.$.$.$.$.$.$.$.$.$.$.$.$.$.$.$.$.$.$.$.$.$.$.e e e e e e e e $.$.$.$.$.$.$.$.$.$.$.$.$.$.$.$.$.$.$.$.$.$.",
"$.$.$.$.$.$.$.$.$.$.$.$.$.$.$.$.$.$.$.$.$.$.$.$.$.$.$.$.$.$.$.$.$.$.8 8 8 8 8 8 8 8 $.$.$.$.$.$.$.$.$.$.$.$.$.$.$.$.$.$.$.$.$.$.",
"$.$.$.$.$.$.$.$.$.$.$.$.$.$.$.$.$.$.$.$.$.$.$.$.$.$.$.$.$.$.$.$.$.$.$.$.$.$.$.$.$.$.$.$.$.$.$.$.$.$.$.$.$.$.$.$.$.$.$.$.$.$.$.$.",
"$.$.$.$.$.$.$.$.$.$.$.$.$.$.$.$.$.$.$.$.$.$.$.$.$.$.$.$.$.$.$.$.$.$.$.$.$.$.$.$.$.$.$.$.$.$.$.$.$.$.$.$.$.$.$.$.$.$.$.$.$.$.$.$.",
"$.$.$.$.$.$.$.$.$.$.$.$.$.$.$.$.$.$.$.$.$.$.$.$.$.$.$.$.$.$.$.$.$.$.$.$.$.$.$.$.$.$.$.$.$.$.$.$.$.$.$.$.$.$.$.$.$.$.$.$.$.$.$.$.",
"$.$.$.$.$.$.$.$.$.$.$.$.$.$.$.$.$.$.$.$.$.$.$.$.$.$.$.$.$.$.$.$.$.$.$.$.$.$.$.$.$.$.$.$.$.$.$.$.$.$.$.$.$.$.$.$.$.$.$.$.$.$.$.$."
};
