/* XPM */
static char *ce751d88e231437382c80034b1cd0845FntZnQNO9XGQfIb2[] = {
/* columns rows colors chars-per-pixel */
"64 64 177 2 ",
"   c #000000",
".  c #131919",
"X  c #1C1C1C",
"o  c #201D1E",
"O  c #1B221F",
"+  c #37231F",
"@  c #1A1F21",
"#  c #171F21",
"$  c #281F23",
"%  c #361F27",
"&  c #1D2121",
"*  c #222222",
"=  c #2B2325",
"-  c #2B2B2B",
";  c #2A272A",
":  c #312425",
">  c #392725",
",  c #3C2825",
"<  c #342329",
"1  c #3C232B",
"2  c #2B3030",
"3  c #363635",
"4  c #3B3D3C",
"5  c #581F33",
"6  c #681E37",
"7  c #452A26",
"8  c #4D2C27",
"9  c #42242D",
"0  c #4A2A29",
"q  c #4D272E",
"w  c #512D26",
"e  c #532D28",
"r  c #5F2D2E",
"t  c #4D2432",
"y  c #422B33",
"u  c #542336",
"i  c #5A2536",
"p  c #5D2B30",
"a  c #5E2538",
"s  c #51363E",
"d  c #5E3E39",
"f  c #613228",
"g  c #713227",
"h  c #74352B",
"j  c #7A362B",
"k  c #7D392B",
"l  c #632539",
"z  c #6C263D",
"x  c #6A2935",
"c  c #722635",
"v  c #71263E",
"b  c #772B3B",
"n  c #762641",
"m  c #7C2742",
"M  c #7E2B43",
"N  c #3F4443",
"B  c #454443",
"V  c #484745",
"C  c #474847",
"Z  c #4B4D4B",
"A  c #484B48",
"S  c #4B504F",
"D  c #50504E",
"F  c #565654",
"G  c #565856",
"H  c #595956",
"J  c #504849",
"K  c #63454E",
"L  c #724E47",
"P  c #734F48",
"I  c #63514D",
"U  c #6B554F",
"Y  c #745049",
"T  c #6E5852",
"R  c #685551",
"E  c #715953",
"W  c #674952",
"Q  c #706E6A",
"!  c #72706C",
"~  c #8A362A",
"^  c #85362D",
"/  c #913D2F",
"(  c #863531",
")  c #8B3932",
"_  c #853830",
"`  c #9D383A",
"'  c #943738",
"]  c #892B3E",
"[  c #AE3B3D",
"{  c #A63B39",
"}  c #B23B3F",
"|  c #9E4130",
" . c #96483B",
".. c #994A3D",
"X. c #A64536",
"o. c #AD4333",
"O. c #BD4734",
"+. c #BE4834",
"@. c #B8473A",
"#. c #BC503E",
"$. c #C44834",
"%. c #CB453D",
"&. c #CA473A",
"*. c #D94731",
"=. c #D44D37",
"-. c #DC4C35",
";. c #D3473E",
":. c #D44A3A",
">. c #DB4E38",
",. c #DE5037",
"<. c #DF5038",
"1. c #E14E36",
"2. c #E24F38",
"3. c #E05137",
"4. c #E15038",
"5. c #822745",
"6. c #842A44",
"7. c #8B2946",
"8. c #8F2849",
"9. c #9C274F",
"0. c #94294A",
"q. c #9D294D",
"w. c #942C46",
"e. c #963042",
"r. c #9F2751",
"t. c #A32B4D",
"y. c #A92F4B",
"u. c #A53343",
"i. c #AB3345",
"p. c #AA314A",
"a. c #AB3445",
"s. c #B43646",
"d. c #BC3B44",
"f. c #B3324C",
"g. c #B93746",
"h. c #A22950",
"j. c #C23D43",
"k. c #8A4057",
"l. c #BA4B5D",
"z. c #AD4A69",
"x. c #C64042",
"c. c #C94042",
"v. c #D04440",
"b. c #D14D44",
"n. c #DC6C5A",
"m. c #E26C5C",
"M. c #E27764",
"N. c #E57966",
"B. c #E77C68",
"V. c #8C8985",
"C. c #978E8D",
"Z. c #94918C",
"A. c #9D918B",
"S. c #9B9692",
"D. c #A39790",
"F. c #B49A9D",
"G. c #A8A59F",
"H. c #A2A49E",
"J. c #ABA8A2",
"K. c #B6ADA6",
"L. c #B1AEA8",
"P. c #B9B0A9",
"I. c #D2ACA1",
"U. c #D6B0A4",
"Y. c #E5A5A2",
"T. c #C6C3BC",
"R. c #C8C6BF",
"E. c #CDCBC4",
"W. c #D1CDC5",
"Q. c #D5D1C9",
"!. c #E6C4C8",
"~. c #F5CEC1",
"^. c #F7D3C5",
"/. c #FAD4C6",
"(. c #FED9CB",
"). c #FEFEF4",
"_. c #FFFFFA",
/* pixels */
"                                                                                                                                ",
"                                                                                                                                ",
"                                                                                                                                ",
"                                                                                                                                ",
"                                                                                                                                ",
"                                                                                                                                ",
"                                                                                                                                ",
"                                                                                                                                ",
"                                                                                                                                ",
"                                                                                                                                ",
"                                                                                                                                ",
"                                                                                                                                ",
"                                                                                                                                ",
"                                                                                                                                ",
"                                                                * *                                                             ",
"                                                                * *                                                             ",
"                                                        * *     * *             * *                                             ",
"                                                      * * *     * *             * *                                             ",
"                                                    * * * *     * *     * *     * *                                             ",
"                                                    * * & & # & & & O & & & # O & &                                             ",
"                                                    * * = : : = = = = = : : = : = =                                             ",
"                                                    * , h / / ( c 6 6 c ( / / _ c a 1                                           ",
"                                * *                 & 8 o.3.-.b.l.z.z.l.b.-.4.b.l.k.y X                                         ",
"                                * * * *             & w o.1.1.m.Y.!.!.Y.m.-.-.m.Y.F.J X                                         ",
"                                * * * *             & 8 o.-.-.M.^.)._.^.M.*.*.N.(.E.F X                                         ",
"                * *                 * * * *         & 8 o.1.-.M.~.).).~.M.*.*.N.~.E.F X     * *                                 ",
"                * * *             * * * * * *     & & 8 o.-.-.M.~.).).~.M.*.*.N.^.R.F X     * * *                               ",
"                * * * *         * * * * * * * * * & & 8 o.-.-.M.~.).).~.M.*.-.N.^.R.F X     * * * *                             ",
"                * * * * * * * * * * * O & * * * * & & 8 o.>.-.M.~.).).~.M.*.*.B.^.R.F X X & & * * *                             ",
"                * * * * * * * * * * ; : : = * * = = * 8 o.1.-.M.~.).).^.M.*.*.B.^.E.H o * : : = * *                             ",
"                  * * * * * & & * < l n n a = < a l < 0 o.-.-.M.^._._.^.B.*.*.B.(.E.F % i n n a < & *                           ",
"                    * * * = < < * 9 ] f.f.e.f a 8.5.1 0 o.1.1.n.I.E.E.I.n.-.-.n.U.H.A 1 ] f.p.e.i < * *                         ",
"                        * 1 v z < 7 { ;.;.%.@.o.y.m 1 0 o.2.3.#.P S Z Y #.2.2.#.P B - 0 X.;.;.d.e.n < @ & *                     ",
"                        & 9 6.0.h k +.,.<.>.2.;.j.e.a p ^ | | j > . . + h | | j + o % x @.4.2.:.j.' 9 * * *                     ",
"                        & 9 m p.@.&.=.,.>.>.,.,.=.%.u.M q > > : = o * = : > , : * 1 n i.%.-.>.>.:.o.8 & & *                     ",
"                      * * = t b a.j.d.d.d.x.%.,.>.:.x.u.x u u u u a a i u u u i u b u.j.:.>.>.>.2.o.e & * *                     ",
"                * * * * * * = q 7.t.y.y.y.s.%.,.>.>.>.%.i.q.q.t.q.t.q.q.q.t.q.q.t.i.%.>.>.>.>.,.>.o.8 & & *                     ",
"                  * * * * < i M 0.y.d.j.c.c.=.<.>.4.>.-.v.x.x.x.%.j.x.%.%.j.j.%.j.%.-.>.,.2.3.3.2.@.8 & &                       ",
"                    * * & 1 v 0.9.u.} $.@.$.>.:.$.$.=.=.$.$.=.=.$.$.=.=.$.$.=.=.$.$.=.=.$.O.+.$.$./ 7 &                         ",
"                        * = 1 a 8.e.x w w j +.+.h h O.O.g g O.O.g g O.O.g g $.O.g g O.$.g 7 w e e 7 : *                         ",
"                        * * & < l z < & # , ) _ , , ^  .T T .. .U U  . .T T  . .U U  . .E S 2 O & & * *                         ",
"                            * * < ; * * * = > > = * + U P.K.I I K.K.I I K.K.I I K.K.I I K.K.D O @ *                             ",
"                              * O & * * * * O O * & O B V.V.4 G Q.Q.F 4 V.V.4 F Q.Q.F 4 V.V.B O $                               ",
"                    * *             * * * * * * * * * * 2 - * F T.T.F & - - * H T.T.F * - - ; *                                 ",
"                    * * * * *       * * * * * * * * * * X X . 3 Q Q 4 X X X o 4 ! Q 3 X . X o *                                 ",
"                    * * * * * *     * * * * * * * * * * o - 3 3 - * * o * o o o * - 3 3 - o * o                                 ",
"                        * * * * * * * * * * * * * o o . X V Z.Z.B X X X o * O X X B Z.Z.V X X X *                               ",
"                        * * * * * * * * * * * * * - V B - H W.W.H ; B B 2 - V B ; F E.W.H ; B V - *                             ",
"                * * * * * * * * * * * * & * * @ X D J.J.C F E.E.F V J.J.A A G.G.B F E.E.H V G.J.Z o * *                         ",
"                * * * * * * * & * * & = 9 1 = $ % W D.D.Y L A.A.L P D.D.P Y D.D.Y L A.C.K K D.Z.V X O *                         ",
"                    * * * * * * * * * 9 m b 1 1 v M s d X.X.d d X.X.d d X.X.d d X.X.d s M 6.s 3 ; * * *                         ",
"                      * * = u t = : f ) } } ) ) s.a.^ ~ $.$.~ ~ $.$.~ ~ $.$.~ ~ $.$.~ ^ [ u.x u i t = *                         ",
"                        & 9 M 6.9 e { =.:.=.&.=.=.=.=.=.=.>.=.=.>.>.=.=.=.>.=.=.>.>.=.=.>.%.a.q.t.b 1 &                         ",
"                        & 9 6.q.m M u.d.g.g.g.j.:.,.4.>.>.<.<.<.>.>.2.>.>.>.,.>.>.>.<.>.<.:.c.x.j.{ 0 &                         ",
"                        O 1 z 0.q.q.q.q.q.t.y.s.;.,.,.>.>.>.;.=.=.,.>.>.>.>.=.>.>.>.>.>.>.=.>.,.2.o.0 &                         ",
"                        * = < i 7.h.h.9.q.p.d.;.=.-.,.>.<.%.g.d.%.<.-.>.>.>.>.>.>.>.<.>.>.>.>.<.2.o.8 &                         ",
"                        * = < i 7.r.q.q.q.p.d.%.x.%.%.%.%.d.y.y.j.%.c.%.>.,.,.=.%.%.%.%.>.,.,.,.<.o.8 &                         ",
"                * * * * & 1 v 0.q.q.q.r.r.t.y.y.y.y.y.y.y.y.q.t.y.p.y.s.%.,.,.%.s.t.t.s.&.,.,.,.>.o.8 &                         ",
"                  * * * * < a M q.h.t.t.t.9.h.h.t.r.r.q.9.q.r.q.9.9.9.y.d.x.x.d.y.r.r.y.d.x.x.c.c.` 0 & &                       ",
"                    * * * * = 9 m q.q.q.q.q.q.0.q.q.q.q.r.q.t.q.r.q.q.q.t.q.q.q.q.q.9.q.q.q.q.q.t.6.9 & * *                     ",
"                      * * & & = t a a a i a i i u z 0.h.h.q.q.q.q.h.y.8.z i u i a i i a i i i i i u 1                           ",
"                        * * * * * * * * * * * * * 1 M 0.q.r.t.r.r.q.0.M 1 * * * * * * * * * * * * *                             ",
"                                                    9 a 7.h.q.r.t.7.a 9                                                         ",
"                                                    & 1 m t.h.h.h.m 1 &                                                         "
};