/* XPM */
static char *result[] = {
/* columns rows colors chars-per-pixel */
"64 64 98 2 ",
"   c #3B0001",
".  c #3C0101",
"X  c #3C0102",
"o  c #3C0202",
"O  c #3D0202",
"+  c #3E0202",
"@  c #3F0302",
"#  c #3E0303",
"$  c #3F0403",
"%  c #4C0A03",
"&  c #4E0B03",
"*  c #4D0B04",
"=  c #4F0C04",
"-  c #4B130C",
";  c #4C140D",
":  c #4C150D",
">  c #4C150E",
",  c #4D160E",
"<  c #4D170E",
"1  c #4D170F",
"2  c #4E180F",
"3  c #5E2A19",
"4  c #5D2A1A",
"5  c #5E2B1B",
"6  c #E02707",
"7  c #E02807",
"8  c #E02907",
"9  c #E22E08",
"0  c #E22E09",
"q  c #E22F09",
"w  c #E5350A",
"e  c #E5360B",
"r  c #D95C15",
"t  c #DA5D15",
"y  c #EA6617",
"u  c #F56215",
"i  c #F56216",
"p  c #F66316",
"a  c #F86716",
"s  c #F86817",
"d  c #F86917",
"f  c #F86918",
"g  c #FA6D18",
"h  c #FA6E18",
"j  c #FA6E19",
"k  c #FA6F19",
"l  c #FA7019",
"z  c #FA701A",
"x  c #FA711A",
"c  c #F77321",
"v  c #F77421",
"b  c #FA7922",
"n  c #FA7923",
"m  c #FA7A23",
"M  c #FA7A24",
"N  c #FA7B24",
"B  c #F7832C",
"V  c #F9852D",
"C  c #F9852E",
"Z  c #D4C072",
"A  c #D5C173",
"S  c #E6CC76",
"D  c #E4D37E",
"F  c #E4D47F",
"G  c #E5D47F",
"H  c #E5D57F",
"J  c #E6D67F",
"K  c #F6D376",
"L  c #F6D377",
"P  c #F6D477",
"I  c #F7D477",
"U  c #E5D680",
"Y  c #E6D680",
"T  c #E6D780",
"R  c #E7D881",
"E  c #F5DE80",
"W  c #F5DE81",
"Q  c #F5DF81",
"!  c #F6DE80",
"~  c #F6DE81",
"^  c #F6DF81",
"/  c #F5DF82",
"(  c #F6DF82",
")  c #F5E082",
"_  c #F6E082",
"`  c #F6E083",
"'  c #F3E78A",
"]  c #F3E88A",
"[  c #F3E88B",
"{  c #F4E88A",
"}  c #F5E88A",
"|  c #F5E98B",
" . c #F6E98B",
".. c #F7EA8B",
"X. c #F5EA8C",
"o. c #F6EA8C",
"O. c #F7EB8C",
"+. c #000000",
/* pixels */
"+.+.+.+.+.+.+.+.+.+.+.+.+.+.+.+.+.+.+.+.+.+.+.+.+.+.+.+.+.+.+.+.+.+.+.+.+.+.+.+.7 7 +.+.+.+.+.+.+.+.+.+.+.+.+.+.+.+.+.+.+.+.+.+.",
"+.+.+.+.+.+.+.+.+.+.+.+.+.+.+.+.+.+.+.+.+.+.+.+.+.+.+.+.+.+.+.+.+.+.+.+.+.+.+.+.7 7 +.+.+.+.+.+.+.+.+.+.+.+.+.+.+.+.+.+.+.+.+.+.",
"+.+.+.+.+.+.+.+.+.+.+.+.+.+.+.+.+.+.+.+.+.+.+.+.+.+.+.+.+.+.+.+.+.+.7 7 +.+.+.+.+.+.+.+.+.+.+.+.+.+.+.+.+.+.+.+.+.+.+.+.+.+.+.+.",
"+.+.+.+.+.+.+.+.+.+.+.+.+.+.+.+.+.+.+.+.+.+.+.+.+.+.+.+.+.+.+.+.+.+.7 7 +.+.+.+.+.+.+.+.+.+.+.+.+.+.+.+.+.+.+.+.+.+.+.+.+.+.+.+.",
"+.+.+.+.+.+.+.+.+.+.+.+.+.+.+.+.+.+.+.+.+.+.+.+.+.+.+.+.+.+.+.+.7 7 7 7 +.+.+.+.+.+.+.+.7 7 7 7 +.+.+.+.+.+.+.+.+.+.+.+.+.+.+.+.",
"+.+.+.+.+.+.+.+.+.+.+.+.+.+.+.+.+.+.+.+.+.+.+.+.+.+.+.+.+.+.+.+.7 7 7 7 +.+.+.+.+.+.+.+.7 7 7 7 +.+.+.+.+.+.+.+.+.+.+.+.+.+.+.+.",
"+.+.+.+.+.+.+.+.+.+.+.+.+.+.+.+.+.+.+.+.+.+.+.+.7 7 +.+.+.+.+.+.7 7 7 7 7 7 +.+.+.+.+.+.+.+.7 7 7 7 +.+.+.+.+.+.+.+.+.+.+.+.+.+.",
"+.+.+.+.+.+.+.+.+.+.+.+.+.+.+.+.+.+.+.+.+.+.+.+.7 7 +.+.+.+.+.+.7 7 7 7 7 7 +.+.+.+.+.+.+.+.7 7 7 7 +.+.+.+.+.+.+.+.+.+.+.+.+.+.",
"+.+.+.+.+.+.+.+.+.+.+.+.+.+.+.+.+.+.+.+.+.+.+.+.+.+.+.+.+.+.7 7 7 7 7 7 7 7 7 7 +.+.+.+.+.+.7 7 7 7 7 7 7 7 +.+.+.+.+.+.+.+.+.+.",
"+.+.+.+.+.+.+.+.+.+.+.+.+.+.+.+.+.+.+.+.+.+.+.+.+.+.+.+.+.+.7 8 0 q q 0 8 7 7 7 +.+.+.+.+.+.7 7 7 7 7 7 7 7 +.+.+.+.+.+.+.+.+.+.",
"+.+.+.+.+.+.+.+.+.+.+.+.+.+.+.+.+.+.+.+.+.+.+.+.+.+.+.+.7 7 7 0 i d s u 9 6 7 7 7 7 +.+.+.+.+.+.+.+.7 7 7 7 +.+.+.+.+.+.+.+.+.+.",
"+.+.+.+.+.+.+.+.+.+.+.+.+.+.+.+.+.+.+.+.+.+.+.+.+.+.+.+.7 7 7 q d x m v e 9 8 7 7 7 +.+.+.+.+.+.+.+.7 7 7 7 +.+.+.+.+.+.+.+.+.+.",
"+.+.+.+.+.+.+.+.+.+.+.+.+.+.+.+.+.+.+.+.+.+.+.+.+.+.7 7 7 7 6 0 a b P L v u 0 7 7 7 +.+.+.+.+.+.+.+.+.+.+.+.+.+.+.+.+.+.+.+.+.+.",
"+.+.+.+.+.+.+.+.+.+.+.+.+.+.+.+.+.+.+.+.+.+.+.+.+.+.7 7 7 8 9 e c C ) Q N s q 7 7 7 +.+.+.+.+.+.+.+.+.+.+.+.+.+.+.+.+.+.+.+.+.+.",
"+.+.+.+.+.+.+.+.+.+.+.+.+.+.7 7 +.+.+.+.+.+.+.+.+.+.7 7 6 9 u v K / | E m a 0 6 7 7 7 7 +.+.+.+.+.+.+.+.+.+.+.+.+.+.+.+.+.+.+.+.",
"+.+.+.+.+.+.+.+.+.+.+.+.+.+.7 7 +.+.+.+.+.+.+.+.+.+.7 8 9 w d N W X.X.Q V c e 9 8 7 7 7 +.+.+.+.+.+.+.+.+.+.+.+.+.+.+.+.+.+.+.+.",
"+.+.+.+.+.+.+.+.+.+.+.+.+.+.+.+.+.+.+.+.+.+.+.+.7 7 7 0 i f h M E X.| } / K v u 0 7 7 7 +.+.+.+.+.+.7 7 +.+.+.+.+.+.+.+.+.+.+.+.",
"+.+.+.+.+.+.+.+.+.+.+.+.+.+.+.+.+.+.+.+.+.+.+.+.7 7 7 q d l h M E X.| | X.W N s q 7 7 7 +.+.+.+.+.+.7 7 +.+.+.+.+.+.+.+.+.+.+.+.",
"+.+.+.+.+.+.+.+.+.+.+.+.+.+.+.+.+.+.+.+.+.+.+.+.7 7 6 0 s k h m E X.| | X.E m a 0 6 7 7 +.+.+.+.+.+.+.+.+.+.+.+.+.+.+.+.+.+.+.+.",
"+.+.+.+.+.+.+.+.+.+.+.+.+.+.+.+.+.+.+.+.+.+.+.+.7 8 9 w d z b V Q X.| | X.Q V c e 9 8 7 +.+.+.+.+.+.+.+.+.+.+.+.+.+.+.+.+.+.+.+.",
"+.+.+.+.+.+.+.+.+.+.+.+.+.+.+.+.+.+.+.+.+.+.7 7 7 0 i f g b L / } | | | | } / K v u 9 6 7 7 +.+.+.+.+.+.+.+.+.+.+.+.+.+.+.+.+.+.",
"+.+.+.+.+.+.+.+.+.+.+.+.+.+.+.+.+.+.+.+.+.+.7 7 7 q d x b V / X.| | | | | | X.W N d w 9 8 7 +.+.+.+.+.+.+.+.+.+.+.+.+.+.+.+.+.+.",
"+.+.+.+.+.+.+.+.+.+.+.+.+.+.+.+.+.+.+.+.+.+.7 7 7 q s m L / } | | | | | | | X.E m g f i 0 7 7 7 +.+.+.+.+.+.+.+.+.+.+.+.+.+.+.+.",
"+.+.+.+.+.+.+.+.+.+.+.+.+.+.+.+.+.+.+.+.+.+.7 7 7 q s N W X.| | | | | | | | X.Q V b x d q 7 7 7 +.+.+.+.+.+.+.+.+.+.+.+.+.+.+.+.",
"+.+.+.+.+.+.+.+.+.+.+.+.+.+.+.+.7 7 +.+.7 7 7 7 6 0 s N E X.| | | | | | | | | } / L m s 0 6 7 7 +.+.+.+.+.+.+.+.+.+.+.+.+.+.+.+.",
"+.+.+.+.+.+.+.+.+.+.+.+.+.+.+.+.7 7 +.+.7 7 7 8 9 w s N E X.| | | | | | | | | | X.W N s w 9 8 7 +.+.+.+.+.+.+.+.+.+.+.+.+.+.+.+.",
"+.+.+.+.+.+.+.+.+.+.+.+.+.+.7 7 +.+.+.+.7 7 6 9 i f h M E X.| | | | | | | | | | X.E m g d u 9 6 7 7 +.+.+.+.+.+.+.+.+.+.+.+.+.+.",
"+.+.+.+.+.+.+.+.+.+.+.+.+.+.7 7 +.+.+.+.7 8 9 w f l h M E X.| | | | | | | | | | X.Q V m N v e 9 8 7 +.+.+.+.+.+.+.+.+.+.+.+.+.+.",
"+.+.+.+.+.+.+.+.+.+.+.+.+.+.+.+.+.+.7 7 7 0 i f j k h m E X.| | | | | | | | | | | } Q E W K v u 9 6 7 7 +.+.+.+.+.+.+.+.+.+.+.+.",
"+.+.+.+.+.+.+.+.+.+.+.+.+.+.+.+.+.+.7 7 7 q d l k z b V Q X.| | | | | | | | | | | | X.X.X.W N d w 9 8 7 +.+.+.+.+.+.+.+.+.+.+.+.",
"+.+.+.+.+.+.+.+.+.+.+.+.+.+.+.+.+.+.7 7 6 0 s k h b L / } | | | | | | | | | | | | | | | X.E m g f i 0 7 7 7 +.+.+.+.+.+.+.+.+.+.",
"+.+.+.+.+.+.+.+.+.+.+.+.+.+.+.+.+.+.7 8 9 w d z b V / X.| | | | | | | | | | | | | | | | X.Q V b x d q 7 7 7 +.+.+.+.+.+.+.+.+.+.",
"+.+.+.+.+.+.+.+.+.+.+.+.+.+.+.+.7 7 6 9 i f h n L /  .o.| | | | o.o.| | o.o.| | o.o.| | o. ./ L m s 0 6 7 7 +.+.+.+.+.+.+.+.+.+.",
"+.+.+.+.+.+.+.+.+.+.+.+.+.+.+.+.7 8 9 w f l h M ~ [ H H ' | | ' H H ' ' H H ' ' H H ' ' H H [ ~ N s w 9 8 7 +.+.+.+.+.+.+.+.+.+.",
"+.+.+.+.+.+.+.+.+.+.+.+.+.+.+.+.7 0 i f j k h m ^ U 4 4 Y O.o.H 4 4 Y Y 4 4 Y Y 4 4 Y Y 4 4 U ^ M h f i 0 7 7 7 +.+.+.+.+.+.+.+.",
"+.+.+.+.+.+.+.+.+.+.+.+.+.+.+.+.7 q d l k z b V _ F , - Z Y { D > > G G > > G G > > G G > > F ^ M h l d q 7 7 7 +.+.+.+.+.+.+.+.",
"+.+.+.+.+.+.+.+.+.+.+.+.+.+.7 7 7 q s k h n L /  .D 2 # : 5 R H < < J J < < J J < < J J < , F ^ m h k s 0 6 7 7 +.+.+.+.+.+.+.+.",
"+.+.+.+.+.+.+.+.+.+.+.+.+.+.7 7 7 q s k h M W X.o.D 2 .   : A A : : A A : : A A : : A A ; < F _ V b z d w 9 8 7 +.+.+.+.+.+.+.+.",
"+.+.+.+.+.+.+.+.+.+.+.+.+.+.7 7 7 q s k h M E X.o.D 2 . O $ , , $ $ , , $ $ , , $ $ , , # 2 D  ./ L n h f i 0 7 +.+.+.+.+.+.+.+.",
"+.+.+.+.+.+.+.+.+.+.+.+.+.+.7 7 7 q s k h M E X.o.D 2 . O O . . O O . . O O . . O O . . . 2 D o.X.W M h l d q 7 +.+.+.+.+.+.+.+.",
"+.+.+.+.+.+.+.+.+.+.+.+.+.+.+.+.7 q s k h M E X.o.D 2 . O O O O O O o o O O O O O O o o . 2 D o.X.E M h k s q 7 +.+.+.+.+.+.+.+.",
"+.+.+.+.+.+.+.+.+.+.+.+.+.+.+.+.7 q s k h M E X.o.D 2 . O O O O O @ * * @ O O O O @ * * + 2 D o.X.E M h k s q 7 +.+.+.+.+.+.+.+.",
"+.+.+.+.+.+.+.+.+.+.+.+.+.+.+.+.7 q d l h M W X.o.D 2 . O O O O o * r r * o O O o * r r % 1 D o.X.E M h l d q 7 +.+.+.+.+.+.+.+.",
"+.+.+.+.+.+.+.+.+.+.+.+.+.+.+.+.7 0 i f h n L /  .D 2 . O O O O X = y y = X O O X = y y & 1 D o.X.E M h f i 0 7 +.+.+.+.+.+.+.+.",
"+.+.+.+.+.+.+.+.+.+.+.+.+.+.+.+.7 8 9 w d z b V _ F <   O O O O X = y y = X O O X = y y & 1 D o.X.W N s w 9 8 7 +.+.+.+.+.+.+.+.",
"+.+.+.+.+.+.+.+.+.+.+.+.+.+.+.+.7 7 6 0 s k h m ^ U 5 : $ O O O o * r r * o O O o * r r % 1 D  ./ L m s 0 6 7 7 +.+.+.+.+.+.+.+.",
"+.+.+.+.+.+.+.+.+.+.+.+.+.+.+.+.+.+.7 q d l h M ! ] Y Z , . O O O @ * * @ O O O O @ * * + 2 F _ V b x d q 7 +.+.+.+.+.+.+.+.+.+.",
"+.+.+.+.+.+.+.+.+.+.+.+.+.+.+.+.+.+.7 0 i f h M E X.O.G 2 . O O O O o o O O O O O O o o . 2 F ^ m g d p q 7 +.+.+.+.+.+.+.+.+.+.",
"+.+.+.+.+.+.+.+.+.+.+.+.+.+.+.+.+.+.7 8 9 w s N W X.o.D <   O O O O O O O O o o O O O O   < F ^ N s w 0 +.+.+.+.+.+.+.+.+.+.+.+.",
"+.+.+.+.+.+.+.+.+.+.+.+.+.+.+.+.+.+.7 7 6 0 s m L /  .H 5 : $ O O O O O O @ * * @ O O $ : 5 U ^ N s 0 6 +.+.+.+.+.+.+.+.+.+.+.+.",
"+.+.+.+.+.+.+.+.+.+.+.+.+.+.+.+.+.+.+.+.7 q d x b V / [ T Z :   O O O O o * t t * o . , Z Y [ ~ N s q 7 +.+.+.+.+.+.+.+.+.+.+.+.",
"+.+.+.+.+.+.+.+.+.+.+.+.+.+.+.+.+.+.+.+.7 q p d g b L / ..T 5 : $ O O O o * t t * o . 2 G ../ L m s q 7 +.+.+.+.+.+.+.+.+.+.+.+.",
"+.+.+.+.+.+.+.+.+.+.+.+.+.+.+.+.+.+.+.+.+.+.0 w d x b V / [ T Z :   . . . + % % + .   < F ` V b x d q 7 +.+.+.+.+.+.+.+.+.+.+.+.",
"+.+.+.+.+.+.+.+.+.+.+.+.+.+.+.+.+.+.+.+.+.+.6 0 p d g b L / ..T 5 < 2 2 2 2 1 1 2 2 < 3 S I b g d p q 7 +.+.+.+.+.+.+.+.+.+.+.+.",
"+.+.+.+.+.+.+.+.+.+.+.+.+.+.+.+.+.+.+.+.+.+.+.+.0 w d x b V / [ U F F F F F F F F F F S B b x d w 0 +.+.+.+.+.+.+.+.+.+.+.+.+.+.",
"+.+.+.+.+.+.+.+.+.+.+.+.+.+.+.+.+.+.+.+.+.+.+.+.6 0 p d g b L ~ ^ ^ ^ ^ ^ ^ ^ ^ ^ ^ ( I b g d p 0 6 +.+.+.+.+.+.+.+.+.+.+.+.+.+.",
"+.+.+.+.+.+.+.+.+.+.+.+.+.+.+.+.+.+.+.+.+.+.+.+.+.+.0 w d x m N N N M M M M M M M M N m x d w 0 +.+.+.+.+.+.+.+.+.+.+.+.+.+.+.+.",
"+.+.+.+.+.+.+.+.+.+.+.+.+.+.+.+.+.+.+.+.+.+.+.+.+.+.6 0 p d s s s s h h h h h h h h s s d p 0 6 +.+.+.+.+.+.+.+.+.+.+.+.+.+.+.+.",
"+.+.+.+.+.+.+.+.+.+.+.+.+.+.+.+.+.+.+.+.+.+.+.+.+.+.+.+.q q q q 0 w f l k k k k l f w 0 q q +.+.+.+.+.+.+.+.+.+.+.+.+.+.+.+.+.+.",
"+.+.+.+.+.+.+.+.+.+.+.+.+.+.+.+.+.+.+.+.+.+.+.+.+.+.+.+.7 7 7 7 6 0 p d s s s s d p 0 6 7 7 +.+.+.+.+.+.+.+.+.+.+.+.+.+.+.+.+.+.",
"+.+.+.+.+.+.+.+.+.+.+.+.+.+.+.+.+.+.+.+.+.+.+.+.+.+.+.+.+.+.+.+.+.+.q q q q q q q q +.+.+.+.+.+.+.+.+.+.+.+.+.+.+.+.+.+.+.+.+.+.",
"+.+.+.+.+.+.+.+.+.+.+.+.+.+.+.+.+.+.+.+.+.+.+.+.+.+.+.+.+.+.+.+.+.+.7 7 7 7 7 7 7 7 +.+.+.+.+.+.+.+.+.+.+.+.+.+.+.+.+.+.+.+.+.+.",
"+.+.+.+.+.+.+.+.+.+.+.+.+.+.+.+.+.+.+.+.+.+.+.+.+.+.+.+.+.+.+.+.+.+.+.+.+.+.+.+.+.+.+.+.+.+.+.+.+.+.+.+.+.+.+.+.+.+.+.+.+.+.+.+.",
"+.+.+.+.+.+.+.+.+.+.+.+.+.+.+.+.+.+.+.+.+.+.+.+.+.+.+.+.+.+.+.+.+.+.+.+.+.+.+.+.+.+.+.+.+.+.+.+.+.+.+.+.+.+.+.+.+.+.+.+.+.+.+.+."
};
