/* XPM */
static char *result[] = {
/* columns rows colors chars-per-pixel */
"64 64 120 2 ",
"   c #1B1D1E",
".  c #1E1E21",
"X  c #211E21",
"o  c #1F2020",
"O  c #232323",
"+  c #282626",
"@  c #212925",
"#  c #2A2827",
"$  c #272828",
"%  c #2B2A2A",
"&  c #332E2D",
"*  c #273427",
"=  c #2F3525",
"-  c #283728",
";  c #283828",
":  c #36302E",
">  c #333333",
",  c #3C3433",
"<  c #3E3935",
"1  c #413735",
"2  c #413936",
"3  c #453A39",
"4  c #493C3A",
"5  c #2C432B",
"6  c #2F4B2D",
"7  c #374227",
"8  c #35482A",
"9  c #3E4E29",
"0  c #2F502F",
"q  c #35532E",
"w  c #2F5130",
"e  c #315430",
"r  c #356736",
"t  c #376D38",
"y  c #3D7C3B",
"u  c #455D2C",
"i  c #495F2B",
"p  c #4D443F",
"a  c #51423E",
"s  c #55702E",
"d  c #59752E",
"f  c #5B782F",
"g  c #447938",
"h  c #524640",
"j  c #584743",
"k  c #524841",
"l  c #5B4944",
"z  c #584E48",
"x  c #5E534C",
"c  c #604C47",
"v  c #624D48",
"b  c #64524B",
"n  c #6A534D",
"m  c #68594F",
"M  c #6F5650",
"N  c #6C5D53",
"B  c #765D55",
"V  c #795E56",
"C  c #7A5F58",
"Z  c #6E6056",
"A  c #746359",
"S  c #7C6259",
"D  c #7C6A5E",
"F  c #81665D",
"G  c #85695F",
"H  c #876A60",
"J  c #896C62",
"K  c #877163",
"L  c #8A7365",
"P  c #8E7768",
"I  c #907366",
"U  c #927669",
"Y  c #937B6C",
"T  c #997C6E",
"R  c #9C7F70",
"E  c #3E813D",
"W  c #42853D",
"Q  c #42883E",
"!  c #5F9C3B",
"~  c #608933",
"^  c #649035",
"/  c #6A9D38",
"(  c #739F35",
")  c #77AE3A",
"_  c #78AA38",
"`  c #6EB03E",
"'  c #7FB138",
"]  c #7ABA3E",
"[  c #459542",
"{  c #489C44",
"}  c #4DA546",
"|  c #4DA947",
" . c #4CAD49",
".. c #56A341",
"X. c #5DB145",
"o. c #55B448",
"O. c #65AE40",
"+. c #6DB741",
"@. c #68BD45",
"#. c #70B740",
"$. c #69C347",
"%. c #71C344",
"&. c #7EC540",
"*. c #75C945",
"=. c #7DCC43",
"-. c #8ECF3E",
";. c #8ED03E",
":. c #90D43F",
">. c #99806F",
",. c #9D8271",
"<. c #A18574",
"1. c #A58977",
"2. c #A68A78",
"3. c #AB8D7A",
"4. c #AE907D",
"5. c #B1937F",
"6. c #96DD41",
"7. c #95E042",
"8. c #B49580",
"9. c #000000",
/* pixels */
"9.9.9.9.9.9.9.9.9.9.9.9.9.9.9.9.9.9.9.9.9.9.9.9.9.9.9.9.9.9.9.9.9.9.9.9.9.9.9.9.9.9.9.9.9.9.9.9.9.9.9.9.9.9.9.9.9.9.9.9.9.9.9.9.",
"9.9.9.9.9.9.9.9.9.9.9.9.9.9.9.9.9.9.9.9.9.9.9.9.9.9.9.9.9.9.9.9.9.9.9.9.9.9.9.9.9.9.9.9.9.9.9.9.9.9.9.9.9.9.9.9.9.9.9.9.9.9.9.9.",
"9.9.9.9.9.9.9.9.9.9.9.9.9.9.9.9.9.9.9.9.9.9.9.9.9.9.9.9.9.9.9.9.9.9.O O O . O X 9.9.9.9.9.9.9.9.9.9.9.9.9.9.9.9.9.9.9.9.9.9.9.9.",
"9.9.9.9.9.9.9.9.9.9.9.9.9.9.9.9.9.9.9.9.9.9.9.9.9.9.9.9.9.9.9.9.9.8 i u q q u u 7 9.9.9.9.9.9.9.9.9.9.9.9.9.9.9.9.9.9.9.9.9.9.9.",
"9.9.9.9.9.9.9.9.9.9.9.9.9.9.9.9.9.9.9.9.9.9.9.9.9.9.9.9.9.9.O o   9 _ ] ....] ( 9 . 9.9.9.9.9.9.9.9.9.9.9.9.9.9.9.9.9.9.9.9.9.9.",
"9.9.9.9.9.9.9.9.9.9.9.9.9.9.9.9.9.9.9.9.9.9.9.9.9.9.9.9.9.* 0 5 o = s / +.=.7.' 9 . 9.9.9.9.9.9.9.9.9.9.9.9.9.9.9.9.9.9.9.9.9.9.",
"9.9.9.9.9.9.9.9.9.9.9.9.9.9.9.9.9.9.9.9.9.9.9.9.9.9.9.9.O 6 W E 5 + # i ) 6.6._ 9 . 9.9.9.9.9.9.9.9.9.9.9.9.9.9.9.9.9.9.9.9.9.9.",
"9.9.9.9.9.9.9.9.9.9.9.9.9.9.9.9.9.9.9.9.9.9.9.9.9.9.9.; e g ` +.^ f d ~ ` *.*.! 8 X 9.9.9.9.9.9.9.9.9.9.9.9.9.9.9.9.9.9.9.9.9.9.",
"9.9.9.9.9.9.9.9.9.9.9.9.9.9.9.9.9.9.9.9.9.9.9.9.9.9.O ; y X.6.:.;.;.;.&.X.| } W 5 X 9.9.9.9.9.9.9.9.9.9.9.9.9.9.9.9.9.9.9.9.9.9.",
"9.9.9.9.9.9.9.9.9.9.9.9.9.9.9.9.9.9.9.9.9.9.9.9.9.9.X 5 E o.X.$.%.*.*.$.o.[ t w - 9.9.9.9.9.9.9.9.9.9.9.9.9.9.9.9.9.9.9.9.9.9.9.",
"9.9.9.9.9.9.9.9.9.9.9.9.9.9.9.9.9.9.9.9.9.9.9.9.9.9.X 5 E  . .| | } { { { y 5 O 9.9.9.9.9.9.9.9.9.9.9.9.9.9.9.9.9.9.9.9.9.9.9.9.",
"9.9.9.9.9.9.9.9.9.9.9.9.9.9.9.9.9.9.9.9.9.9.9.9.9.9.O 5 Q  . . . .[ r 0 w 6 * 9.9.9.9.9.9.9.9.9.9.9.9.9.9.9.9.9.9.9.9.9.9.9.9.9.",
"9.9.9.9.9.9.9.9.9.9.9.9.9.9.9.9.9.9.9.9.9.9.9.9.9.9.X 5 y [ [ [ [ y 5 X X O 9.9.9.9.9.9.9.9.9.9.9.9.9.9.9.9.9.9.9.9.9.9.9.9.9.9.",
"9.9.9.9.9.9.9.9.9.9.9.9.9.9.9.9.9.9.9.9.9.9.9.9.9.9.9.9.5 6 8 6 6 5 9.9.9.9.9.9.9.9.9.9.9.9.9.9.9.9.9.9.9.9.9.9.9.9.9.9.9.9.9.9.",
"9.9.9.9.9.9.9.9.9.9.9.9.9.9.9.9.9.9.9.9.9.9.9.9.9.9.9.9.X X O X . O 9.9.9.9.9.9.9.9.9.9.9.9.9.9.9.9.9.9.9.9.9.9.9.9.9.9.9.9.9.9.",
"9.9.9.9.9.9.9.9.9.9.9.9.9.9.9.9.9.9.9.9.9.9.9.9.9.9.9.9.9.9.9.9.9.9.9.9.9.9.9.9.9.9.9.9.9.9.9.9.9.9.9.9.9.9.9.9.9.9.9.9.9.9.9.9.",
"9.9.9.9.9.9.9.9.9.9.9.9.9.9.9.9.9.9.9.9.9.9.9.9.9.9.9.9.9.9.9.9.9.9.9.9.9.9.9.9.9.9.9.9.9.9.9.9.9.9.9.9.9.9.9.9.9.9.9.9.9.9.9.9.",
"9.9.9.9.9.9.9.9.9.9.9.9.9.9.9.9.9.9.9.9.9.9.9.9.O O O O   O o o O o O o O O o o O o O X O O O O 9.9.9.9.9.9.9.9.9.9.9.9.9.9.9.9.",
"9.9.9.9.9.9.9.9.9.9.9.9.9.9.9.9.9.9.9.9.9.9.9.9.O O : 2 p 4 < , , < , , < , , , , , < , < & + o 9.9.9.9.9.9.9.9.9.9.9.9.9.9.9.9.",
"9.9.9.9.9.9.9.9.9.9.9.9.9.9.9.9.9.9.9.9.9.9.9.9.X & j V L L B n n n n n n n n n n n n n n j & O 9.9.9.9.9.9.9.9.9.9.9.9.9.9.9.9.",
"9.9.9.9.9.9.9.9.9.9.9.9.9.9.9.9.9.9.9.9.9.9.9.  X & v H <.3.Y F v j j j a b F I J F b j j 4 & o 9.9.9.9.9.9.9.9.9.9.9.9.9.9.9.9.",
"9.9.9.9.9.9.9.9.9.9.9.9.9.9.9.9.9.9.9.9.9.9.O O X : v H <.3.3.K 4 + + # O p K 3.3.L 4 + + # O o 9.9.9.9.9.9.9.9.9.9.9.9.9.9.9.9.",
"9.9.9.9.9.9.9.9.9.9.9.9.9.9.9.9.9.9.9.9.9.% 2 1 # : v H <.3.5.L <         < K 5.5.K 1       . X O 9.9.9.9.9.9.9.9.9.9.9.9.9.9.9.",
"9.9.9.9.9.9.9.9.9.9.9.9.9.9.9.9.9.9.9.9.O , c c & & v F <.3.4.L 3 O O O o p L 5.4.K p o O + + # O O 9.9.9.9.9.9.9.9.9.9.9.9.9.9.",
"9.9.9.9.9.9.9.9.9.9.9.9.9.9.9.9.9.9.9.& 2 j M v : & c G ,.3.4.Y v 4 4 4 4 b Y 4.3.Y x 4 4 4 4 2 # O 9.9.9.9.9.9.9.9.9.9.9.9.9.9.",
"9.9.9.9.9.9.9.9.9.9.9.9.9.9.9.9.9.9.O , v V F v : & c G ,.4.4.,.F V V V S F ,.4.8.,.H B V S C v & o 9.9.9.9.9.9.9.9.9.9.9.9.9.9.",
"9.9.9.9.9.9.9.9.9.9.9.9.9.9.9.9.9.& 4 l M F I A , & c G ,.4.4.3.,.T T >.T ,.3.4.8.,.,.R T T R D 2   9.9.9.9.9.9.9.9.9.9.9.9.9.9.",
"9.9.9.9.9.9.9.9.9.9.9.9.9.9.9.9.o : c V S J <.L 2 & c G R 1.,.,.2.2.<.>.1.1.<.,.2.2.,.,.2.2.<.D < X 9.9.9.9.9.9.9.9.9.9.9.9.9.9.",
"9.9.9.9.9.9.9.9.9.9.9.9.9.9.9.9.  & c F I <.3.L 2 & v F J F m Z >.>.Z Z T >.N Z >.>.N Z >.>.Z p % o 9.9.9.9.9.9.9.9.9.9.9.9.9.9.",
"9.9.9.9.9.9.9.9.9.9.9.9.9.9.9.9.& 2 n L <.4.4.L 1 & a M B n 4 z Y Y x x Y Y x x Y Y x x Y Y m < % O 9.9.9.9.9.9.9.9.9.9.9.9.9.9.",
"9.9.9.9.9.9.9.9.9.9.9.9.9.9.o & a M I <.3.4.4.L 2 O = 4 n M n B >.1.Y P 1.1.P Y 1.1.P Y ,.3.T Z , O 9.9.9.9.9.9.9.9.9.9.9.9.9.9.",
"9.9.9.9.9.9.9.9.9.9.9.9.9.9.o & c F T <.2.3.3.P a # O & c V V F Y <.<.<.<.>.<.<.1.,.,.1.,.,.Y A <   9.9.9.9.9.9.9.9.9.9.9.9.9.9.",
"9.9.9.9.9.9.9.9.9.9.9.9.9.9.O & v V F I <.4.3.T V 4 & & v C C C F G G G G G G G H H H H H B a < 9.9.9.9.9.9.9.9.9.9.9.9.9.9.9.9.",
"9.9.9.9.9.9.9.9.9.9.9.9.9.9.X : v B B F >.3.4.<.H c & % a l l l l l l l l l l l l l l l l 4 #   9.9.9.9.9.9.9.9.9.9.9.9.9.9.9.9.",
"9.9.9.9.9.9.9.9.9.9.9.9.9.9.o > v V B F >.5.4.,.H v & X $ & % % % & % # & & % & = % % & & % O O O O 9.9.9.9.9.9.9.9.9.9.9.9.9.9.",
"9.9.9.9.9.9.9.9.9.9.9.9.9.9.. : c F G U 1.3.4.<.U S z h h h h h a p a p # % 2 p a p a p p p h 3 # O 9.9.9.9.9.9.9.9.9.9.9.9.9.9.",
"9.9.9.9.9.9.9.9.9.9.9.9.9.9.o : c G T 1.2.3.3.2.1.<.,.T R R R Y >.,.,.D p p D >.,.>.>.>.>.,.,.D < o 9.9.9.9.9.9.9.9.9.9.9.9.9.9.",
"9.9.9.9.9.9.9.9.9.9.9.9.9.9.o : c F U T T ,.3.4.5.5.5.8.8.8.8.8.8.8.8.,.D D ,.4.8.5.5.8.8.8.8.P 2   9.9.9.9.9.9.9.9.9.9.9.9.9.9.",
"9.9.9.9.9.9.9.9.9.9.9.9.9.9.X > c F V V B G >.2.2.1.1.2.1.2.1.1.1.2.1.1.,.,.2.2.2.1.1.1.1.2.3.H 2 o 9.9.9.9.9.9.9.9.9.9.9.9.9.9.",
"9.9.9.9.9.9.9.9.9.9.9.9.9.9.9.& 4 4 4 4 4 a b m m m m m m m m m m m m m Z Z m m m m m m m m m x < 9.9.9.9.9.9.9.9.9.9.9.9.9.9.9.",
"9.9.9.9.9.9.9.9.9.9.9.9.9.9.9.9.O O + + @ + % # + + % + % + $ % # # # % $ $ $ $ # # # # $ $ $ # 9.9.9.9.9.9.9.9.9.9.9.9.9.9.9.9.",
"9.9.9.9.9.9.9.9.9.9.9.9.9.9.9.9.X O + $ % $ $ $ $ $ % $ % % $ $ $ $ $ $ % $ % % $ % $ $ % $ X . 9.9.9.9.9.9.9.9.9.9.9.9.9.9.9.9.",
"9.9.9.9.9.9.9.9.9.9.9.9.9.9.9.9.O + & : > > > > > > > > & > > & > : > > > & & & > & > & & % $ O 9.9.9.9.9.9.9.9.9.9.9.9.9.9.9.9.",
"9.9.9.9.9.9.9.9.9.9.9.9.9.9.9.9.O O + + O $ % O $ + + % $ $ $ $ @ $ $ $ $ $ $ + $ $ % $ $ $ O O 9.9.9.9.9.9.9.9.9.9.9.9.9.9.9.9.",
"9.9.9.9.9.9.9.9.9.9.9.9.9.9.9.9.X X $ $ O $ + + X $ $ X % X + X + + # + + O + + $ $ + + + X O X 9.9.9.9.9.9.9.9.9.9.9.9.9.9.9.9.",
"9.9.9.9.9.9.9.9.9.9.9.9.9.9.9.9.O $ $ % * & , > & & > , 1 , , , , , , , , , , , , , , , , : # X 9.9.9.9.9.9.9.9.9.9.9.9.9.9.9.9.",
"9.9.9.9.9.9.9.9.9.9.9.9.9.9.9.9.. $ & > > < 3 3 , , 4 4 4 4 4 4 4 4 4 4 4 4 4 4 3 4 4 4 4 1 # X 9.9.9.9.9.9.9.9.9.9.9.9.9.9.9.9.",
"9.9.9.9.9.9.9.9.9.9.9.9.9.9.9.9.X $ & > 1 3 4 4 3 3 4 4 4 4 4 4 4 4 4 4 4 4 4 4 4 4 4 4 4 1 # X 9.9.9.9.9.9.9.9.9.9.9.9.9.9.9.9.",
"9.9.9.9.9.9.9.9.9.9.9.9.9.9.9.9.X $ % > 3 3 3 3 3 3 3 3 3 4 4 4 4 4 4 4 3 4 4 4 3 4 4 4 4 , # O 9.9.9.9.9.9.9.9.9.9.9.9.9.9.9.9.",
"9.9.9.9.9.9.9.9.9.9.9.9.9.9.9.9.. $ > > > > < > 3 3 , , 3 4 4 4 4 3 4 4 4 3 4 4 4 4 4 4 4 1 # X 9.9.9.9.9.9.9.9.9.9.9.9.9.9.9.9.",
"9.9.9.9.9.9.9.9.9.9.9.9.9.9.9.9.@ $ > > > > > < 3 3 < < 3 4 4 4 4 4 4 4 3 4 4 3 4 4 4 4 4 1 # X 9.9.9.9.9.9.9.9.9.9.9.9.9.9.9.9.",
"9.9.9.9.9.9.9.9.9.9.9.9.O O O O o o > > > < 3 4 4 3 3 3 4 3 4 4 4 4 4 4 3 4 4 4 3 4 4 4 4 < % X 9.9.9.9.9.9.9.9.9.9.9.9.9.9.9.9.",
"9.9.9.9.9.9.9.9.9.9.9.9.O O O % % % > > > > < 3 3 < 4 3 , , > , : 1 , 1 3 4 4 4 4 4 4 4 4 < % X 9.9.9.9.9.9.9.9.9.9.9.9.9.9.9.9.",
"9.9.9.9.9.9.9.9.9.9.9.9.O O % > > > > > > > > > > > 3 < % O + $ X X X % 1 4 4 4 4 4 4 3 4 < # X 9.9.9.9.9.9.9.9.9.9.9.9.9.9.9.9.",
"9.9.9.9.9.9.9.9.9.9.9.9.O O > > > > > > > > > > > > 3 > $ X X . + X X X > , 3 4 4 3 1 1 3 > $ O 9.9.9.9.9.9.9.9.9.9.9.9.9.9.9.9.",
"9.9.9.9.9.9.9.9.9.9.9.9.O O > > > > > > > > > > > > > > $ X 9.9.9.9.9.9.X % , 4 3 3 , > > % $ O 9.9.9.9.9.9.9.9.9.9.9.9.9.9.9.9.",
"9.9.9.9.9.9.9.9.9.9.9.9.O O > > > > > > > > > > > > % $ $ 9.9.9.9.9.9.9.O + > < 3 < > > > > $ . 9.9.9.9.9.9.9.9.9.9.9.9.9.9.9.9.",
"9.9.9.9.9.9.9.9.9.9.9.9.O O % > > > > > > > > > > % $ O 9.9.9.9.9.9.9.9.O $ & > > > > > > > $ o 9.9.9.9.9.9.9.9.9.9.9.9.9.9.9.9.",
"9.9.9.9.9.9.9.9.9.9.9.9.O O % % $ % % % % % $ $ % $ $ 9.9.9.9.9.9.9.9.9.. $ & > > > > > > > o o 9.9.9.9.9.9.9.9.9.9.9.9.9.9.9.9.",
"9.9.9.9.9.9.9.9.9.9.9.9.o O O O O o O O O o O O O O 9.9.9.9.9.9.9.9.9.9.o o > > > > > > > % $ o 9.9.9.9.9.9.9.9.9.9.9.9.9.9.9.9.",
"9.9.9.9.9.9.9.9.9.9.9.9.9.9.9.9.9.9.9.9.9.9.9.9.9.9.9.9.9.9.9.9.9.9.9.9.O $ % > > > > > > > O o 9.9.9.9.9.9.9.9.9.9.9.9.9.9.9.9.",
"9.9.9.9.9.9.9.9.9.9.9.9.9.9.9.9.9.9.9.9.9.9.9.9.9.9.9.9.9.9.9.9.9.9.9.9.O $ % > * > > > > % + O 9.9.9.9.9.9.9.9.9.9.9.9.9.9.9.9.",
"9.9.9.9.9.9.9.9.9.9.9.9.9.9.9.9.9.9.9.9.9.9.9.9.9.9.9.9.9.9.9.9.9.9.9.9.O O $ $ $ + + $ O + O O 9.9.9.9.9.9.9.9.9.9.9.9.9.9.9.9.",
"9.9.9.9.9.9.9.9.9.9.9.9.9.9.9.9.9.9.9.9.9.9.9.9.9.9.9.9.9.9.9.9.9.9.9.9.O O O . O o O O o O O O 9.9.9.9.9.9.9.9.9.9.9.9.9.9.9.9."
};
