/* XPM */
static char *result[] = {
/* columns rows colors chars-per-pixel */
"64 64 122 2 ",
"   c #1D1E1F",
".  c #1F1E21",
"X  c #211E21",
"o  c #1F2020",
"O  c #232323",
"+  c #292727",
"@  c #222924",
"#  c #2B2A26",
"$  c #272828",
"%  c #2C2C2B",
"&  c #342F2D",
"*  c #263227",
"=  c #2D3325",
"-  c #293C29",
";  c #35302E",
":  c #38312F",
">  c #333333",
",  c #3D3534",
"<  c #3F3836",
"1  c #413635",
"2  c #413A36",
"3  c #453A39",
"4  c #493C3A",
"5  c #513F3F",
"6  c #2C422B",
"7  c #2D4D2E",
"8  c #3B4827",
"9  c #3A4728",
"0  c #3B4928",
"q  c #36542E",
"w  c #2E5A31",
"e  c #315431",
"r  c #396331",
"t  c #3D7B3B",
"y  c #41532A",
"u  c #455B2B",
"i  c #485D2B",
"p  c #4E403C",
"a  c #54413F",
"s  c #46612D",
"d  c #4B6E2E",
"f  c #56742D",
"g  c #58772F",
"h  c #417436",
"j  c #4B7D37",
"k  c #4D4441",
"l  c #554441",
"z  c #584642",
"x  c #554C46",
"c  c #5C4A45",
"v  c #5F4E48",
"b  c #5B514A",
"n  c #614C47",
"m  c #634E49",
"M  c #64544D",
"N  c #6B544E",
"B  c #6E5751",
"V  c #675B52",
"C  c #6E5A53",
"Z  c #705751",
"A  c #735B53",
"S  c #795E56",
"D  c #7D5F58",
"F  c #736056",
"G  c #76665B",
"H  c #7B655A",
"J  c #7C695C",
"K  c #81655C",
"L  c #85695F",
"P  c #856C61",
"I  c #8A6E63",
"U  c #867164",
"Y  c #8A7365",
"T  c #8E7768",
"R  c #937669",
"E  c #947A6C",
"W  c #9A7E6E",
"Q  c #9C7F70",
"!  c #42843C",
"~  c #48843A",
"^  c #598233",
"/  c #5D8935",
"(  c #638631",
")  c #6B9D37",
"_  c #709C35",
"`  c #67AE3F",
"'  c #75A537",
"]  c #77AD39",
"[  c #7ABA3D",
"{  c #7EC13F",
"}  c #469743",
"|  c #479943",
" . c #4CA245",
".. c #57A542",
"X. c #58A341",
"o. c #5BAB43",
"O. c #60A940",
"+. c #69B341",
"@. c #6EC445",
"#. c #74C644",
"$. c #7DC741",
"%. c #77C944",
"&. c #78CA44",
"*. c #82C43E",
"=. c #8ECD3D",
"-. c #90CC3C",
";. c #8FD43F",
":. c #92D33E",
">. c #9D8272",
",. c #A28574",
"<. c #A68977",
"1. c #A78A78",
"2. c #AB8E7B",
"3. c #AE907D",
"4. c #B0927E",
"5. c #82D143",
"6. c #8ED440",
"7. c #90D640",
"8. c #93DA40",
"9. c #98E242",
"0. c #A1E640",
"q. c #000000",
/* pixels */
"q.q.q.q.q.q.q.q.q.q.q.q.q.q.q.q.q.q.q.q.q.q.q.q.q.q.q.q.q.q.q.q.q.q.q.q.q.q.q.q.q.q.q.q.q.q.q.q.q.q.q.q.q.q.q.q.q.q.q.q.q.q.q.q.",
"q.q.q.q.q.q.q.q.q.q.q.q.q.q.q.q.q.q.q.q.q.q.q.q.q.q.q.q.q.q.q.q.q.q.q.q.q.q.q.q.q.q.q.q.q.q.q.q.q.q.q.q.q.q.q.q.q.q.q.q.q.q.q.q.",
"q.q.q.q.q.q.q.q.q.q.q.q.q.q.q.q.q.q.q.q.q.q.q.q.q.q.q.q.X O X O O O O O . O O O O O o O q.q.q.q.q.q.q.q.q.q.q.q.q.q.q.q.q.q.q.q.",
"q.q.q.q.q.q.q.q.q.q.q.q.q.q.q.q.q.q.q.q.q.q.q.q.q.q.q.* 7 7 7 7 7 6 O # y s q 7 7 6 @ . X q.q.q.q.q.q.q.q.q.q.q.q.q.q.q.q.q.q.q.",
"q.q.q.q.q.q.q.q.q.q.q.q.q.q.q.q.q.q.q.q.q.q.q.q.q.q.o 6 h | } | | h - 8 ) [ X.| } t 6 O X O q.q.q.q.q.q.q.q.q.q.q.q.q.q.q.q.q.q.",
"q.q.q.q.q.q.q.q.q.q.q.q.q.q.q.q.q.q.q.q.q.q.q.q.q.- 7 t o.#.@.@.#.` ^ g ( ) ` @.@.+./ i = O q.q.q.q.q.q.q.q.q.q.q.q.q.q.q.q.q.q.",
"q.q.q.q.q.q.q.q.q.q.q.q.q.q.q.q.q.q.q.q.q.q.q.q.X - t o.$.7.7.6.6.6.:.' y u ] :.8.:.=._ 9 . q.q.q.q.q.q.q.q.q.q.q.q.q.q.q.q.q.q.",
"q.q.q.q.q.q.q.q.q.q.q.q.q.q.q.q.q.q.q.q.q.q.q.q.O * e ~ +.&.&.%.%.5.9.*.j ~ *.0.0.-._ g 9 q.q.q.q.q.q.q.q.q.q.q.q.q.q.q.q.q.q.q.",
"q.q.q.q.q.q.q.q.q.q.q.q.q.q.q.q.q.q.q.q.q.q.q.q.O X + 7 !  ... .| o.*.{ X.X.{ :.:.' 0 @ q.q.q.q.q.q.q.q.q.q.q.q.q.q.q.q.q.q.q.q.",
"q.q.q.q.q.q.q.q.q.q.q.q.q.q.q.q.q.q.q.q.q.q.q.q.X     @ 7 w w w w r d d r r d f f i =     X O q.q.q.q.q.q.q.q.q.q.q.q.q.q.q.q.q.",
"q.q.q.q.q.q.q.q.q.q.q.q.q.q.q.q.q.q.q.q.q.q.q.q.O + + + % % # # % + % = # & # # & # + + # # @ o q.q.q.q.q.q.q.q.q.q.q.q.q.q.q.q.",
"q.q.q.q.q.q.q.q.q.q.q.q.q.q.q.q.q.q.q.q.q.q.q.q.X # 4 n C C n a z z z z z a 5 5 a a a c a 4 & X q.q.q.q.q.q.q.q.q.q.q.q.q.q.q.q.",
"q.q.q.q.q.q.q.q.q.q.q.q.q.q.q.q.q.q.q.q.q.q.q.q.o ; n L >.,.L D N N N N N N H K H S C N N c ; o q.q.q.q.q.q.q.q.q.q.q.q.q.q.q.q.",
"q.q.q.q.q.q.q.q.q.q.q.q.q.q.q.q.q.q.q.q.q.q.q.q.o & m L ,.3.<.L l , 1 , , z U >.>.L a , < : + o q.q.q.q.q.q.q.q.q.q.q.q.q.q.q.q.",
"q.q.q.q.q.q.q.q.q.q.q.q.q.q.q.q.q.q.q.q.q.q.q.q.X & m L >.3.3.Y 2         2 Y 3.4.Y 2     o o O q.q.q.q.q.q.q.q.q.q.q.q.q.q.q.q.",
"q.q.q.q.q.q.q.q.q.q.q.q.q.q.q.q.q.q.q.q.q.q.o o X : n L Q 3.3.Y 2         2 Y 3.4.Y 2     o o o O O q.q.q.q.q.q.q.q.q.q.q.q.q.q.",
"q.q.q.q.q.q.q.q.q.q.q.q.q.q.q.q.q.q.q.q.q.q.& & X ; m L >.3.3.T a : : : > k T 3.3.T a & & : > % O o q.q.q.q.q.q.q.q.q.q.q.q.q.q.",
"q.q.q.q.q.q.q.q.q.q.q.q.q.q.q.q.q.q.q.q.  : l l & & n L >.3.2.W S m m m b F >.3.2.W H m m M N l & O q.q.q.q.q.q.q.q.q.q.q.q.q.q.",
"q.q.q.q.q.q.q.q.q.q.q.q.q.q.q.q.q.q.q.q.: 4 N M ; & n L >.3.3.,.T I Y I I T 1.3.2.,.R I I I T C , O q.q.q.q.q.q.q.q.q.q.q.q.q.q.",
"q.q.q.q.q.q.q.q.q.q.q.q.q.q.q.q.q.q.o & z Z S n & & n L >.3.2.2.<.,.,.,.,.<.2.4.2.2.1.,.,.<.1.J <   q.q.q.q.q.q.q.q.q.q.q.q.q.q.",
"q.q.q.q.q.q.q.q.q.q.q.q.q.q.q.q.q.# : 5 N K L A : ; n K T T L Y ,.>.U U >.>.J J >.>.U U >.>.T V : o q.q.q.q.q.q.q.q.q.q.q.q.q.q.",
"q.q.q.q.q.q.q.q.q.q.q.q.q.q.q.q.X & n A S L >.U < & c H H C k b E E b b >.E b b E E b b T >.b < $ o q.q.q.q.q.q.q.q.q.q.q.q.q.q.",
"q.q.q.q.q.q.q.q.q.q.q.q.q.q.q.q.o & m K L E 1.Y 2 + 3 z Z N l M >.>.G G >.>.G G >.>.G G >.>.J x & o q.q.q.q.q.q.q.q.q.q.q.q.q.q.",
"q.q.q.q.q.q.q.q.q.q.q.q.q.q.q.q.O : m L >.2.3.Y 4 X O : m S A K >.2.,.,.<.1.<.>.<.1.,.,.1.1.,.L < o q.q.q.q.q.q.q.q.q.q.q.q.q.q.",
"q.q.q.q.q.q.q.q.q.q.q.q.q.q.q.& 3 n L W <.3.3.R N 1 @ & m D D K U R R E R R R W R R R E R I S c , q.q.q.q.q.q.q.q.q.q.q.q.q.q.q.",
"q.q.q.q.q.q.q.q.q.q.q.q.q.q.o & n K W <.1.2.2.>.L m & & c A Z Z Z C Z Z A A Z Z A A A A A n : X q.q.q.q.q.q.q.q.q.q.q.q.q.q.q.q.",
"q.q.q.q.q.q.q.q.q.q.q.q.q.q.O & m H L W <.2.2.1.>.H : O : 3 1 1 , , , 1 1 1 1 1 : 1 1 1 1 : X   q.q.q.q.q.q.q.q.q.q.q.q.q.q.q.q.",
"q.q.q.q.q.q.q.q.q.q.q.q.q.q.  & n S S L >.2.2.2.1.I 4 # # # ; = & : ; ; & & & ; & & & # # % & # q.q.q.q.q.q.q.q.q.q.q.q.q.q.q.q.",
"q.q.q.q.q.q.q.q.q.q.q.q.q.q.o : m S S K Q 2.2.,.R H n a a m A J H H G G H H H H H A v a a l l p ; q.q.q.q.q.q.q.q.q.q.q.q.q.q.q.",
"q.q.q.q.q.q.q.q.q.q.q.q.q.q.o : n S K L ,.2.3.>.L K K K K I ,.2.2.2.2.2.1.2.2.2.2.,.Y H L K K N : o q.q.q.q.q.q.q.q.q.q.q.q.q.q.",
"q.q.q.q.q.q.q.q.q.q.q.q.q.q.o & n K R ,.1.2.2.<.>.>.W >.>.>.1.2.3.2.2.3.4.3.2.2.2.1.>.>.>.>.,.J <   q.q.q.q.q.q.q.q.q.q.q.q.q.q.",
"q.q.q.q.q.q.q.q.q.q.q.q.q.q.o & n K W ,.2.2.2.1.3.2.2.2.2.2.2.2.2.2.2.<.E E <.2.2.2.2.2.2.3.3.Y 2 o q.q.q.q.q.q.q.q.q.q.q.q.q.q.",
"q.q.q.q.q.q.q.q.q.q.q.q.q.q.X ; n D K I ,.3.2.2.2.2.2.2.2.2.2.2.2.2.2.T M b >.2.2.2.2.2.2.3.3.U 2 o q.q.q.q.q.q.q.q.q.q.q.q.q.q.",
"q.q.q.q.q.q.q.q.q.q.q.q.q.q.O ; m D S H E ,.1.3.2.3.2.3.2.2.2.3.2.2.2.>.V V >.2.3.2.2.2.2.4.4.Y 2 o q.q.q.q.q.q.q.q.q.q.q.q.q.q.",
"q.q.q.q.q.q.q.q.q.q.q.q.q.q.. ; m S S S H I >.3.2.2.3.3.2.2.3.3.2.2.2.<.>.>.<.2.2.2.2.1.2.2.4.Y 2 o q.q.q.q.q.q.q.q.q.q.q.q.q.q.",
"q.q.q.q.q.q.q.q.q.q.q.q.q.q.O % 4 z c z l c A G H H H G H G G G J G J J J J J G H H H G H J J M > o q.q.q.q.q.q.q.q.q.q.q.q.q.q.",
"q.q.q.q.q.q.q.q.q.q.q.q.q.q.O O # % + & % % > > & & & & & & % & & & & > = ; ; = > > > > & & > % + O q.q.q.q.q.q.q.q.q.q.q.q.q.q.",
"q.q.q.q.q.q.q.q.q.q.q.q.q.q.O O O % $ O $ o o $ O $ $ $ $ X + O O @ @ o @ $ $ O $ o O $ O + + X O O q.q.q.q.q.q.q.q.q.q.q.q.q.q.",
"q.q.q.q.q.q.q.q.q.q.q.q.q.q.X $ % > > & > > > > % > > % > > > > > > > > > > > > > % % > > > > > O o q.q.q.q.q.q.q.q.q.q.q.q.q.q.",
"q.q.q.q.q.q.q.q.q.q.q.q.q.q.O O $ % % $ % % $ % % % % % > $ $ % $ $ % % $ $ % $ % % % % % $ $ $ + O q.q.q.q.q.q.q.q.q.q.q.q.q.q.",
"q.q.q.q.q.q.q.q.q.q.q.q.q.q.O O @ O O O O O $ O $ O O + X + $ X O + O O X X + X + X + X X $ X X O O q.q.q.q.q.q.q.q.q.q.q.q.q.q.",
"q.q.q.q.q.q.q.q.q.q.q.q.q.q.. O $ % % % % % & > % % > & & & & & > : : : : : : : : : & , & & , & O O q.q.q.q.q.q.q.q.q.q.q.q.q.q.",
"q.q.q.q.q.q.q.q.q.q.q.q.q.q.O $ & > > > > , 3 3 > , 3 4 4 4 3 4 4 3 3 3 4 3 4 3 3 4 3 3 4 4 4 , % o q.q.q.q.q.q.q.q.q.q.q.q.q.q.",
"q.q.q.q.q.q.q.q.q.q.q.q.q.q.O $ > > > > , 3 3 3 3 3 3 4 4 4 4 4 4 4 4 3 4 4 4 4 4 4 4 4 4 5 4 , + X q.q.q.q.q.q.q.q.q.q.q.q.q.q.",
"q.q.q.q.q.q.q.q.q.q.q.q.q.q.. $ > > > > 3 3 3 3 3 3 3 3 4 4 4 4 4 4 4 4 4 4 3 4 4 4 4 4 4 4 4 , % O q.q.q.q.q.q.q.q.q.q.q.q.q.q.",
"q.q.q.q.q.q.q.q.q.q.q.q.q.q.o $ > > > > > , , , 3 3 , < 3 4 4 4 3 4 3 3 4 3 4 4 4 4 4 4 4 3 , , ; % @ O q.q.q.q.q.q.q.q.q.q.q.q.",
"q.q.q.q.q.q.q.q.q.q.q.q.q.q.o $ > > > > > > > < 3 3 , , 3 4 4 4 4 4 4 3 4 4 4 4 4 4 3 3 3 3 > > > > O X q.q.q.q.q.q.q.q.q.q.q.q.",
"q.q.q.q.q.q.q.q.q.q.q.q.q.q.. o > > > > > > < 3 3 3 3 3 3 4 4 3 4 4 4 5 4 4 4 4 4 3 , , > > > > > & O O q.q.q.q.q.q.q.q.q.q.q.q.",
"q.q.q.q.q.q.q.q.q.q.q.q.q.q.O % > > > > > > 3 3 < k < 3 1 , , 1 , , , , , , , , , , > > > > > > > % $ . q.q.q.q.q.q.q.q.q.q.q.q.",
"q.q.q.q.q.q.q.q.q.q.q.q.O O % > > > > > > > > < > > > > % $ $ $ + + + + + + + + $ $ & > > > > > > > O o q.q.q.q.q.q.q.q.q.q.q.q.",
"q.q.q.q.q.q.q.q.q.q.q.q.O $ > > > > > > > > > > > > > > O O o O X O O o X O O o O + $ > > > > > > & $ O q.q.q.q.q.q.q.q.q.q.q.q.",
"q.q.q.q.q.q.q.q.q.q.q.q.O O % > > > > > > > > > > > > > O O q.q.q.q.q.q.q.q.q.q.q.q.@ % > > > > > % @ O q.q.q.q.q.q.q.q.q.q.q.q.",
"q.q.q.q.q.q.q.q.q.q.q.q.o O > > > > > > > > % % > > > > O q.q.q.q.q.q.q.q.q.q.q.q.q.O O O % % % % $ O O q.q.q.q.q.q.q.q.q.q.q.q.",
"q.q.q.q.q.q.q.q.q.q.q.q.O O % > > > > > > % $ O q.q.q.q.q.q.q.q.q.q.q.q.q.q.q.q.q.q.O O O O O O O $ O O q.q.q.q.q.q.q.q.q.q.q.q.",
"q.q.q.q.q.q.q.q.q.q.q.q.O O $ % % % % % % $ O O q.q.q.q.q.q.q.q.q.q.q.q.q.q.q.q.q.q.q.O O O O O O O O q.q.q.q.q.q.q.q.q.q.q.q.q.",
"q.q.q.q.q.q.q.q.q.q.q.q.O @ O O O O O O O O O O q.q.q.q.q.q.q.q.q.q.q.q.q.q.q.q.q.q.q.q.q.q.q.q.q.q.q.q.q.q.q.q.q.q.q.q.q.q.q.q.",
"q.q.q.q.q.q.q.q.q.q.q.q.q.q.q.q.q.q.q.q.q.q.q.q.q.q.q.q.q.q.q.q.q.q.q.q.q.q.q.q.q.q.q.q.q.q.q.q.q.q.q.q.q.q.q.q.q.q.q.q.q.q.q.q.",
"q.q.q.q.q.q.q.q.q.q.q.q.q.q.q.q.q.q.q.q.q.q.q.q.q.q.q.q.q.q.q.q.q.q.q.q.q.q.q.q.q.q.q.q.q.q.q.q.q.q.q.q.q.q.q.q.q.q.q.q.q.q.q.q.",
"q.q.q.q.q.q.q.q.q.q.q.q.q.q.q.q.q.q.q.q.q.q.q.q.q.q.q.q.q.q.q.q.q.q.q.q.q.q.q.q.q.q.q.q.q.q.q.q.q.q.q.q.q.q.q.q.q.q.q.q.q.q.q.q.",
"q.q.q.q.q.q.q.q.q.q.q.q.q.q.q.q.q.q.q.q.q.q.q.q.q.q.q.q.q.q.q.q.q.q.q.q.q.q.q.q.q.q.q.q.q.q.q.q.q.q.q.q.q.q.q.q.q.q.q.q.q.q.q.q.",
"q.q.q.q.q.q.q.q.q.q.q.q.q.q.q.q.q.q.q.q.q.q.q.q.q.q.q.q.q.q.q.q.q.q.q.q.q.q.q.q.q.q.q.q.q.q.q.q.q.q.q.q.q.q.q.q.q.q.q.q.q.q.q.q.",
"q.q.q.q.q.q.q.q.q.q.q.q.q.q.q.q.q.q.q.q.q.q.q.q.q.q.q.q.q.q.q.q.q.q.q.q.q.q.q.q.q.q.q.q.q.q.q.q.q.q.q.q.q.q.q.q.q.q.q.q.q.q.q.q.",
"q.q.q.q.q.q.q.q.q.q.q.q.q.q.q.q.q.q.q.q.q.q.q.q.q.q.q.q.q.q.q.q.q.q.q.q.q.q.q.q.q.q.q.q.q.q.q.q.q.q.q.q.q.q.q.q.q.q.q.q.q.q.q.q.",
"q.q.q.q.q.q.q.q.q.q.q.q.q.q.q.q.q.q.q.q.q.q.q.q.q.q.q.q.q.q.q.q.q.q.q.q.q.q.q.q.q.q.q.q.q.q.q.q.q.q.q.q.q.q.q.q.q.q.q.q.q.q.q.q."
};
