/* XPM */
static char *result[] = {
/* columns rows colors chars-per-pixel */
"64 64 100 2 ",
"   c #3B0001",
".  c #3C0101",
"X  c #3C0202",
"o  c #3D0202",
"O  c #3E0202",
"+  c #3F0302",
"@  c #3E0303",
"#  c #3F0403",
"$  c #4C0A03",
"%  c #4D0B04",
"&  c #4B130C",
"*  c #4C140D",
"=  c #4C150D",
"-  c #4C150E",
";  c #4D160E",
":  c #4D170E",
">  c #4D170F",
",  c #4E180F",
"<  c #5D2919",
"1  c #5E2A19",
"2  c #5D2A1A",
"3  c #5E2B1B",
"4  c #E02707",
"5  c #E02807",
"6  c #E02907",
"7  c #E22D08",
"8  c #E22E08",
"9  c #E22E09",
"0  c #E22F09",
"q  c #E5340A",
"w  c #E5350A",
"e  c #E4350B",
"r  c #DA5D15",
"t  c #F56215",
"y  c #F56216",
"u  c #F56316",
"i  c #F66316",
"p  c #F86816",
"a  c #F86817",
"s  c #F86917",
"d  c #F86918",
"f  c #FA6D18",
"g  c #FA6E18",
"h  c #FA6E19",
"j  c #FA6F19",
"k  c #FA7019",
"l  c #FA701A",
"z  c #FA711A",
"x  c #F77321",
"c  c #F77421",
"v  c #FA7822",
"b  c #FA7922",
"n  c #FA7923",
"m  c #FA7A23",
"M  c #FA7A24",
"N  c #FA7B24",
"B  c #F7832C",
"V  c #F9842D",
"C  c #F9852D",
"Z  c #F9852E",
"A  c #D4C072",
"S  c #D5C173",
"D  c #E6CB76",
"F  c #E6CC76",
"G  c #E4D37E",
"H  c #E4D47F",
"J  c #E5D47F",
"K  c #E5D57F",
"L  c #E6D67F",
"P  c #F6D377",
"I  c #F6D477",
"U  c #F7D477",
"Y  c #E5D680",
"T  c #E6D680",
"R  c #E6D780",
"E  c #E7D881",
"W  c #F5DE80",
"Q  c #F5DE81",
"!  c #F5DF81",
"~  c #F6DE80",
"^  c #F6DE81",
"/  c #F6DF81",
"(  c #F5DF82",
")  c #F6DF82",
"_  c #F5E082",
"`  c #F6E082",
"'  c #F6E083",
"]  c #F3E78A",
"[  c #F3E88A",
"{  c #F3E88B",
"}  c #F4E88A",
"|  c #F5E88A",
" . c #F5E88B",
".. c #F5E98B",
"X. c #F6E98B",
"o. c #F7EA8B",
"O. c #F5EA8C",
"+. c #F6EA8C",
"@. c #F7EB8C",
"#. c #000000",
/* pixels */
"#.#.#.#.#.#.#.#.#.#.#.#.#.#.#.#.#.#.#.#.#.#.#.#.#.#.#.#.#.#.#.#.#.#.#.#.#.#.#.#.#.#.#.#.#.#.#.#.#.#.#.#.#.#.#.#.#.#.#.#.#.#.#.#.",
"#.#.#.#.#.#.#.#.#.#.#.#.#.#.#.#.#.#.#.#.#.#.#.#.#.#.#.#.#.#.#.#.#.#.#.#.#.#.#.#.#.#.#.#.#.#.#.#.#.#.#.#.#.#.#.#.#.#.#.#.#.#.#.#.",
"#.#.#.#.#.#.#.#.#.#.#.#.#.#.#.#.#.#.#.#.#.#.#.#.#.#.#.#.#.#.#.#.#.#.#.#.#.#.#.#.#.#.#.#.#.#.#.#.#.#.#.#.#.#.#.#.#.#.#.#.#.#.5 5 ",
"#.#.#.#.#.#.#.#.#.#.#.#.#.#.#.#.#.#.#.#.#.#.#.#.#.#.#.#.#.#.#.#.#.#.#.#.#.#.#.#.#.#.#.#.#.#.#.#.#.#.#.#.#.#.#.#.#.#.#.#.#.#.5 5 ",
"#.#.#.#.#.#.#.#.#.#.#.#.#.#.#.#.#.#.#.#.#.#.#.#.#.#.#.#.#.#.#.#.#.#.#.#.#.#.#.#.#.#.#.#.#.#.5 5 5 5 5 5 5 5 #.#.#.#.#.#.#.#.#.#.",
"#.#.#.#.#.#.#.#.#.#.#.#.#.#.#.#.#.#.#.#.#.#.#.#.#.#.#.#.#.#.#.#.#.#.#.#.#.#.#.#.#.#.#.#.#.#.5 5 5 5 5 5 5 5 #.#.#.#.#.#.#.#.#.#.",
"#.#.#.#.#.#.#.#.#.#.#.#.#.#.#.#.#.#.#.#.#.#.#.#.#.#.#.#.#.#.#.#.#.#.5 5 #.#.#.#.#.#.5 5 5 5 5 5 5 5 5 5 5 5 5 5 5 5 #.#.#.#.#.#.",
"#.#.#.#.#.#.#.#.#.#.#.#.#.#.#.#.#.#.#.#.#.#.#.#.#.#.#.#.#.#.#.#.#.#.5 5 #.#.#.#.#.#.5 6 9 0 0 0 0 0 0 9 6 5 5 5 5 5 #.#.#.#.#.#.",
"#.#.#.#.#.#.#.#.#.#.#.#.#.#.#.#.#.#.#.#.#.#.#.#.5 5 #.#.#.#.#.#.#.#.#.#.#.#.#.#.5 5 4 8 y s a a s s s u 9 5 5 5 #.#.#.#.5 5 #.#.",
"#.#.#.#.#.#.#.#.#.#.#.#.#.#.#.#.#.#.#.#.#.#.#.#.5 5 #.#.#.#.#.#.#.#.#.#.#.#.#.#.5 6 8 w d k j j d s s u 9 5 5 5 #.#.#.#.5 5 #.#.",
"#.#.#.#.#.#.#.#.#.#.#.#.#.#.#.#.#.#.#.#.#.#.#.#.#.#.#.#.#.#.#.#.#.#.#.#.#.#.5 5 5 9 y d h j j s w 9 0 9 6 5 #.#.#.#.#.#.5 5 5 5 ",
"#.#.#.#.#.#.#.#.#.#.#.#.#.#.#.#.#.#.#.#.#.#.#.#.#.#.#.#.#.#.#.#.#.#.#.#.#.#.5 5 5 0 s k j j j a 9 4 5 5 5 5 #.#.#.#.#.#.5 5 5 5 ",
"#.#.#.#.#.#.#.#.#.#.#.#.#.#.#.#.#.#.#.#.#.#.#.#.#.#.#.#.#.#.#.#.#.#.5 5 5 5 5 5 4 9 a j j j k s 0 5 #.#.#.#.#.#.#.#.#.#.#.#.#.#.",
"#.#.#.#.#.#.#.#.#.#.#.#.#.#.#.#.#.#.#.#.#.#.#.#.#.#.#.#.#.#.#.#.#.#.5 5 5 6 9 0 9 w s j j h d y 9 5 #.#.#.#.#.#.#.#.#.#.#.#.#.#.",
"#.#.#.#.#.#.#.#.#.#.#.#.#.#.#.#.#.#.#.#.#.#.#.#.#.#.#.#.#.#.5 5 5 5 5 5 4 8 y s a a h j j s w 8 6 5 #.#.#.#.#.#.#.#.#.#.5 5 #.#.",
"#.#.#.#.#.#.#.#.#.#.#.#.#.#.#.#.#.#.#.#.#.#.#.#.#.#.#.#.#.#.5 5 5 5 5 6 8 w d z m m l j j a 9 4 5 5 #.#.#.#.#.#.#.#.#.#.5 5 #.#.",
"#.#.#.#.#.#.#.#.#.#.#.#.#.#.#.#.#.#.#.#.#.#.#.#.#.#.#.#.5 5 5 5 5 5 4 8 y d f b I I n g j a 0 5 5 5 #.#.#.#.#.#.#.#.#.#.#.#.#.#.",
"#.#.#.#.#.#.#.#.#.#.#.#.#.#.#.#.#.#.#.#.#.#.#.#.#.#.#.#.5 5 5 5 5 6 8 w d z b C _ ! M g j a 0 5 5 5 #.#.#.#.#.#.#.#.#.#.#.#.#.#.",
"#.#.#.#.#.#.#.#.#.#.#.#.#.#.#.#.#.#.#.#.#.#.#.#.#.#.5 5 5 5 5 5 5 9 y d f b P ( ..Q M g j a 0 5 #.#.#.#.#.#.#.#.#.#.#.#.#.#.#.#.",
"#.#.#.#.#.#.#.#.#.#.#.#.#.#.#.#.#.#.#.#.#.#.#.#.#.#.5 5 5 5 5 5 5 0 s z b C ( ..( P n g j a 0 5 #.#.#.#.#.#.#.#.#.#.#.#.#.#.#.#.",
"#.#.#.#.#.#.#.#.#.#.#.#.#.#.#.#.#.#.#.#.#.#.#.#.5 5 5 5 5 5 5 5 4 9 a m P (  .! V v l j k s 0 5 5 5 #.#.#.#.#.#.#.#.#.#.#.#.#.#.",
"#.#.#.#.#.#.#.#.#.#.#.#.#.#.#.#.#.#.#.#.#.#.#.#.5 5 5 5 5 5 5 6 8 w a N Q O.O.! V v l h d y 9 5 5 5 #.#.#.#.#.#.#.#.#.#.#.#.#.#.",
"#.#.#.#.#.#.#.#.#.#.#.#.#.#.#.#.#.#.#.#.#.#.5 5 5 5 5 5 5 5 4 8 y d f m W O...| ( P b p q 7 6 5 5 5 5 5 #.#.#.#.#.#.#.#.#.#.#.#.",
"#.#.#.#.#.#.#.#.#.#.#.#.#.#.#.#.#.#.#.#.#.#.5 5 5 6 9 0 0 0 9 w d z b C ! O.....O.( Z x e 7 6 5 5 5 5 5 #.#.#.#.#.#.#.#.#.#.#.#.",
"#.#.#.#.#.#.#.#.#.#.#.#.#.#.#.#.#.#.#.#.#.#.5 5 4 8 y s a a a s f b P ( | ........| _ P c t 8 4 5 5 5 5 5 5 #.#.#.#.#.#.#.#.#.#.",
"#.#.#.#.#.#.#.#.#.#.#.#.#.#.#.#.#.#.#.#.#.#.5 6 8 w d k j j j l b C ( O...........| _ I m s w 8 6 5 5 5 5 5 #.#.#.#.#.#.#.#.#.#.",
"#.#.#.#.#.#.#.#.#.#.#.#.#.#.#.#.#.#.#.#.5 5 4 8 y d h j j j g b P ( | ..........O.! C b l h d y 9 5 5 5 5 5 #.#.#.#.#.#.#.#.#.#.",
"#.#.#.#.#.#.#.#.#.#.#.#.#.#.#.#.#.#.#.#.5 6 8 w d k j j j l b C ( O.............O.W m g j j k s 0 5 5 5 5 5 #.#.#.#.#.#.#.#.#.#.",
"#.#.#.#.#.#.#.#.#.#.#.#.#.#.#.#.#.#.#.#.5 9 y d h j g g g b P ( | ..............O.W m g j j j a 9 4 5 5 5 5 #.#.#.#.#.#.#.#.#.#.",
"#.#.#.#.#.#.#.#.#.#.#.#.#.#.#.#.#.#.#.#.5 0 s k j l n M m C ( O.................O.! C b l j j s w 8 6 5 5 5 #.#.#.#.#.#.#.#.#.#.",
"#.#.#.#.#.#.#.#.#.#.#.#.#.#.#.#.#.#.5 5 4 9 a j g b P Q W ! | ....................| ( P b g j h d y 9 5 5 5 5 5 #.#.#.#.#.#.#.#.",
"#.#.#.#.#.#.#.#.#.#.#.#.#.#.#.#.#.#.5 6 8 w s l b C ( O.O.O.........................O.( C b l j k s 0 5 5 5 5 5 #.#.#.#.#.#.#.#.",
"#.#.#.#.#.#.#.#.#.#.#.#.#.#.#.#.5 5 4 8 y d g n P ( X.+.........+.+.....+.+.....+.+...| ` U b g j a 9 4 5 5 5 5 #.#.#.#.#.#.#.#.",
"#.#.#.#.#.#.#.#.#.#.#.#.#.#.#.#.5 6 8 w d k g M ^ { K K ] ....] K K ] ] K K ] ] K K ] ] Y D B b l s w 8 6 5 5 5 #.#.#.#.#.#.#.#.",
"#.#.#.#.#.#.#.#.#.#.#.#.#.#.#.#.5 9 y d h j g m / Y 2 2 T @.+.K 2 2 T T 2 2 T T 2 2 T T 2 < F U n g d y 9 5 5 5 5 5 #.#.#.#.#.#.",
"#.#.#.#.#.#.#.#.#.#.#.#.#.#.#.#.5 0 s k j l b C ` H ; & A T } G - - J J - - J J - - J J - - H ) M g k s 0 5 5 5 5 5 #.#.#.#.#.#.",
"#.#.#.#.#.#.#.#.#.#.#.#.#.#.5 5 5 0 a j g n P ( X.G , @ = 3 E K : : L L : : L L : : L L : ; H / m g j a 9 4 5 5 5 5 #.#.#.#.#.#.",
"#.#.#.#.#.#.#.#.#.#.#.#.#.#.5 5 5 0 a j g M Q O.+.G , .   = S S = = S S = = S S = = S S * : H ` C b l s w 8 6 5 5 5 #.#.#.#.#.#.",
"#.#.#.#.#.#.#.#.#.#.#.#.#.#.5 5 5 0 a j g M W O.+.G , . o # ; ; # # ; ; # # ; ; # # ; ; @ , G X.( P n g d y 9 5 5 5 #.#.#.#.#.#.",
"#.#.#.#.#.#.#.#.#.#.#.#.#.#.5 5 5 0 a j g M W O.+.G , . o o . . o o . . o o . . o o . . . , G +.O.Q M g k s 0 5 5 5 #.#.#.#.#.#.",
"#.#.#.#.#.#.#.#.#.#.#.#.#.#.5 5 5 0 a j g M W O.+.G , . o o o o o o o o o o o o o o o o . , G +.O.W M g j a 0 5 5 5 #.#.#.#.#.#.",
"#.#.#.#.#.#.#.#.#.#.#.#.#.#.5 5 5 0 a j g M W O.+.G , . o o o o o o o o o o o o o o o o . , G +.O.W M g j a 0 5 5 5 #.#.#.#.#.#.",
"#.#.#.#.#.#.#.#.#.#.#.#.#.#.#.#.5 0 s k g M Q O.+.G , . o o o o o o X X o o o o o o X X . , G +.O.W M g k s 0 5 #.#.#.#.#.#.#.#.",
"#.#.#.#.#.#.#.#.#.#.#.#.#.#.#.#.5 9 y d g n P ( X.G , . o o o o o + % % + o o o o + % % O , G +.O.W M g d y 9 5 #.#.#.#.#.#.#.#.",
"#.#.#.#.#.#.#.#.#.#.#.#.#.#.#.#.5 6 8 w s l b C ` H :   o o o o X % r r % X o o X % r r $ > G +.O.Q N a w 8 6 5 #.#.#.#.#.#.#.#.",
"#.#.#.#.#.#.#.#.#.#.#.#.#.#.#.#.5 5 4 9 a j g m / Y 3 = # o o o X % r r % X o o X % r r $ > G X.( P m a 9 4 5 5 #.#.#.#.#.#.#.#.",
"#.#.#.#.#.#.#.#.#.#.#.#.#.#.#.#.#.#.5 0 s k g M ~ [ T A ; . o o o + % % + o o o o + % % O , H ` C b z s 0 5 #.#.#.#.#.#.#.#.#.#.",
"#.#.#.#.#.#.#.#.#.#.#.#.#.#.#.#.#.#.5 9 y d g M W O.@.J , . o o o o X X o o o o o o X X . , H / m f s i 0 5 #.#.#.#.#.#.#.#.#.#.",
"#.#.#.#.#.#.#.#.#.#.#.#.#.#.#.#.#.#.5 6 8 w a N Q O.+.G :   o o o o o o o o X X o o o o   : H / N a w 9 #.#.#.#.#.#.#.#.#.#.#.#.",
"#.#.#.#.#.#.#.#.#.#.#.#.#.#.#.#.#.#.5 5 4 9 a m P ( X.K 3 = # o o o o o o + % % + o o # = 3 Y / N a 9 4 #.#.#.#.#.#.#.#.#.#.#.#.",
"#.#.#.#.#.#.#.#.#.#.#.#.#.#.#.#.#.#.#.#.5 0 s z b C ( { R A =   o o o o X % r r % X . ; A T { ^ N a 0 5 #.#.#.#.#.#.#.#.#.#.#.#.",
"#.#.#.#.#.#.#.#.#.#.#.#.#.#.#.#.#.#.#.#.5 0 i s f b P ( o.R 3 = # o o o X % r r % X . , J o.( P m a 0 5 #.#.#.#.#.#.#.#.#.#.#.#.",
"#.#.#.#.#.#.#.#.#.#.#.#.#.#.#.#.#.#.#.#.#.#.9 w s z b C ( { R A =   . . . O $ $ O .   : H ' C b z s 0 5 #.#.#.#.#.#.#.#.#.#.#.#.",
"#.#.#.#.#.#.#.#.#.#.#.#.#.#.#.#.#.#.#.#.#.#.4 9 i s f b P ( o.R 3 : , , , , > > , , : 1 F U b f s i 0 5 #.#.#.#.#.#.#.#.#.#.#.#.",
"#.#.#.#.#.#.#.#.#.#.#.#.#.#.#.#.#.#.#.#.#.#.#.#.9 w s z b C ( { Y H H H H H H H H H H F B b z s w 9 #.#.#.#.#.#.#.#.#.#.#.#.#.#.",
"#.#.#.#.#.#.#.#.#.#.#.#.#.#.#.#.#.#.#.#.#.#.#.#.4 9 i s f b P ^ / / / / / / / / / / ) U b f s i 9 4 #.#.#.#.#.#.#.#.#.#.#.#.#.#.",
"#.#.#.#.#.#.#.#.#.#.#.#.#.#.#.#.#.#.#.#.#.#.#.#.#.#.9 w s z m N N N M M M M M M M M N m z s w 9 #.#.#.#.#.#.#.#.#.#.#.#.#.#.#.#.",
"#.#.#.#.#.#.#.#.#.#.#.#.#.#.#.#.#.#.#.#.#.#.#.#.#.#.4 9 i s a a a a g g g g g g g g a a s i 9 4 #.#.#.#.#.#.#.#.#.#.#.#.#.#.#.#.",
"#.#.#.#.#.#.#.#.#.#.#.#.#.#.#.#.#.#.#.#.#.#.#.#.#.#.#.#.0 0 0 0 9 w d k j j j j k d w 9 0 0 #.#.#.#.#.#.#.#.#.#.#.#.#.#.#.#.#.#.",
"#.#.#.#.#.#.#.#.#.#.#.#.#.#.#.#.#.#.#.#.#.#.#.#.#.#.#.#.5 5 5 5 4 9 i s a a a a s i 9 4 5 5 #.#.#.#.#.#.#.#.#.#.#.#.#.#.#.#.#.#.",
"#.#.#.#.#.#.#.#.#.#.#.#.#.#.#.#.#.#.#.#.#.#.#.#.#.#.#.#.#.#.#.#.#.#.0 0 0 0 0 0 0 0 #.#.#.#.#.#.#.#.#.#.#.#.#.#.#.#.#.#.#.#.#.#.",
"#.#.#.#.#.#.#.#.#.#.#.#.#.#.#.#.#.#.#.#.#.#.#.#.#.#.#.#.#.#.#.#.#.#.5 5 5 5 5 5 5 5 #.#.#.#.#.#.#.#.#.#.#.#.#.#.#.#.#.#.#.#.#.#.",
"#.#.#.#.#.#.#.#.#.#.#.#.#.#.#.#.#.#.#.#.#.#.#.#.#.#.#.#.#.#.#.#.#.#.#.#.#.#.#.#.#.#.#.#.#.#.#.#.#.#.#.#.#.#.#.#.#.#.#.#.#.#.#.#.",
"#.#.#.#.#.#.#.#.#.#.#.#.#.#.#.#.#.#.#.#.#.#.#.#.#.#.#.#.#.#.#.#.#.#.#.#.#.#.#.#.#.#.#.#.#.#.#.#.#.#.#.#.#.#.#.#.#.#.#.#.#.#.#.#."
};
