/* XPM */
static char *result[] = {
/* columns rows colors chars-per-pixel */
"64 64 102 2 ",
"   c #3B0001",
".  c #3C0101",
"X  c #3C0102",
"o  c #3C0202",
"O  c #3D0202",
"+  c #3E0202",
"@  c #3F0302",
"#  c #3E0303",
"$  c #3F0403",
"%  c #4C0A03",
"&  c #4E0B03",
"*  c #4D0B04",
"=  c #4F0C04",
"-  c #4B130C",
";  c #4C140D",
":  c #4C150D",
">  c #4C150E",
",  c #4D160E",
"<  c #4D170E",
"1  c #4D170F",
"2  c #4E180F",
"3  c #5D2919",
"4  c #5E2A19",
"5  c #5D2A1A",
"6  c #5E2B1B",
"7  c #E02707",
"8  c #E02807",
"9  c #E02907",
"0  c #E22E08",
"q  c #E22E09",
"w  c #E22F09",
"e  c #E5350A",
"r  c #D95C15",
"t  c #DA5D15",
"y  c #EA6617",
"u  c #F56216",
"i  c #F56316",
"p  c #F66316",
"a  c #F86817",
"s  c #F86917",
"d  c #F86918",
"f  c #F86A18",
"g  c #FA6D18",
"h  c #FA6E18",
"j  c #FA6E19",
"k  c #FA6F19",
"l  c #FA7019",
"z  c #FA701A",
"x  c #FA711A",
"c  c #FA7822",
"v  c #FA7922",
"b  c #FA7923",
"n  c #FA7A23",
"m  c #FA7A24",
"M  c #FA7B24",
"N  c #F7832C",
"B  c #F9832C",
"V  c #F9842C",
"C  c #F9842D",
"Z  c #F9852D",
"A  c #D4C072",
"S  c #D5C173",
"D  c #E6CB76",
"F  c #E6CC76",
"G  c #E4D37E",
"H  c #E4D47F",
"J  c #E5D47F",
"K  c #E5D57F",
"L  c #E6D67F",
"P  c #F6D377",
"I  c #F6D477",
"U  c #F7D477",
"Y  c #F6D478",
"T  c #F6D578",
"R  c #F6D579",
"E  c #E5D680",
"W  c #E6D680",
"Q  c #E6D780",
"!  c #E7D881",
"~  c #F5DE80",
"^  c #F5DE81",
"/  c #F5DF81",
"(  c #F6DE80",
")  c #F6DE81",
"_  c #F6DF81",
"`  c #F5DF82",
"'  c #F6DF82",
"]  c #F5E082",
"[  c #F6E082",
"{  c #F6E083",
"}  c #F3E78A",
"|  c #F3E88A",
" . c #F3E88B",
".. c #F4E88A",
"X. c #F5E88A",
"o. c #F5E98B",
"O. c #F6E98B",
"+. c #F7EA8B",
"@. c #F5EA8C",
"#. c #F6EA8C",
"$. c #F7EB8C",
"%. c #000000",
/* pixels */
"%.%.%.%.%.%.%.%.%.%.%.%.%.%.%.%.%.%.%.%.%.%.%.%.%.%.%.%.%.%.%.%.%.%.%.%.%.%.%.%.%.%.%.%.%.%.%.%.%.%.%.%.%.%.%.%.%.%.%.%.%.%.%.%.",
"%.%.%.%.%.%.%.%.%.%.%.%.%.%.%.%.%.%.%.%.%.%.%.%.%.%.%.%.%.%.%.%.%.%.%.%.%.%.%.%.%.%.%.%.%.%.%.%.%.%.%.%.%.%.%.%.%.%.%.%.%.%.%.%.",
"%.%.%.%.%.%.%.%.%.%.%.%.%.%.%.%.%.%.%.%.%.%.%.%.%.%.%.%.%.%.%.%.%.%.%.%.%.%.%.%.%.%.%.%.%.%.%.%.%.%.%.%.%.%.%.%.%.%.%.%.%.%.%.%.",
"%.%.%.%.%.%.%.%.%.%.%.%.%.%.%.%.%.%.%.%.%.%.%.%.%.%.%.%.%.%.%.%.%.%.%.%.%.%.%.%.%.%.%.%.%.%.%.%.%.%.%.%.%.%.%.%.%.%.%.%.%.%.%.%.",
"%.%.%.%.%.%.%.%.%.%.%.%.%.%.%.%.%.%.%.%.%.%.%.%.8 8 8 8 8 8 %.%.%.%.%.%.%.%.%.%.%.%.%.%.%.%.%.%.%.%.%.%.%.%.%.%.%.%.%.%.%.%.%.%.",
"%.%.%.%.%.%.%.%.%.%.%.%.%.%.%.%.%.%.%.%.%.%.%.%.w q 9 8 8 8 %.%.%.%.%.%.%.%.%.%.%.%.%.%.%.%.%.%.%.%.%.%.%.%.%.%.%.%.%.%.%.%.%.%.",
"%.%.%.%.%.%.%.%.%.%.%.%.%.%.%.%.%.%.%.%.%.%.8 w p p q 8 8 8 8 8 8 8 %.%.%.%.%.%.%.%.%.%.%.%.%.%.%.%.%.%.%.%.%.%.%.%.%.%.%.%.%.%.",
"%.%.%.%.%.%.%.%.%.%.%.%.%.%.%.%.%.%.%.%.%.%.8 q p p q 8 q w w q 9 8 %.%.%.%.%.%.%.%.%.%.%.%.%.%.%.%.%.%.%.%.%.%.%.%.%.%.%.%.%.%.",
"%.%.%.%.%.%.%.%.%.%.%.%.%.%.%.%.%.%.%.%.8 8 8 9 q q 8 q i s s u 0 7 8 8 %.%.%.%.%.%.%.%.%.%.%.%.%.%.%.%.%.%.%.%.%.%.%.%.%.%.%.%.",
"%.%.%.%.%.%.%.%.%.%.%.%.%.%.%.%.%.%.%.%.8 8 8 8 8 8 8 q i f k d e 0 9 8 %.%.%.%.%.%.%.%.%.%.%.%.%.%.%.%.%.%.%.%.%.%.%.%.%.%.%.%.",
"%.%.%.%.%.%.%.%.%.%.%.%.%.%.%.%.%.%.%.%.8 8 %.%.%.%.8 9 0 e d k f i q 8 %.%.%.%.%.%.%.%.%.%.%.%.%.%.%.%.%.%.%.%.%.%.%.%.%.%.%.%.",
"%.%.%.%.%.%.%.%.%.%.%.%.%.%.%.%.%.%.%.%.8 8 %.%.%.%.8 8 7 0 u s s i q 8 %.%.%.%.%.%.%.%.%.%.%.%.%.%.%.%.%.%.%.%.%.%.%.%.%.%.%.%.",
"%.%.%.%.%.%.%.%.%.%.%.%.%.%.%.%.%.%.%.%.%.%.%.%.%.%.%.%.8 9 q w w q 8 8 8 8 8 8 %.%.%.%.%.%.%.%.%.%.%.%.%.%.%.%.%.%.%.%.%.%.%.%.",
"%.%.%.%.%.%.%.%.%.%.%.%.%.%.%.%.%.%.%.%.%.%.%.%.%.%.%.%.8 8 8 8 8 8 q q 9 8 8 8 %.%.%.%.%.%.%.%.%.%.%.%.%.%.%.%.%.%.%.%.%.%.%.%.",
"%.%.%.%.%.%.%.%.%.%.%.%.%.%.%.%.%.%.8 8 %.%.%.%.%.%.%.%.%.%.8 8 7 0 i i q 8 8 8 8 8 %.%.%.%.%.%.8 8 %.%.%.%.%.%.%.%.%.%.%.%.%.%.",
"%.%.%.%.%.%.%.%.%.%.%.%.%.%.%.%.%.%.8 8 %.%.%.%.%.%.%.%.%.%.8 9 0 e f s w 8 8 8 8 8 %.%.%.%.%.%.8 8 %.%.%.%.%.%.%.%.%.%.%.%.%.%.",
"%.%.%.%.%.%.%.%.%.%.%.%.8 8 %.%.%.%.%.%.%.%.%.%.%.%.%.%.8 8 8 q u d k a q 7 8 8 8 8 8 8 %.%.%.%.%.%.%.%.%.%.%.%.%.%.%.%.%.%.%.%.",
"%.%.%.%.%.%.%.%.%.%.%.%.8 8 %.%.%.%.%.%.%.%.%.%.%.%.%.%.8 8 8 w s l k s e 0 9 8 8 8 8 8 %.%.%.%.%.%.%.%.%.%.%.%.%.%.%.%.%.%.%.%.",
"%.%.%.%.%.%.8 8 %.%.%.%.8 8 8 8 %.%.%.%.%.%.%.%.%.%.8 8 8 8 7 q a k h h d u 0 7 8 8 8 8 8 8 %.%.%.%.8 8 %.%.%.%.%.%.%.%.%.%.%.%.",
"%.%.%.%.%.%.8 8 %.%.%.%.8 8 8 8 %.%.%.%.%.%.%.%.%.%.8 8 8 9 0 e s z b b x d e 0 9 8 8 8 8 8 %.%.%.%.8 8 %.%.%.%.%.%.%.%.%.%.%.%.",
"%.%.%.%.%.%.%.%.8 8 8 8 8 8 %.%.%.%.%.%.%.%.%.%.8 8 8 8 7 0 u d h b Y Y v g d u 0 7 8 8 8 8 %.%.%.%.%.%.%.%.%.%.%.%.%.%.%.%.%.%.",
"%.%.%.%.%.%.%.%.8 8 8 8 8 8 %.%.%.%.%.%.%.%.%.%.8 8 8 9 0 e d l h b Y R V v x d e 0 9 8 8 8 %.%.%.%.%.%.%.%.%.%.%.%.%.%.%.%.%.%.",
"%.%.%.%.%.%.%.%.8 8 %.%.8 8 %.%.%.%.%.%.%.%.%.%.8 8 7 0 u d j k k z c B T I b h d u 0 7 8 8 8 8 %.%.%.%.%.%.%.%.%.%.%.%.%.%.%.%.",
"%.%.%.%.%.%.%.%.8 8 %.%.8 8 %.%.%.%.%.%.%.%.%.%.8 9 0 e d l k k k z c C ] / m h l d e q w q 9 8 %.%.%.%.%.%.%.%.%.%.%.%.%.%.%.%.",
"%.%.%.%.%.%.%.%.%.%.%.%.%.%.%.%.%.%.%.%.%.%.8 8 7 0 u d j k k k h v P ` o.~ n h k j s a s u 0 7 8 8 %.%.%.%.%.%.%.%.%.%.%.%.%.%.",
"%.%.%.%.%.%.%.%.%.%.%.%.%.%.%.%.%.%.%.%.%.%.8 9 0 e d l k k k z v Z ` @.@./ Z v z k k k l d e 0 9 8 %.%.%.%.%.%.%.%.%.%.%.%.%.%.",
"%.%.%.%.%.%.8 8 %.%.%.%.%.%.%.%.%.%.%.%.8 8 7 0 u d j k k k h v P ` X.o.o.X.` P v h k k k j d u q 8 %.%.%.%.%.%.%.%.%.%.%.%.%.%.",
"%.%.%.%.%.%.8 8 %.%.%.%.%.%.%.%.%.%.%.%.8 9 0 e d l k k k z v Z ` @.o.o.o.o.@.` Z v z k k k l s w 8 %.%.%.%.%.%.%.%.%.%.%.%.%.%.",
"%.%.%.%.%.%.%.%.%.%.%.%.%.%.%.%.%.%.%.%.8 q u d j k h h h v P ` X.o.o.o.o.o.o.X.` P v h k k k a q 7 8 8 %.%.%.%.%.%.%.%.%.%.%.%.",
"%.%.%.%.%.%.%.%.%.%.%.%.%.%.%.%.%.%.%.%.8 w s l k z b m n Z ` @.o.o.o.o.o.o.o.o.@.` Z v z k k s e 0 9 8 %.%.%.%.%.%.%.%.%.%.%.%.",
"%.%.%.%.%.%.%.%.%.%.%.%.%.%.%.%.%.%.8 8 7 q a k h v P ^ ~ / X.o.o.o.o.o.o.o.o.o.o.X.` P v h k j d u q 8 %.%.%.%.%.%.%.%.%.%.%.%.",
"%.%.%.%.%.%.%.%.%.%.%.%.%.%.%.%.%.%.8 9 0 e s z v Z ` @.@.@.o.o.o.o.o.o.o.o.o.o.o.o.@.` Z v z k l s w 8 %.%.%.%.%.%.%.%.%.%.%.%.",
"%.%.%.%.%.%.%.%.%.%.%.%.%.%.%.%.8 8 7 0 u d h b P ` O.#.o.o.o.o.#.#.o.o.#.#.o.o.#.#.o.X.[ U v h k a q 7 8 8 %.%.%.%.%.%.%.%.%.%.",
"%.%.%.%.%.%.%.%.%.%.%.%.%.%.%.%.8 9 0 e d l h m )  .K K } o.o.} K K } } K K } } K K } } E D N v z s e 0 9 8 %.%.%.%.%.%.%.%.%.%.",
"%.%.%.%.%.%.%.%.%.%.%.%.%.%.%.%.8 q u d j k h n _ E 5 5 W $.#.K 5 5 W W 5 5 W W 5 5 W W 5 3 F U b h d u q 8 %.%.%.%.%.%.%.%.%.%.",
"%.%.%.%.%.%.%.%.%.%.%.%.%.%.%.%.8 w s l k z v Z [ H , - A W ..G > > J J > > J J > > J J > > H ' m h l s w 8 %.%.%.%.%.%.%.%.%.%.",
"%.%.%.%.%.%.%.%.%.%.%.%.%.%.%.%.8 w a k h b P ` O.G 2 # : 6 ! K < < L L < < L L < < L L < , H _ n h k a q 7 8 8 %.%.%.%.%.%.%.%.",
"%.%.%.%.%.%.%.%.%.%.%.%.%.%.%.%.8 w a k h m ^ @.#.G 2 .   : S S : : S S : : S S : : S S ; < H [ Z v z s e 0 9 8 %.%.%.%.%.%.%.%.",
"%.%.%.%.%.%.%.%.%.%.%.%.%.%.%.%.8 w a k h m ~ @.#.G 2 . O $ , , $ $ , , $ $ , , $ $ , , # 2 G O.` P b h d u q 8 %.%.%.%.%.%.%.%.",
"%.%.%.%.%.%.%.%.%.%.%.%.%.%.%.%.8 w a k h m ~ @.#.G 2 . O O . . O O . . O O . . O O . . . 2 G #.@.^ m h l s w 8 %.%.%.%.%.%.%.%.",
"%.%.%.%.%.%.%.%.%.%.%.%.%.%.%.%.8 w a k h m ~ @.#.G 2 . O O O O O O o o O O O O O O o o . 2 G #.@.~ m h k a w 8 %.%.%.%.%.%.%.%.",
"%.%.%.%.%.%.%.%.%.%.%.%.%.%.%.%.8 w a k h m ~ @.#.G 2 . O O O O O @ * * @ O O O O @ * * + 2 G #.@.~ m h k a w 8 %.%.%.%.%.%.%.%.",
"%.%.%.%.%.%.%.%.%.%.%.%.%.%.%.%.8 w s l h m ^ @.#.G 2 . O O O O o * r r * o O O o * r r % 1 G #.@.~ m h l s w 8 %.%.%.%.%.%.%.%.",
"%.%.%.%.%.%.%.%.%.%.%.%.%.%.%.%.8 w p d h b P ` O.G 2 . O O O O X = y y = X O O X = y y & 1 G #.@.~ m h d u q 8 %.%.%.%.%.%.%.%.",
"%.%.%.%.%.%.%.%.%.%.%.%.%.%.%.%.%.%.q e s z v Z [ H <   O O O O X = y y = X O O X = y y & 1 G #.@.^ M a e 0 9 8 %.%.%.%.%.%.%.%.",
"%.%.%.%.%.%.%.%.%.%.%.%.%.%.%.%.%.%.7 q a k h n _ E 6 : $ O O O o * r r * o O O o * r r % 1 G O.` P n a q 7 8 8 %.%.%.%.%.%.%.%.",
"%.%.%.%.%.%.%.%.%.%.%.%.%.%.%.%.%.%.8 w s l h m ( | W A , . O O O @ * * @ O O O O @ * * + 2 H [ Z v x s w 8 %.%.%.%.%.%.%.%.%.%.",
"%.%.%.%.%.%.%.%.%.%.%.%.%.%.%.%.%.%.8 w p d h m ~ @.$.J 2 . O O O O o o O O O O O O o o . 2 H _ n g s p w 8 %.%.%.%.%.%.%.%.%.%.",
"%.%.%.%.%.%.%.%.%.%.%.%.%.%.%.%.%.%.%.%.q e a M ^ @.#.G <   O O O O O O O O o o O O O O   < H _ M a e q %.%.%.%.%.%.%.%.%.%.%.%.",
"%.%.%.%.%.%.%.%.%.%.%.%.%.%.%.%.%.%.%.%.7 q a n P ` O.K 6 : $ O O O O O O @ * * @ O O $ : 6 E _ M a q 7 %.%.%.%.%.%.%.%.%.%.%.%.",
"%.%.%.%.%.%.%.%.%.%.%.%.%.%.%.%.%.%.%.%.8 w s x v Z `  .Q A :   O O O O o * t t * o . , A W  .) M a w 8 %.%.%.%.%.%.%.%.%.%.%.%.",
"%.%.%.%.%.%.%.%.%.%.%.%.%.%.%.%.%.%.%.%.8 w p s g v P ` +.Q 6 : $ O O O o * t t * o . 2 J +.` P n a w 8 %.%.%.%.%.%.%.%.%.%.%.%.",
"%.%.%.%.%.%.%.%.%.%.%.%.%.%.%.%.%.%.%.%.%.%.q e s x v Z `  .Q A :   . . . + % % + .   < H { Z v x s w 8 %.%.%.%.%.%.%.%.%.%.%.%.",
"%.%.%.%.%.%.%.%.%.%.%.%.%.%.%.%.%.%.%.%.%.%.7 q p s g v P ` +.Q 6 < 2 2 2 2 1 1 2 2 < 4 F U v g s p w 8 %.%.%.%.%.%.%.%.%.%.%.%.",
"%.%.%.%.%.%.%.%.%.%.%.%.%.%.%.%.%.%.%.%.%.%.%.%.q e s x v Z `  .E H H H H H H H H H H F N v x s e q %.%.%.%.%.%.%.%.%.%.%.%.%.%.",
"%.%.%.%.%.%.%.%.%.%.%.%.%.%.%.%.%.%.%.%.%.%.%.%.7 q p s g v P ) _ _ _ _ _ _ _ _ _ _ ' U v g s p q 7 %.%.%.%.%.%.%.%.%.%.%.%.%.%.",
"%.%.%.%.%.%.%.%.%.%.%.%.%.%.%.%.%.%.%.%.%.%.%.%.%.%.q e s x n M M M m m m m m m m m M n x s e q %.%.%.%.%.%.%.%.%.%.%.%.%.%.%.%.",
"%.%.%.%.%.%.%.%.%.%.%.%.%.%.%.%.%.%.%.%.%.%.%.%.%.%.7 q p s a a a a h h h h h h h h a a s p q 7 %.%.%.%.%.%.%.%.%.%.%.%.%.%.%.%.",
"%.%.%.%.%.%.%.%.%.%.%.%.%.%.%.%.%.%.%.%.%.%.%.%.%.%.%.%.w w w w q e d l k k k k l d e q w w %.%.%.%.%.%.%.%.%.%.%.%.%.%.%.%.%.%.",
"%.%.%.%.%.%.%.%.%.%.%.%.%.%.%.%.%.%.%.%.%.%.%.%.%.%.%.%.8 8 8 8 7 q p s a a a a s p q 7 8 8 %.%.%.%.%.%.%.%.%.%.%.%.%.%.%.%.%.%.",
"%.%.%.%.%.%.%.%.%.%.%.%.%.%.%.%.%.%.%.%.%.%.%.%.%.%.%.%.%.%.%.%.%.%.w w w w w w w w %.%.%.%.%.%.%.%.%.%.%.%.%.%.%.%.%.%.%.%.%.%.",
"%.%.%.%.%.%.%.%.%.%.%.%.%.%.%.%.%.%.%.%.%.%.%.%.%.%.%.%.%.%.%.%.%.%.8 8 8 8 8 8 8 8 %.%.%.%.%.%.%.%.%.%.%.%.%.%.%.%.%.%.%.%.%.%.",
"%.%.%.%.%.%.%.%.%.%.%.%.%.%.%.%.%.%.%.%.%.%.%.%.%.%.%.%.%.%.%.%.%.%.%.%.%.%.%.%.%.%.%.%.%.%.%.%.%.%.%.%.%.%.%.%.%.%.%.%.%.%.%.%.",
"%.%.%.%.%.%.%.%.%.%.%.%.%.%.%.%.%.%.%.%.%.%.%.%.%.%.%.%.%.%.%.%.%.%.%.%.%.%.%.%.%.%.%.%.%.%.%.%.%.%.%.%.%.%.%.%.%.%.%.%.%.%.%.%."
};
