/* XPM */
static char *result[] = {
/* columns rows colors chars-per-pixel */
"64 64 139 2 ",
"   c #1F171F",
".  c #1D1E1E",
"X  c #1C1720",
"o  c #1F1D20",
"O  c #211E21",
"+  c #1F2020",
"@  c #242424",
"#  c #292726",
"$  c #242B24",
"%  c #2A2927",
"&  c #2D2C2C",
"*  c #332E2C",
"=  c #263227",
"-  c #2D3425",
";  c #273728",
":  c #293728",
">  c #2A3D2A",
",  c #303725",
"<  c #343B26",
"1  c #36302E",
"2  c #38312F",
"3  c #333333",
"4  c #3B3534",
"5  c #3F3837",
"6  c #423735",
"7  c #423936",
"8  c #453A39",
"9  c #483B3A",
"0  c #2C432B",
"q  c #2D4C2D",
"w  c #364127",
"e  c #3C4727",
"r  c #30452B",
"t  c #3C4B29",
"y  c #32522F",
"u  c #3E5C2E",
"i  c #315631",
"p  c #346234",
"a  c #356937",
"s  c #3A6F37",
"d  c #3C7639",
"f  c #3B783A",
"g  c #4D433D",
"h  c #51443F",
"j  c #45642F",
"k  c #4C632C",
"l  c #4D7A35",
"z  c #457A38",
"x  c #5D7D30",
"c  c #4E4542",
"v  c #544541",
"b  c #584743",
"n  c #564943",
"m  c #5C4A45",
"M  c #5C514B",
"N  c #604C47",
"B  c #624E49",
"V  c #63544C",
"C  c #6B544E",
"Z  c #66584E",
"A  c #68584F",
"S  c #6F5750",
"D  c #675950",
"F  c #6C5851",
"G  c #705751",
"H  c #745C54",
"J  c #795E57",
"K  c #7C5F58",
"L  c #736056",
"P  c #746459",
"I  c #7B645A",
"U  c #7C695D",
"Y  c #82655C",
"T  c #85695F",
"R  c #846D60",
"E  c #896D62",
"W  c #867163",
"Q  c #8A7466",
"!  c #8D7769",
"~  c #917467",
"^  c #937669",
"/  c #957C6C",
"(  c #997D6D",
")  c #9B7F70",
"_  c #3E823D",
"`  c #42863E",
"'  c #49853B",
"]  c #448D3F",
"[  c #498F3E",
"{  c #5E8031",
"}  c #5E8B35",
"|  c #4E903D",
" . c #50933D",
".. c #569B3F",
"X. c #628431",
"o. c #6FA639",
"O. c #7DAC37",
"+. c #71AB3B",
"@. c #7DAE38",
"#. c #7DB038",
"$. c #7FB83A",
"%. c #428C40",
"&. c #419041",
"*. c #479D45",
"=. c #48A346",
"-. c #4FA946",
";. c #4FAC48",
":. c #56A743",
">. c #5AA942",
",. c #5CB547",
"<. c #5FB846",
"1. c #54B349",
"2. c #67B241",
"3. c #6AB441",
"4. c #63BA46",
"5. c #69BE45",
"6. c #71BA41",
"7. c #6FC144",
"8. c #71C645",
"9. c #78C643",
"0. c #7BCB43",
"q. c #80B439",
"w. c #82BC3C",
"e. c #85C93F",
"r. c #91D03D",
"t. c #96DA3F",
"y. c #9D8272",
"u. c #A28675",
"i. c #A58977",
"p. c #A78A78",
"a. c #AB8E7B",
"s. c #AE907D",
"d. c #B0927E",
"f. c #85CB40",
"g. c #8BD441",
"h. c #92D740",
"j. c #94DB41",
"k. c #B59681",
"l. c #000000",
/* pixels */
"l.l.l.l.l.l.l.l.l.l.l.l.l.l.l.l.l.l.l.l.l.l.l.l.l.l.l.l.l.l.l.l.l.l.l.l.l.l.l.l.l.l.l.l.l.l.l.l.l.l.l.l.l.l.l.l.l.l.l.l.l.l.l.l.",
"l.l.l.l.l.l.l.l.l.l.l.l.l.l.l.l.l.l.l.l.l.l.l.l.l.l.l.l.l.l.l.l.l.l.l.l.l.l.l.l.l.l.l.l.l.l.l.l.l.l.l.l.l.l.l.l.l.l.l.l.l.l.l.l.",
"l.l.l.l.l.l.l.l.l.l.l.l.l.l.l.l.l.l.l.l.l.l.l.l.l.l.l.l.l.l.l.l.l.l.l.l.l.l.l.l.l.l.l.l.l.l.l.l.l.l.l.l.l.l.l.l.l.l.l.l.l.l.l.l.",
"l.l.l.l.l.l.l.l.l.l.l.l.l.l.l.l.l.l.l.l.l.l.l.l.l.l.l.l.l.l.l.l.l.l.l.l.l.l.l.l.l.l.l.l.l.l.l.l.l.l.l.l.l.l.l.l.l.l.l.l.l.l.l.l.",
"l.l.l.l.l.l.l.l.l.l.l.l.l.l.l.l.l.l.l.l.l.l.l.l.l.l.l.l.l.l.l.l.l.l.l.l.l.l.l.l.l.l.l.l.l.l.l.l.l.l.l.l.l.l.l.l.l.l.l.l.l.l.l.l.",
"l.l.l.l.l.l.l.l.l.l.l.l.l.l.l.l.l.l.l.l.l.l.l.l.l.l.l.l.l.l.l.l.l.l.l.l.l.l.l.l.l.l.l.l.l.l.l.l.l.l.l.l.l.l.l.l.l.l.l.l.l.l.l.l.",
"l.l.l.l.l.l.l.l.l.l.l.l.l.l.l.l.l.l.l.l.l.l.l.l.l.l.l.l.l.l.l.l.l.l.l.l.l.l.l.l.l.l.l.l.l.l.l.l.l.l.l.l.l.l.l.l.l.l.l.l.l.l.l.l.",
"l.l.l.l.l.l.l.l.l.l.l.l.l.l.l.l.l.l.l.l.l.l.l.l.l.l.l.l.l.l.l.l.l.l.l.l.l.l.l.l.l.l.l.l.l.l.l.l.l.l.l.l.l.l.l.l.l.l.l.l.l.l.l.l.",
"l.l.l.l.l.l.l.l.l.l.l.l.l.l.l.l.l.l.l.l.l.l.l.l.l.l.l.l.l.l.l.l.l.l.l.l.l.l.l.l.l.l.l.l.l.l.l.l.l.l.l.l.l.l.l.l.l.l.l.l.l.l.l.l.",
"l.l.l.l.l.l.l.l.l.l.l.l.l.l.l.l.l.l.l.l.l.l.l.l.l.l.l.l.l.l.l.. X l.l.l.l.l.l.l.l.l.l.l.l.l.l.l.l.l.l.l.l.l.l.l.l.l.l.l.l.l.l.l.",
"l.l.l.l.l.l.l.l.l.l.l.l.l.l.l.l.l.l.l.l.l.l.l.l.l.l.l.l.l.l.- - : $ l.l.l.l.l.l.l.l.l.l.l.l.l.l.l.l.l.l.l.l.l.l.l.l.l.l.l.l.l.l.",
"l.l.l.l.l.l.l.l.l.l.l.l.l.l.l.l.l.l.l.l.l.l.l.l.l.l.l.l.l.w x } z p : l.l.l.l.l.l.l.l.l.l.l.l.l.l.l.l.l.l.l.l.l.l.l.l.l.l.l.l.l.",
"l.l.l.l.l.l.l.l.l.l.l.l.l.l.l.l.l.l.l.l.l.l.l.l.l.l.l.l., k $.g.5.[ i % l.l.l.l.l.l.l.l.l.l.l.l.l.l.l.l.l.l.l.l.l.l.l.l.l.l.l.l.",
"l.l.l.l.l.l.l.l.l.l.l.l.l.l.l.l.l.l.l.l.l.l.l.l.l.l.o e X.#.r.j.g.6.| a :   l.l.l.l.l.l.l.l.l.l.l.l.l.l.l.l.l.l.l.l.l.l.l.l.l.l.",
"l.l.l.l.l.l.l.l.l.l.l.l.l.l.l.l.l.l.l.l.l.l.l.l.l.l.o e +.j.t.t.g.9.,.%.i : l.l.l.l.l.l.l.l.l.l.l.l.l.l.l.l.l.l.l.l.l.l.l.l.l.l.",
"l.l.l.l.l.l.l.l.l.l.l.l.l.l.l.l.l.l.l.l.l.l.l.l.l.l.O q | 7.g.r.8.,.;.*.%.s > @ l.l.l.l.l.l.l.l.l.l.l.l.l.l.l.l.l.l.l.l.l.l.l.l.",
"l.l.l.l.l.l.l.l.l.l.l.l.l.l.l.l.l.l.l.l.l.l.l.l.l.l.O ; a ..e.e...%.:.,.1.` > . l.l.l.l.l.l.l.l.l.l.l.l.l.l.l.l.l.l.l.l.l.l.l.l.",
"l.l.l.l.l.l.l.l.l.l.l.l.l.l.l.l.l.l.l.l.l.l.l.l.l.l.@ @ ; j w.$.j u +.0.,.` > O @ @ l.l.l.l.l.l.l.l.l.l.l.l.l.l.l.l.l.l.l.l.l.l.",
"l.l.l.l.l.l.l.l.l.l.l.l.l.l.l.l.l.l.l.l.l.l.l.l.l.l.@ O X < X.X., e @.g.<.&.p 0 $ @ l.l.l.l.l.l.l.l.l.l.l.l.l.l.l.l.l.l.l.l.l.l.",
"l.l.l.l.l.l.l.l.l.l.l.l.l.l.l.l.l.l.l.l.l.l.l.l.l.l.l.l.@ $ - - @ t @.g.<.=.*.f , O l.l.l.l.l.l.l.l.l.l.l.l.l.l.l.l.l.l.l.l.l.l.",
"l.l.l.l.l.l.l.l.l.l.l.l.l.l.l.l.l.l.l.l.l.l.l.l.l.l.l.l.l.@ X $ 0 l e.r.9.4.1.%.0 O l.l.l.l.l.l.l.l.l.l.l.l.l.l.l.l.l.l.l.l.l.l.",
"l.l.l.l.l.l.l.l.l.l.l.l.l.l.l.l.l.l.l.l.l.l.l.l.l.l.l.l.l.l.O > f >.f.t.h.0.,._ 0 O l.l.l.l.l.l.l.l.l.l.l.l.l.l.l.l.l.l.l.l.l.l.",
"l.l.l.l.l.l.l.l.l.l.l.l.l.l.l.l.l.l.l.l.l.l.l.l.l.l.l.l.l.l.l.> p ' 2.0.0.+.' i = O l.l.l.l.l.l.l.l.l.l.l.l.l.l.l.l.l.l.l.l.l.l.",
"l.l.l.l.l.l.l.l.l.l.l.l.l.l.l.l.l.l.l.l.l.l.l.l.l.l.l.l.l.l.l.l.@ q ` -.-.` q @ @ @ l.l.l.l.l.l.l.l.l.l.l.l.l.l.l.l.l.l.l.l.l.l.",
"l.l.l.l.l.l.l.l.l.l.l.l.l.l.l.l.l.l.l.l.l.l.l.l.l.@ . . . . l.. . $ q p p q $ . O O . . . . + l.l.l.l.l.l.l.l.l.l.l.l.l.l.l.l.l.",
"l.l.l.l.l.l.l.l.l.l.l.l.l.l.l.l.l.l.l.l.l.l.l.l.@ @ @ # % % # # # @ % % % % % # # # # # # # @ @ l.l.l.l.l.l.l.l.l.l.l.l.l.l.l.l.",
"l.l.l.l.l.l.l.l.l.l.l.l.l.l.l.l.l.l.l.l.l.l.l.l.+ % 8 m A A b h v b v v v h h h h h h n h 9 * O l.l.l.l.l.l.l.l.l.l.l.l.l.l.l.l.",
"l.l.l.l.l.l.l.l.l.l.l.l.l.l.l.l.l.l.l.l.l.l.l.l.+ * B T u.y.E J G C C C C G J K I J G C S h * O l.l.l.l.l.l.l.l.l.l.l.l.l.l.l.l.",
"l.l.l.l.l.l.l.l.l.l.l.l.l.l.l.l.l.l.l.l.l.l.l.. + 1 B E u.a.u.T h 6 4 6 6 v R u.y.R m 4 6 1 # . l.l.l.l.l.l.l.l.l.l.l.l.l.l.l.l.",
"l.l.l.l.l.l.l.l.l.l.l.l.l.l.l.l.l.l.l.l.l.l.* * @ * B T u.a.a.Q 7 + + . o 8 Q s.s.Q 7 + + O @ @ l.l.l.l.l.l.l.l.l.l.l.l.l.l.l.l.",
"l.l.l.l.l.l.l.l.l.l.l.l.l.l.l.l.l.l.l.l.. * h 9 * * B T ) s.s.Q 7 . . . . 6 Q s.s.Q 6 . . + . @ + @ l.l.l.l.l.l.l.l.l.l.l.l.l.l.",
"l.l.l.l.l.l.l.l.l.l.l.l.l.l.l.l.l.l.l.l.* 8 C B * * B T u.a.s.~ h * * * * h ~ s.s.! h * * * * * @ @ l.l.l.l.l.l.l.l.l.l.l.l.l.l.",
"l.l.l.l.l.l.l.l.l.l.l.l.l.l.l.l.l.l.. * h C H B * * m E y.s.a.( H B B B B H y.a.s.y.L B B B B h * @ l.l.l.l.l.l.l.l.l.l.l.l.l.l.",
"l.l.l.l.l.l.l.l.l.l.l.l.l.l.l.l.l.l.* 9 C Y T A 2 * m E y.s.s.i.~ T E R T ~ u.s.s.y.Q E E E Q H 1 + l.l.l.l.l.l.l.l.l.l.l.l.l.l.",
"l.l.l.l.l.l.l.l.l.l.l.l.l.l.l.l.@ * b C G T ( T 6 * m R y.s.s.p.i.u.u.u.u.i.a.a.s.a.i.y.u.u.i.R 6 . l.l.l.l.l.l.l.l.l.l.l.l.l.l.",
"l.l.l.l.l.l.l.l.l.l.l.l.l.l.l.l.O * N Y T ^ i.Q 8 * B Y ~ / R Q u.u.Q ! u.y.Q Q y.y.Q W u.u.! D 3 + l.l.l.l.l.l.l.l.l.l.l.l.l.l.",
"l.l.l.l.l.l.l.l.l.l.l.l.l.l.l.l.+ 1 B T ( p.s.Q 6 * M K Y S v M / ! M M / ! M M ! y.M M ! y.M 4 % @ l.l.l.l.l.l.l.l.l.l.l.l.l.l.",
"l.l.l.l.l.l.l.l.l.l.l.l.l.l.l.% 6 h I / i.s.s.Q 6 # 8 m G C v V y.y.P P y.y.P P y.y.P P y.y.U n & . l.l.l.l.l.l.l.l.l.l.l.l.l.l.",
"l.l.l.l.l.l.l.l.l.l.l.l.l.l.@ 2 m Y / p.p.s.a.Q 9 @ @ 2 B H H I y.y.u.u.i.p.y.y.i.i.i.y.i.p.u.U 7 @ l.l.l.l.l.l.l.l.l.l.l.l.l.l.",
"l.l.l.l.l.l.l.l.l.l.l.l.l.* 6 v C Y E ( i.a.s./ B 2 # * B K I Y Q / ( / ^ ^ / y.^ / / / / W L Z V m 4 l.l.l.l.l.l.l.l.l.l.l.l.l.",
"l.l.l.l.l.l.l.l.l.l.l.l.+ 3 N H K J Y T y.a.s.) E m * * m H H G H H H H H H H H H H H H H V 4 h W W 5 . l.l.l.l.l.l.l.l.l.l.l.l.",
"l.l.l.l.l.l.l.l.l.l.l.l.. 2 B Y ~ ^ ~ / u.s.a.p.) P 4 O 2 6 6 6 6 6 6 6 8 8 6 6 6 6 6 6 6 9 m U y.W g . l.l.l.l.l.l.l.l.l.l.l.l.",
"l.l.l.l.l.l.l.l.l.l.l.l.O * B T ( p.a.a.a.a.a.a.a.Q c & * * * * 1 & & % # @ % % & 1 * * & c W k.d.Q g . l.l.l.l.l.l.l.l.l.l.l.l.",
"l.l.l.l.l.l.l.l.l.l.l.l.+ 1 B Y E / a.s.s.s.d.d.k.i.W P I I P U P H B g 3 4 9 M L I I I P W i.k.d.Q 7 + l.l.l.l.l.l.l.l.l.l.l.l.",
"l.l.l.l.l.l.l.l.l.l.l.l.o * b F C H W y.( / / ( / / / / / / ( ( y.Q H m 5 4 m J Q / / / y./ / / y.U 5 . l.l.l.l.l.l.l.l.l.l.l.l.",
"l.l.l.l.l.l.l.l.l.l.l.l.l.l.4 4 2 4 g c h g g g c c c c c c c c g g 8 3 % & 3 7 g g c c g g c c g g l.l.l.l.l.l.l.l.l.l.l.l.l.l.",
"l.l.l.l.l.l.l.l.l.l.l.l.l.l.# @ @ @ @ @ @ @ @ @ # @ @ # O # # @ @ @ @ # @ # @ @ @ @ @ # @ # @ @ @ @ l.l.l.l.l.l.l.l.l.l.l.l.l.l.",
"l.l.l.l.l.l.l.l.l.l.l.l.+ # & & & - & & & & & & & & & & & & & & & & - & & 3 & & - & & & - & & & = & @ $ l.l.l.l.l.l.l.l.l.l.l.l.",
"l.l.l.l.l.l.l.l.l.l.l.l.@ @ % 3 3 3 & 3 & 3 3 & & 3 & 3 & & 3 & & 3 & & 3 & * 3 & 3 3 1 & 3 & * 3 & @ @ l.l.l.l.l.l.l.l.l.l.l.l.",
"l.l.l.l.l.l.l.l.l.l.l.l.@ @ @ @ @ o @ @ @ @ # @ @ @ @ o # O @ @ @ O # & @ # @ O @ @ @ O @ @ @ # @ @ @ @ l.l.l.l.l.l.l.l.l.l.l.l.",
"l.l.l.l.l.l.l.l.l.l.l.l.@ @ @ # o & @ & @ @ & & # # & & & & & & & & & O & & & # & % & # & & & # % # @ O l.l.l.l.l.l.l.l.l.l.l.l.",
"l.l.l.l.l.l.l.l.l.l.l.l.@ @ & 3 3 3 3 3 3 3 3 5 3 3 4 5 6 6 6 8 6 6 6 6 6 6 6 6 6 6 6 6 6 6 6 6 8 2 # @ l.l.l.l.l.l.l.l.l.l.l.l.",
"l.l.l.l.l.l.l.l.l.l.l.l.o @ 3 3 3 3 3 3 3 5 9 5 5 5 9 9 9 9 9 9 9 9 9 9 9 9 9 9 9 9 9 9 9 9 9 9 9 6 % @ l.l.l.l.l.l.l.l.l.l.l.l.",
"l.l.l.l.l.l.l.l.l.l.l.l.@ @ & 3 3 3 3 5 8 9 9 c 8 8 8 8 9 9 9 8 9 9 9 9 9 9 9 9 9 9 9 9 9 9 9 9 9 4 # O l.l.l.l.l.l.l.l.l.l.l.l.",
"l.l.l.l.l.l.l.l.l.l.l.l.+ # 3 3 4 3 3 3 3 5 5 8 8 8 5 8 8 8 9 9 9 9 9 9 9 8 9 9 9 9 9 9 9 9 9 9 9 4 # @ l.l.l.l.l.l.l.l.l.l.l.l.",
"l.l.l.l.l.l.l.l.l.l.l.l.+ @ & 3 3 3 3 3 3 3 3 3 8 8 5 3 8 9 9 9 9 9 9 9 9 9 9 9 9 9 9 9 9 9 9 9 9 6 % O l.l.l.l.l.l.l.l.l.l.l.l.",
"l.l.l.l.l.l.l.l.l.l.l.l.l.# # & 3 3 3 3 3 3 5 5 9 8 5 8 5 9 9 9 9 9 9 8 9 9 9 9 9 9 9 9 9 9 9 8 2 * # l.l.l.l.l.l.l.l.l.l.l.l.l.",
"l.l.l.l.l.l.l.l.l.l.l.l.l.l.@ $ & 3 3 3 3 3 5 8 8 8 9 9 9 9 9 9 9 8 9 9 9 9 9 9 9 8 8 9 8 8 9 4 # @ l.l.l.l.l.l.l.l.l.l.l.l.l.l.",
"l.l.l.l.l.l.l.l.l.l.l.l.l.l.l.@ & & # & 3 3 3 5 4 5 5 3 3 5 9 9 6 5 8 9 9 9 9 8 5 5 5 4 3 & * % # l.l.l.l.l.l.l.l.l.l.l.l.l.l.l.",
"l.l.l.l.l.l.l.l.l.l.l.l.l.l.l.l.o @ o # & 3 3 3 3 3 3 3 3 5 5 5 3 4 6 8 6 9 9 6 3 3 3 & @ @ O @ l.l.l.l.l.l.l.l.l.l.l.l.l.l.l.l.",
"l.l.l.l.l.l.l.l.l.l.l.l.l.l.l.l.l.l.l.& @ & 3 3 3 3 3 3 3 3 3 5 3 3 4 4 4 4 4 4 3 3 % @ @ l.l.l.l.l.l.l.l.l.l.l.l.l.l.l.l.l.l.l.",
"l.l.l.l.l.l.l.l.l.l.l.l.l.l.l.l.l.l.l.l.o @ & 3 3 3 3 3 3 3 3 3 3 3 3 3 3 3 3 3 3 3 # + l.l.l.l.l.l.l.l.l.l.l.l.l.l.l.l.l.l.l.l.",
"l.l.l.l.l.l.l.l.l.l.l.l.l.l.l.l.l.l.l.l.o & & 3 3 3 3 3 3 3 3 3 3 3 3 3 3 3 3 3 3 & @ @ l.l.l.l.l.l.l.l.l.l.l.l.l.l.l.l.l.l.l.l.",
"l.l.l.l.l.l.l.l.l.l.l.l.l.l.l.l.l.l.l.l.o @ 3 3 3 3 3 3 3 3 3 3 3 3 3 3 3 3 3 3 3 * @ @ l.l.l.l.l.l.l.l.l.l.l.l.l.l.l.l.l.l.l.l."
};
