/* XPM */
static char *_477886e27874a2299806d92bca61faeG4OsAicFCdXewUfw[] = {
/* columns rows colors chars-per-pixel */
"32 36 5 1 ",
"  c None",
". c #222222",
"X c #DA4E38",
"o c #9F294E",
"O c #FDF7ED",
/* pixels */
"                                ",
"                                ",
"                                ",
"                                ",
"                                ",
"                 .              ",
"              . .    .          ",
"        .... ........           ",
"       ...o...XXooXXo....       ",
"      ....X.o.XXOOXXO.o...      ",
"     .  .oXXo.XXOOXXO.X. .      ",
"       ...oXo.XX..XX..X..       ",
"      ...oXXXo.......oX...      ",
"     ......XXo.o.o.o.o.. .      ",
"     .. ......O.O.O.O.O.        ",
"     .  ........O...O..         ",
"         ..............         ",
"         . ...........          ",
"         . ...........          ",
"           . ..... . .          ",
"           . . ..               ",
"               ..    .          ",
"           .  .... .            ",
"         . ......... .          ",
"      .  .............   .      ",
"      .. ............... .      ",
"       ........O.....O....      ",
"      .......O.O.O.O.O.O..      ",
"      ....o.o.X.X.X.X.o..       ",
"       .o.XXXXXXXXXXXXXo.       ",
"       .ooooXXXXXXXXXXXX...     ",
"     ....ooXXXXoXXXXXXXX..      ",
"      ..ooooooooooXXooXX.       ",
"       .oooooooooooooooo.       ",
"        .oooo......oooo.        ",
"         .oo.      .oo.         "
};
